<?xml version="1.0" standalone="no"?>
<!DOCTYPE svg PUBLIC "-//W3C//DTD SVG 1.1//EN" "http://www.w3.org/Graphics/SVG/1.1/DTD/svg11.dtd" >
<svg xmlns="http://www.w3.org/2000/svg">
<metadata></metadata>
<defs>
<font id="candara-boldbold" horiz-adv-x="516" >
<font-face units-per-em="2048" ascent="1484" descent="-564" />
<missing-glyph horiz-adv-x="444" />
<glyph unicode="&#xfb01;" horiz-adv-x="1195" d="M49 741l8 199q107 -6 166 -6q0 284 104.5 393t356.5 109t428 -98l-77 -198q-192 115 -364 115q-123 0 -167.5 -63t-44.5 -258q292 0 619 37q-12 -195 -12 -475t14 -496h-270q14 207 14 432t-7 331q-135 -15 -358 -15q0 -377 14 -748h-264q14 367 14 748q-57 0 -174 -7z " />
<glyph unicode="&#xfb02;" horiz-adv-x="1198" d="M49 742l8 198q106 -7 167 -7q0 282 95 392.5t271 110.5q113 0 200 -30l289 16q-15 -283 -15 -682t15 -740h-273q15 344 15 684t-16 560q-87 21 -190 21t-130 -71t-27 -261q89 0 245 8l-8 -199q-156 6 -237 6q0 -377 15 -748h-264q15 366 15 748q-59 0 -175 -6z" />
<glyph unicode="&#xfb03;" horiz-adv-x="1800" d="M49 741l8 199q107 -6 166 -6q0 264 105 373t334 109q169 0 291 -70q106 90 314 90q274 0 450 -98l-77 -198q-192 115 -364 115q-123 0 -167.5 -63t-44.5 -258q292 0 619 37q-12 -195 -12 -475t14 -496h-270q14 207 14 432t-7 331q-135 -15 -358 -15q0 -377 14 -748h-264 q13 357 14 748h-369q0 -377 14 -748h-264q14 367 14 748q-57 0 -174 -7zM459 934h369q0 161 34 266q-90 45 -202 45t-156.5 -63t-44.5 -248z" />
<glyph unicode="&#xfb04;" horiz-adv-x="1803" d="M49 741l8 199q107 -6 166 -6q0 264 105 373t334 109q169 0 294 -59q91 79 222 79t218 -30l289 16q-15 -283 -15 -682t15 -740h-273q15 344 15 684t-16 560q-87 21 -190 21t-130 -71t-27 -261q89 0 245 8l-8 -199q-156 6 -237 6q0 -377 15 -748h-264q15 366 15 748h-371 q0 -377 14 -748h-264q14 367 14 748q-57 0 -174 -7zM459 934h371q0 162 31 267q-89 44 -201 44t-156.5 -63t-44.5 -248z" />
<glyph horiz-adv-x="1024" />
<glyph horiz-adv-x="1024" />
<glyph horiz-adv-x="682" />
<glyph unicode="&#x9;" horiz-adv-x="444" />
<glyph unicode=" "  horiz-adv-x="444" />
<glyph unicode="&#x09;" horiz-adv-x="444" />
<glyph unicode="&#xa0;" horiz-adv-x="444" />
<glyph unicode="&#xd;" horiz-adv-x="444" />
<glyph unicode="!" d="M81 156q0 70 50.5 123.5t133.5 53.5t124 -46.5t41 -116.5t-50.5 -125t-132.5 -55t-124 48t-42 118zM122 1155q0 183 160 183q145 0 145 -190t-117 -611h-102q-86 435 -86 618z" />
<glyph unicode="&#x22;" horiz-adv-x="936" d="M109 1262q0 67 43 113t116 46q142 0 142 -159q0 -215 -146 -560h-84q-71 372 -71 560zM520 1262q0 67 43 113t116 46q142 0 142 -159q0 -215 -146 -560h-84q-71 372 -71 560z" />
<glyph unicode="#" horiz-adv-x="1033" d="M34 362v180h214q15 38 35 90l40 104h-289v180h357q117 317 124 392h148q-8 -41 -140 -392h199q117 319 124 392h148q-8 -39 -140 -392h144v-180h-212q-12 -32 -31 -83t-42 -111h285v-180h-353q-113 -305 -127 -362h-150q15 37 141 362h-195q-113 -305 -127 -362h-150 q15 37 141 362h-144zM382 542h197q15 41 35 92l40 102h-199q-11 -32 -31 -84t-42 -110z" />
<glyph unicode="$" horiz-adv-x="909" d="M88 53l33 193q125 -43 243 -43t164 20.5t46 71.5q0 69 -152 133t-215 115q-97 81 -97 193t72.5 190.5t213.5 98.5q0 205 -8 303h143q-8 -97 -8 -296q166 -2 252 -31l-34 -194q-115 45 -253 45t-138 -86q0 -41 34 -67t154 -72q118 -46 183 -101q95 -82 95 -207 q0 -247 -293 -289q0 -175 8 -293h-143q6 118 6 283q-151 0 -306 33z" />
<glyph unicode="%" horiz-adv-x="1033" d="M50 1066q0 98 68 170t189 72t189 -71t68 -169t-68 -170t-189 -72t-189 71t-68 169zM62 10q0 97 375 643t375 649l148 -10q0 -89 -375 -633t-375 -659zM200 1064q0 -54 29 -93t81 -39t82 39q28 39 28 93t-29 96q-29 41 -81 41t-80 -41q-30 -42 -30 -96zM474 230 q0 98 68 169q68 72 189 72t189 -71t68 -168.5t-68 -169.5t-189 -72t-189 71t-68 169zM624 228q0 -54 29 -94q29 -39 81 -39t82 39q28 40 28 94t-29 95t-81 41t-80 -41q-30 -41 -30 -95z" />
<glyph unicode="&#x26;" horiz-adv-x="1396" d="M62 304q0 145 73 255.5t212 169.5v14q-177 135 -177 279t114 223t262 79t253 -72.5t105 -204.5q0 -183 -196 -272v-15q91 -49 254 -211h15q41 67 41 213h251q0 -41 -63 -155t-116 -167v-14q80 -74 181.5 -227t101.5 -199h-296q0 29 -46 108.5t-81 116.5h-15 q-190 -254 -470 -254q-186 0 -294.5 94t-108.5 239zM316 388q0 -104 62 -168t171 -64q156 0 308 182v15q-60 68 -159.5 163.5t-212.5 148.5q-169 -77 -169 -277zM401 1032q0 -119 175 -198q122 57 122 174q0 72 -41 113t-105 41t-107.5 -36.5t-43.5 -93.5z" />
<glyph unicode="'" d="M109 1262q0 67 43 113t116 46q142 0 142 -159q0 -215 -146 -560h-84q-71 372 -71 560z" />
<glyph unicode="(" horiz-adv-x="723" d="M79 490q0 508 255 822q106 131 255 209l51 -136q-100 -75 -172 -191q-172 -280 -172 -723q0 -381 178 -638q73 -108 177 -182l-73 -137q-146 67 -249 185q-250 283 -250 791z" />
<glyph unicode=")" horiz-adv-x="723" d="M79 1385l72 136q146 -67 250 -185q250 -282 250 -790t-255 -823q-107 -131 -256 -209l-51 137q101 74 173 191q172 279 172 722q0 381 -177 639q-74 108 -178 182z" />
<glyph unicode="*" horiz-adv-x="1033" d="M95 1096q0 54 22.5 95.5t72.5 41.5t254 -156l23 16q-43 203 -43 271q0 31 34.5 50.5t78.5 19.5q99 0 99 -70q0 -79 -71 -277l22 -20q200 125 260 125q38 0 65.5 -46t27.5 -88q0 -63 -82 -80q-32 -7 -105 -7t-142 2l-8 -26q197 -169 197 -226q0 -41 -44 -81.5t-87 -40.5 q-82 0 -151 292h-29q-105 -263 -177 -263q-42 0 -88 35.5t-46 76.5q0 72 232 214l-7 29q-100 12 -269 46q-39 13 -39 67z" />
<glyph unicode="+" horiz-adv-x="1033" d="M107 409v180h320v340h180v-340h319v-180h-319v-340h-180v340h-320z" />
<glyph unicode="," d="M19 -323q136 151 136 327q-76 46 -76 149q0 72 51 126t133 54t123.5 -54t41.5 -123q0 -261 -320 -555z" />
<glyph unicode="-" d="M39 410l9 180l431 15l-12 -180z" />
<glyph unicode="&#xad;" d="M39 410l9 180l431 15l-12 -180z" />
<glyph unicode="." d="M81 156q0 70 50.5 123.5t133.5 53.5t124 -46.5t41 -116.5t-50.5 -125t-132.5 -55t-124 48t-42 118z" />
<glyph unicode="/" horiz-adv-x="547" d="M5 -302q0 65 179 816.5t179 940.5h179q0 -69 -178 -828.5t-178 -928.5h-181z" />
<glyph unicode="0" horiz-adv-x="1094" d="M90 484q0 275 121 434t345 159q448 -1 448 -559q0 -276 -120 -417t-344 -141t-337 124.5t-113 399.5zM340 547q0 -201 51.5 -297.5t166.5 -96.5q199 0 199 313q0 183 -51 301t-168 118q-198 0 -198 -338z" />
<glyph unicode="1" horiz-adv-x="685" d="M50 786l351 270h124q-11 -412 -11 -602t11 -454h-267q11 258 11 418t-7 342l-160 -70z" />
<glyph unicode="2" horiz-adv-x="982" d="M100 0l21 201q422 235 422 472q0 197 -273 197q-73 0 -155 -14l19 186q87 22 269 22t289 -87t107 -237q0 -188 -139.5 -323t-295.5 -205v-13q221 0 518 15l-21 -214h-761z" />
<glyph unicode="3" horiz-adv-x="964" d="M40 -232q263 17 419 108t156 236q0 238 -446 238l21 161q165 0 269.5 56.5t104.5 144.5q0 160 -250 160q-112 0 -199 -18l18 185q71 25 273 25t300 -75t98 -186t-68 -189t-162 -109v-15q133 -22 216.5 -115t83.5 -228q0 -203 -193 -352q-221 -171 -614 -194z" />
<glyph unicode="4" horiz-adv-x="1099" d="M50 318q0 18 257.5 365t259.5 372h274q-13 -336 -13 -718q89 0 181 9l-21 -217h-159q0 -187 12 -459h-264q9 253 9 459h-515zM253 326q127 0 340 5q7 280 17 507h-14q0 -21 -171.5 -253t-171.5 -246v-13z" />
<glyph unicode="5" horiz-adv-x="969" d="M90 402q59 467 59 653h650l-9 -218q-191 21 -472 21q-22 -144 -22 -277q583 0 583 -407q1 -207 -201 -365t-557 -175l-28 164q244 19 380.5 107.5t136.5 228.5t-120.5 204t-399.5 64z" />
<glyph unicode="6" horiz-adv-x="1083" d="M90 498q0 811 733 846l19 -163q-455 -49 -504 -468h16q83 102 261 102t278 -116q100 -115 100 -289q-1 -174 -121 -312t-319 -138t-321 122q-142 143 -142 416zM332 568q0 -431 218 -431q95 -1 150 73t55 178t-61 184q-61 79 -175 79t-187 -83z" />
<glyph unicode="7" horiz-adv-x="952" d="M50 834l9 221h823q0 -191 -131 -489q-121 -250 -247 -510t-127 -386l-266 21q0 120 271 585.5t271 577.5q-206 0 -603 -20z" />
<glyph unicode="8" horiz-adv-x="1098" d="M90 351q0 120 70 221t203 155v16q-198 115 -198 307q-1 140 113 228t283 89q169 0 274 -81.5t105 -209.5q0 -94 -54 -178t-153 -124v-16q275 -141 275 -385q0 -174 -131 -285.5t-333 -111.5t-328 104.5t-126 270.5zM328 376q0 -98 62 -160t156 -62t153 55.5t59 144.5 q0 194 -251 306q-79 -29 -129 -107.5t-50 -176.5zM383 1069q0 -149 208 -248q136 69 136 220q0 79 -48.5 125.5t-124.5 46.5t-123.5 -39.5t-47.5 -104.5z" />
<glyph unicode="9" horiz-adv-x="1081" d="M90 622q0 174 118 308t316 134t333 -144q134 -144 134 -424q0 -418 -192 -652t-557 -250l-28 165q254 15 390 185q115 144 133 374h-10q-91 -106 -264 -106t-273 118t-100 292zM325 636q0 -104 62 -184t176 -80t182 93q0 215 -65 317t-158 102t-145 -72t-52 -176z" />
<glyph unicode=":" d="M81 156q1 70 51 124t133 53t124 -47t41 -116t-50 -124q-50 -56 -133 -56q-82 0 -124 48t-42 118zM81 780q1 70 51 124t133 53t124 -47t41 -116t-50 -124q-50 -56 -133 -56q-82 0 -124 48t-42 118z" />
<glyph unicode=";" d="M19 -323q136 151 136 327q-76 46 -76 149q0 72 51 126t133 54q81 0 123 -54t42 -123q0 -261 -320 -555zM81 780q1 70 51 124t133 53t124 -47t41 -116t-50 -124q-50 -56 -133 -56q-82 0 -124 48t-42 118z" />
<glyph unicode="&#x3c;" horiz-adv-x="1033" d="M107 433v139l736 418l83 -187l-585 -290v-23l585 -287l-83 -188z" />
<glyph unicode="=" horiz-adv-x="1033" d="M107 200v180h819v-180h-819zM107 619v180h819v-180h-819z" />
<glyph unicode="&#x3e;" horiz-adv-x="1033" d="M107 203l584 288v23l-584 289l83 187l736 -418v-139l-736 -418z" />
<glyph unicode="?" horiz-adv-x="723" d="M54 1146l23 189q311 0 457.5 -65.5t146.5 -236.5q0 -216 -279 -345l-21 -151h-133l-38 213q215 63 215 208q0 177 -371 188zM123 156q0 70 50.5 123.5t133.5 53.5t124 -46.5t41 -116.5t-50.5 -125t-132.5 -55t-124 48t-42 118z" />
<glyph unicode="@" horiz-adv-x="2066" d="M131 493q0 401 244 691.5t665 290.5t659.5 -252t238.5 -616q0 -262 -130 -449t-346 -187q-131 0 -201 60.5t-70 152.5h-12q-109 -213 -300 -213q-135 0 -208 113t-73 280q0 231 125 407t344 176q122 0 179 -74h13l17 46l196 21q-74 -455 -74 -571t30 -168.5t107 -52.5 t131.5 123.5t54.5 294.5q0 307 -174.5 513t-496.5 206t-505.5 -238.5t-183.5 -562.5t176 -550.5t500 -226.5q168 0 310 52l24 -195q-143 -39 -338 -39q-430 0 -666 283.5t-236 684.5zM814 412q0 -126 36 -193t103 -67q112 0 190.5 167.5t78.5 407.5q-57 50 -138 50 q-125 0 -197.5 -119.5t-72.5 -245.5z" />
<glyph unicode="A" horiz-adv-x="1290" d="M11 0q0 39 233.5 640t233.5 662h378q0 -57 211.5 -652.5t211.5 -649.5h-320q0 66 -91 374h-462q-94 -303 -94 -374h-301zM453 565h364q-171 516 -171 558h-16q0 -39 -177 -558z" />
<glyph unicode="B" horiz-adv-x="1224" d="M144 0q13 302 13 674t-13 628h162l324 6q443 0 443 -288q0 -222 -227 -294v-15q121 -19 211 -94.5t90 -224.5q0 -398 -651 -398q-113 0 -352 6zM397 1105q11 -101 11 -347q38 -2 80 -2q316 0 316 185q0 179 -224 179q-103 0 -183 -15zM409 575q0 -209 9 -385 q34 -8 102 -8q185 0 271 44.5t86 154.5q0 199 -349 199q-69 0 -119 -5z" />
<glyph unicode="C" horiz-adv-x="1131" d="M77 628q0 276 190.5 484t522.5 208q122 0 231 -28l-35 -231q-118 38 -226 38q-203 0 -302 -128.5t-99 -314.5t117.5 -324t329.5 -138q124 0 270 43l-17 -230q-142 -34 -280 -34q-343 0 -522.5 189.5t-179.5 465.5z" />
<glyph unicode="D" horiz-adv-x="1321" d="M144 0q13 302 13 674t-13 628h175l239 6q361 0 523.5 -180t162.5 -448t-182 -480t-510 -212q-148 0 -408 12zM399 1099q10 -201 10 -429t10 -463q65 -13 130 -13q215 0 318.5 133.5t103.5 325.5t-112 323.5t-342 131.5q-43 0 -118 -9z" />
<glyph unicode="E" horiz-adv-x="1080" d="M144 0q13 302 13 674t-13 628h812l-11 -219q-300 16 -544 16q10 -139 10 -328q209 0 447 11v-209q-234 10 -447 10q0 -203 8 -380q274 0 584 17l-8 -220h-851z" />
<glyph unicode="F" horiz-adv-x="1005" d="M144 0q13 302 13 674t-13 628h828l-9 -219q-312 16 -565 16q13 -171 13 -379q193 0 438 10v-207q-248 9 -438 9q0 -283 9 -532h-276z" />
<glyph unicode="G" horiz-adv-x="1273" d="M77 626q0 276 193.5 485t536.5 209q161 0 284 -29l-33 -236q-157 41 -282 41q-211 0 -315 -129.5t-104 -318.5t116.5 -331t321.5 -142q57 0 132 12q-15 111 -15 219t-21 242h283q-8 -154 -8 -288t8 -326q-238 -61 -398 -61q-344 0 -521.5 188.5t-177.5 464.5z" />
<glyph unicode="H" horiz-adv-x="1338" d="M144 0q13 330 13 683t-13 619h283q-12 -281 -12 -520h508q0 211 -12 520h283q-14 -254 -14 -629t14 -673h-283q10 331 10 574h-504q0 -218 10 -574h-283z" />
<glyph unicode="I" horiz-adv-x="571" d="M144 0q13 310 13 678t-13 624h283q-13 -252 -13 -625t13 -677h-283z" />
<glyph unicode="J" horiz-adv-x="818" d="M11 -6l18 215q67 -30 134 -30q131 0 190 57q85 82 85 310q0 457 -15 756h273q-12 -298 -12 -736q0 -333 -137 -473q-116 -120 -361 -120q-88 0 -175 21z" />
<glyph unicode="K" horiz-adv-x="1207" d="M144 0q13 302 13 674t-13 628h282q-11 -277 -11 -520h22q43 0 219 242t176 278h298q0 -32 -186 -252t-273 -281v-15q101 -53 313 -383t212 -371h-327q-1 46 -175 326t-249 280h-30q0 -228 11 -606h-282z" />
<glyph unicode="L" horiz-adv-x="994" d="M144 0q12 271 12 664t-12 638h281q-12 -226 -12 -574t-13 -525q276 0 583 15l-8 -218h-831z" />
<glyph unicode="M" horiz-adv-x="1769" d="M99 0q0 30 72.5 601t72.5 701h387q0 -112 122.5 -494t122.5 -489h15q0 108 139.5 490t139.5 493h384q0 -207 46.5 -738.5t46.5 -563.5h-291q0 170 -21 573.5t-22 503.5h-15q-38 -231 -185.5 -623t-147.5 -454h-221q0 64 -113.5 381t-148.5 444t-56 252h-15 q-1 -125 -24.5 -536t-23.5 -541h-264z" />
<glyph unicode="N" horiz-adv-x="1361" d="M144 0q15 310 15 678t-15 624h297q0 -52 255 -434t294 -522h15q-24 223 -24 447t-14 509h250q-14 -248 -14 -622t14 -680h-247q0 42 -282 444t-321 554h-16q25 -219 25 -431t14 -567h-246z" />
<glyph unicode="O" horiz-adv-x="1427" d="M77 632q0 296 188.5 498t458.5 202t448 -185t178 -482t-188 -499t-458 -202t-448.5 186t-178.5 482zM353 649q0 -204 107.5 -334.5t258.5 -130.5t253 131.5t102 335.5t-107 334t-259 130t-253.5 -131t-101.5 -335z" />
<glyph unicode="P" horiz-adv-x="1138" d="M144 0q13 289 13 665t-13 637h174l324 6q190 0 321 -86t131 -261q0 -239 -177.5 -353t-435.5 -114q-47 0 -67 2q0 -188 11 -496h-281zM402 1105q11 -189 11 -428q25 -2 58 -2q365 0 365 231q0 214 -284 214q-71 0 -150 -15z" />
<glyph unicode="Q" horiz-adv-x="1427" d="M77 632q0 296 188.5 498t458.5 202t448 -185t178 -472q0 -206 -90 -370.5t-244 -254.5v-16q163 -20 242 -114.5t131 -351.5l-293 -12q-56 257 -123.5 332.5t-275.5 75.5q-264 0 -442 186t-178 482zM353 649q0 -204 108.5 -334.5t258.5 -130.5t252 131.5t102 335.5 t-108 334t-258 130t-252.5 -131t-102.5 -335z" />
<glyph unicode="R" horiz-adv-x="1220" d="M144 0q13 302 13 674t-13 628h173l302 6q459 0 459 -314q0 -249 -262 -347v-15q101 -28 177 -157.5t205 -474.5h-296q-116 354 -178 437t-200 83q-58 0 -111 -1q0 -257 9 -519h-278zM401 1105q11 -155 11 -404q55 -2 93 -2q318 0 318 221q0 199 -256 199q-94 0 -166 -14z " />
<glyph unicode="S" horiz-adv-x="1071" d="M77 10l49 223q162 -56 314 -56t222 31.5t70 105.5t-62 123t-227 120q-166 71 -253 161t-87 251q0 160 127.5 257t345.5 97t350 -33l-37 -222q-135 49 -292 49q-236 0 -236 -126q-1 -67 51 -106t218 -106t251 -150q113 -111 113 -274q0 -391 -562 -391q-191 0 -355 46z " />
<glyph unicode="T" horiz-adv-x="1077" d="M22 1086l8 216h1025l-7 -215q-200 15 -377 15q-2 -189 -2 -485t11 -617h-280q13 318 13 614t-4 488q-141 0 -387 -16z" />
<glyph unicode="U" horiz-adv-x="1347" d="M122 1302h283q-13 -338 -13 -632t70 -396.5t220 -102.5t217.5 101.5t67.5 393.5t-13 636h271q-9 -336 -9 -672q0 -664 -544 -664q-269 0 -405 147t-136 505t-9 684z" />
<glyph unicode="V" horiz-adv-x="1175" d="M11 1302h317q0 -73 134 -518t134 -505h17q0 58 134.5 487t134.5 536h282q0 -82 -228.5 -652t-228.5 -650h-275q0 77 -210.5 653t-210.5 649z" />
<glyph unicode="W" horiz-adv-x="1877" d="M11 1302h317q0 -63 114 -502t114 -521h16q0 82 122 511.5t122 511.5h285q0 -75 122 -520.5t122 -502.5h16q0 72 110.5 489t110.5 534h284q0 -93 -200 -660t-200 -642h-264q0 79 -125 458t-141 504h-17q-16 -126 -130 -508t-114 -454h-270q0 94 -197 669t-197 633z" />
<glyph unicode="X" horiz-adv-x="1203" d="M11 0q0 30 194.5 337t249.5 361v15q-53 61 -215 309t-162 280h322q0 -32 93 -215t131 -229h16q37 47 125.5 229t88.5 215h296q0 -28 -171.5 -277.5t-219.5 -296.5v-15q66 -72 249.5 -374t183.5 -339h-335q-1 34 -113 254t-160 286h-16q-44 -60 -146 -280t-102 -260h-309z " />
<glyph unicode="Y" horiz-adv-x="1130" d="M11 1302h314q0 -36 125.5 -303.5t125.5 -345.5h16q0 72 122.5 328t122.5 321h282q-1 -40 -145 -268t-182 -295q-114 -203 -114 -301q0 -220 12 -438h-284q11 219 11 441q0 102 -105 309q-49 96 -175 308t-126 244z" />
<glyph unicode="Z" horiz-adv-x="1054" d="M77 0l15 205q109 144 332 492t223 393v16q-239 0 -553 -23l6 219h856l-14 -207q-110 -152 -321 -491t-211 -386v-15q210 0 567 23l-7 -226h-893z" />
<glyph unicode="[" horiz-adv-x="723" d="M118 -475q12 501 12 957t-12 1026l481 13l-10 -211q-181 6 -261 6q-9 -475 -9 -799t9 -809q74 2 271 18l-10 -212z" />
<glyph unicode="\" horiz-adv-x="547" d="M6 1455h189q0 -189 174 -940.5t174 -816.5h-191q0 169 -173 928.5t-173 828.5z" />
<glyph unicode="]" horiz-adv-x="723" d="M119 -485l10 211q181 -6 261 -6q9 475 9 799t-9 809q-74 -2 -271 -18l10 212l471 -11q-12 -501 -12 -957t12 -1026z" />
<glyph unicode="^" horiz-adv-x="1033" d="M29 682l418 735h139l418 -735l-179 -83l-298 593h-23l-295 -593z" />
<glyph unicode="_" horiz-adv-x="1033" d="M0 -332h1033v-180h-1033v180z" />
<glyph unicode="`" horiz-adv-x="562" d="M61 1410h271q0 -11 90 -159.5t90 -164.5h-175q0 16 -138 164t-138 160z" />
<glyph unicode="a" horiz-adv-x="1006" d="M73 229q0 152 128.5 249t450.5 103q2 18 2 34q0 108 -52 142.5t-197 34.5t-289 -40l22 184q136 47 384 47q181 0 279.5 -76t98.5 -266l-7 -301q0 -207 32 -339l-236 -8q-16 42 -16 76h-13q-110 -94 -297 -94q-125 0 -207.5 69.5t-82.5 184.5zM311 269q0 -119 150 -119 q118 0 197 59q-6 135 -6 233q-341 0 -341 -173z" />
<glyph unicode="b" horiz-adv-x="1136" d="M88 1406l287 16q-10 -233 -10 -527h12q101 89 283 89t294.5 -138.5t112.5 -342.5t-124 -368t-341 -164q-160 0 -226 68h-13l-20 -39h-235q13 352 13 732t-33 674zM361 717q0 -342 15 -515q63 -49 163 -49q133 0 197.5 98.5t64.5 230.5t-63.5 224t-187.5 92t-189 -81z" />
<glyph unicode="c" horiz-adv-x="912" d="M69 465q0 206 145 362.5t397 156.5q123 0 219 -28l-34 -204q-92 38 -210 38t-187.5 -86t-69.5 -216t83 -224t235 -94q89 0 221 40l-17 -191q-91 -48 -247 -48q-258 0 -396.5 144t-138.5 350z" />
<glyph unicode="d" horiz-adv-x="1127" d="M69 454q0 205 123 367.5t342 162.5q142 0 213 -53h14q0 236 -23 475l283 8q-16 -233 -16 -673t22 -740l-237 -8q-7 35 -7 73h-15q-110 -95 -292 -95t-294.5 139t-112.5 344zM336 474q0 -134 62 -225.5t172 -91.5q147 0 206 71q0 319 -15 528q-69 48 -165 48 q-132 0 -196 -98t-64 -232z" />
<glyph unicode="e" horiz-adv-x="1049" d="M69 470q0 208 130.5 364.5t352.5 156.5t325 -115t103 -299q0 -51 -6 -133l-644 -11q14 -113 97 -188t225 -75t312 45l-20 -194q-138 -50 -342 -50q-258 0 -395.5 145.5t-137.5 353.5zM328 578l418 8q0 230 -196 230q-187 0 -222 -238z" />
<glyph unicode="f" horiz-adv-x="741" d="M49 742l8 198q106 -7 167 -7q0 503 338 503q101 0 175 -17l-36 -178q-57 14 -123 14t-93 -66t-27 -256q89 0 245 8l-8 -199q-156 6 -237 6q0 -377 15 -748h-264q15 366 15 748q-59 0 -175 -6z" />
<glyph unicode="g" horiz-adv-x="1128" d="M30 -223q0 91 52.5 154.5t121.5 77.5v15q-84 52 -84 162t115 184v14q-162 81 -162 253q0 147 111.5 246t344.5 99q159 0 258 -60h14q29 189 194 189q65 0 114 -23l-22 -186q-156 0 -195 -45v-13q59 -75 59 -168q0 -143 -105.5 -244t-314.5 -101q-102 0 -167 16 q-53 -24 -53 -63q0 -61 63.5 -85.5t295.5 -24.5q401 0 401 -273q0 -192 -167 -305t-406 -113q-468 0 -468 294zM259 -178q0 -192 256 -192q143 0 226 54t83 136t-56.5 114.5t-181.5 32.5t-239 10q-88 -52 -88 -155zM327 654q0 -88 58 -134t133 -46t131.5 45t56.5 133 t-58 135t-133 47t-131.5 -46t-56.5 -134z" />
<glyph unicode="h" horiz-adv-x="1126" d="M88 1406l283 16q-15 -322 -15 -560h13q131 121 297 121t257.5 -73t91.5 -257l-5 -155q0 -167 5 -498h-266q22 254 22 462t-45 263.5t-151 55.5t-211 -73q0 -425 10 -708h-266q11 310 11 726t-31 680z" />
<glyph unicode="i" horiz-adv-x="510" d="M106 941l288 29q-13 -194 -13 -473t14 -497h-269q14 207 14 474t-34 467zM116 1235q0 65 46 115t124 50t116.5 -44t38.5 -108t-46.5 -115t-122.5 -51t-116 44t-40 109z" />
<glyph unicode="j" horiz-adv-x="510" d="M20 -316q71 57 96.5 167.5t25.5 489.5t-36 602l288 28q-14 -303 -14 -602l8 -397q0 -369 -295 -428zM112 1236q0 65 47 115t125 50t116 -43.5t38 -107.5t-47 -115.5t-123 -51.5t-116 44t-40 109z" />
<glyph unicode="k" horiz-adv-x="1045" d="M92 1406l284 16q-14 -380 -14 -548t1 -279h14q28 0 159 161.5t131 193.5h298q0 -31 -136 -173t-220 -196v-15q93 -65 256.5 -295.5t163.5 -270.5h-306q0 37 -152 250.5t-194 213.5h-13q0 -205 12 -464h-265q12 467 12 796t-31 610z" />
<glyph unicode="l" horiz-adv-x="528" d="M121 1406l289 16q-15 -283 -15 -682t15 -740h-273q15 343 15 738t-31 668z" />
<glyph unicode="m" horiz-adv-x="1704" d="M72 943l256 28l17 -106h16q130 118 293 118q204 0 287 -118h16q147 118 305 118t244.5 -73.5t86.5 -266.5l-4 -145q0 -167 4 -498h-265q21 253 21 462t-46 264t-137 55t-181 -59q-4 -125 -4 -258t6 -464h-268q22 274 22 533q0 134 -37.5 191t-151.5 57t-185 -73 q5 -396 5 -708h-269q18 312 18 519t-49 424z" />
<glyph unicode="n" horiz-adv-x="1126" d="M72 943l256 28l17 -106h16q137 118 303 118t258.5 -72.5t92.5 -267.5l-5 -177q0 -135 5 -466h-266q22 253 22 512q0 157 -46.5 213t-150.5 56t-207 -78q5 -390 5 -703h-269q18 313 18 522t-49 421z" />
<glyph unicode="o" horiz-adv-x="1144" d="M69 464q0 244 156.5 387t360.5 143t346.5 -130.5t142.5 -374.5t-155 -386t-360 -142t-348 129.5t-143 373.5zM330 484q0 -142 68 -240.5t176 -98.5t174 91.5t66 233.5t-68 240.5t-176 98.5t-174 -91.5t-66 -233.5z" />
<glyph unicode="p" horiz-adv-x="1146" d="M82 943l256 28l15 -86h16q107 99 295 99t300 -138.5t112 -342.5t-124 -368t-339 -164q-160 0 -220 68h-12q0 -245 7 -496h-272q18 287 18 717t-52 683zM371 717q15 -281 15 -515q63 -49 163 -49q133 0 197 98.5t64 231.5t-63 224t-187 91t-189 -81z" />
<glyph unicode="q" horiz-adv-x="1136" d="M69 454q0 206 125 368t340 162q159 0 240 -59h14l35 25l210 16q-13 -314 -13 -706t13 -715h-266q11 274 11 521h-16q-103 -95 -285 -95t-295 138.5t-113 344.5zM336 474q0 -134 62 -225.5t172 -91.5q147 0 208 82q0 329 -11 516q-75 49 -171 49q-131 0 -195.5 -98 t-64.5 -232z" />
<glyph unicode="r" horiz-adv-x="789" d="M76 943l255 28q17 -110 17 -129h16q92 141 245 141q72 0 162 -33l-58 -234q-74 30 -150 30q-147 0 -194 -132q0 -399 6 -614h-266q17 302 17 516t-50 427z" />
<glyph unicode="s" horiz-adv-x="859" d="M64 8l34 197q125 -45 247 -45t168.5 20t46.5 67q0 73 -158 135t-224 118q-92 78 -92 201t99 204t282 81t284 -31l-34 -198q-113 44 -259 44q-145 0 -145 -81q0 -43 34 -68.5t159 -71.5t191 -102q94 -80 94 -205q0 -300 -444 -300q-162 0 -283 35z" />
<glyph unicode="t" horiz-adv-x="743" d="M49 742l7 197q77 -6 143 -6q1 53 8 279l237 29q-15 -199 -15 -308q84 0 251 8l-8 -199q-152 6 -247 6q-2 -133 -2 -295t36 -222.5t127 -60.5q55 0 118 17l-17 -178q-70 -30 -176 -30q-162 0 -244 88t-82 339q0 151 2 342q-51 0 -138 -6z" />
<glyph unicode="u" horiz-adv-x="1107" d="M85 942l279 10q-16 -192 -16 -400t36.5 -293.5t148.5 -85.5t197 56q0 526 -12 714l270 9q-10 -189 -10 -451t27 -500l-234 -8q-16 54 -16 86h-16q-131 -108 -301 -108t-253.5 86.5t-83.5 345.5l3 185q0 111 -19 354z" />
<glyph unicode="v" horiz-adv-x="1002" d="M27 950h292q0 -45 98.5 -347.5t98.5 -355.5h13q0 48 94 336t94 367h259q0 -58 -179 -475t-179 -475h-273q0 64 -159 486.5t-159 463.5z" />
<glyph unicode="w" horiz-adv-x="1613" d="M33 950h288q0 -41 87.5 -343.5t87.5 -359.5h15q0 69 100 358.5t100 344.5h235q0 -38 97.5 -345t97.5 -358h14q0 56 88.5 340.5t88.5 362.5h249q0 -57 -166.5 -468t-166.5 -482h-233q0 46 -92 312t-120 374h-16q-27 -104 -115 -368t-88 -318h-234q0 61 -158.5 486.5 t-158.5 463.5z" />
<glyph unicode="x" horiz-adv-x="1055" d="M34 0q0 24 144.5 234t201.5 268v15q-48 52 -178 231t-130 202h311q0 -26 66 -153t101 -174h12q31 39 92.5 169.5t61.5 157.5h268q0 -19 -133.5 -200t-175.5 -220v-15q57 -63 203 -275t145 -240h-313q0 27 -80 176t-121 207h-14q-33 -45 -108 -200t-75 -183h-278z" />
<glyph unicode="y" horiz-adv-x="1002" d="M35 950h309q0 -35 91 -339t91 -372h14q0 58 82.5 342.5t82.5 368.5h263q0 -65 -153 -438t-191 -518q-65 -250 -173 -344q-107 -93 -316 -93h-4l-20 193q124 0 204 71t80 189t-180 519.5t-180 420.5z" />
<glyph unicode="z" horiz-adv-x="890" d="M73 0l14 191q49 45 241 286t192 277v16q-238 0 -438 -17l5 197h726l-15 -192q-62 -70 -238 -298t-176 -264v-15q227 0 450 19l-5 -200h-756z" />
<glyph unicode="{" horiz-adv-x="723" d="M45 438v149q242 35 242 155q0 46 -47.5 209.5t-47.5 230.5q0 196 223 287q92 38 222 52l45 -156q-294 -38 -294 -275q0 -52 47 -180t47 -164q0 -113 -93 -176q-68 -47 -136 -47v-15q68 0 148.5 -53.5t80.5 -165.5q0 -40 -47 -177.5t-47 -182.5q0 -187 304 -259l-68 -160 q-432 90 -432 319q0 74 43.5 244t43.5 216q0 70 -75.5 106.5t-158.5 42.5z" />
<glyph unicode="|" d="M152 -517q13 567 13 985t-13 1082h213q-12 -644 -12 -1078t12 -989h-213z" />
<glyph unicode="}" horiz-adv-x="723" d="M50 -331q286 58 286 260q0 47 -40.5 183.5t-40.5 175.5q0 112 93 173q68 44 137 44v14q-67 0 -148.5 56.5t-81.5 169.5q0 37 40.5 165.5t40.5 178.5q0 221 -282 275l51 157q129 -18 221 -57q220 -93 220 -276q0 -69 -46.5 -234.5t-46.5 -211.5q0 -69 77.5 -107t161.5 -45 v-149q-235 -59 -235 -152q0 -46 44.5 -214t44.5 -240q0 -167 -218 -263q-91 -40 -218 -62z" />
<glyph unicode="~" horiz-adv-x="1033" d="M6 376q147 276 335 276q68 0 175.5 -32t171.5 -32q118 0 218 112l123 -89q-149 -264 -337 -264q-68 0 -168.5 33.5t-164.5 33.5q-118 0 -230 -128z" />
<glyph unicode="&#xa1;" d="M86 797q0 70 50.5 125t132.5 55t124 -47.5t42 -117.5t-50.5 -124t-133.5 -54t-124 46.5t-41 116.5zM89 -182q0 190 117 612h102q86 -435 86 -618t-160 -183q-145 -1 -145 189z" />
<glyph unicode="&#xa2;" horiz-adv-x="1033" d="M114 498q0 182 111 331.5t307 183.5q-1 162 -8 305h139q-8 -148 -8 -295q114 -1 212 -29l-34 -200q-92 35 -203 35t-182.5 -89.5t-71.5 -215.5t81.5 -222t231.5 -96q83 0 211 35l-17 -191q-97 -39 -229 -42q0 -158 9 -281h-139q3 55 6 288q-201 28 -308.5 164.5 t-107.5 318.5z" />
<glyph unicode="&#xa3;" horiz-adv-x="909" d="M33 488l6 147q49 -4 118 -4q-7 70 -7 130q0 417 360 417q102 0 179 -13l-25 -170q-59 13 -109 13q-90 0 -129 -48t-39 -136t11 -193q74 0 194 5l-7 -147q-84 4 -169 4q6 -47 6 -88q0 -167 -110 -235v-10q206 0 541 19l-19 -179h-776v159q53 20 89 56.5t36 110.5t-13 167 q-65 0 -137 -5z" />
<glyph unicode="&#xa4;" horiz-adv-x="1000" d="M111 198l92 87q-40 69 -40 181t61 199l-97 92l102 102l97 -104q82 49 180 49t172 -44l110 115l101 -101l-111 -106q47 -72 47 -180t-46 -185l94 -88l-102 -102l-86 91q-91 -64 -199 -64t-187 49l-87 -92zM315 476q0 -80 48.5 -145.5t131.5 -65.5t130.5 61.5t47.5 141.5 t-48.5 145.5t-131.5 65.5t-130.5 -61.5t-47.5 -141.5z" />
<glyph unicode="&#xa5;" horiz-adv-x="909" d="M-24 1068h312q0 -27 92.5 -237t92.5 -267h14q0 55 87 263.5t87 240.5h273q0 -27 -78 -153.5t-156 -252.5q55 2 157 5v-122q-166 -1 -226 0q-23 -44 -34 -72h260v-122q-168 7 -286 7q1 -157 8 -358h-275q4 99 8 358q-92 0 -262 -7v122h237q-16 42 -30 72h-207v122 q112 -5 144 -5q-17 30 -117.5 205t-100.5 201z" />
<glyph unicode="&#xa6;" horiz-adv-x="500" d="M146 376h208q-12 -334 -12 -422t12 -454h-208q12 334 12 422t-12 454zM146 624q12 334 12 422t-12 454h208q-12 -334 -12 -422t12 -454h-208z" />
<glyph unicode="&#xa7;" horiz-adv-x="859" d="M64 -399l34 197q125 -45 249 -45q213 0 213 108q0 64 -123 174q-212 189 -228 206q-123 133 -123 253q0 201 198 264q-198 176 -198 324t95.5 239.5t276.5 91.5t293 -30l-34 -199q-124 44 -263 44t-139 -106q0 -65 123 -169q202 -169 230 -198q123 -132 123 -265 q0 -201 -186 -262q186 -167 186 -337q0 -325 -444 -325q-162 0 -283 35zM300 531q0 -70 161 -191q58 0 88 33.5t30 79.5q0 72 -157 197q-59 0 -90.5 -34.5t-31.5 -84.5z" />
<glyph unicode="&#xa8;" horiz-adv-x="836" d="M82 1236q0 56 40 98.5t106 42.5t98 -37t32 -92t-39.5 -98.5t-104.5 -43.5t-98.5 37t-33.5 93zM476 1236q0 55 40 98t106 43t98.5 -37t32.5 -92t-39.5 -98.5t-105.5 -43.5t-99 37.5t-33 92.5z" />
<glyph unicode="&#xa9;" horiz-adv-x="1353" d="M55 608q0 252 179.5 432t432.5 180t431.5 -179.5t178.5 -432.5t-178.5 -430.5t-431.5 -177.5t-432.5 178t-179.5 430zM149 610q0 -215 151.5 -366.5t365.5 -151.5t365.5 151.5t151.5 366.5t-151.5 367t-365.5 152t-365.5 -152t-151.5 -367zM393 610q0 138 95.5 242 t260.5 104q61 0 116 -14l-18 -115q-58 19 -113 19q-100 0 -150 -64t-50 -158t58.5 -162.5t164.5 -68.5q62 0 135 22l-8 -115q-82 -17 -140 -17q-173 0 -262 94.5t-89 232.5z" />
<glyph unicode="&#xaa;" horiz-adv-x="574" d="M30 903q0 96 86 151t233 55q-1 53 -19 69t-86 16q-70 0 -188 -33l16 133q96 31 199 31q235 0 235 -196l-3 -186q0 -92 18 -184l-158 -7q-6 12 -6 45h-7q-50 -51 -136 -51q-184 0 -184 157zM188 921q0 -48 60 -48t101 25v2q-2 32 -2 99q-159 -9 -159 -78z" />
<glyph unicode="&#xab;" horiz-adv-x="929" d="M70 387v201l294 259l82 -117l-201 -242l201 -244l-82 -118zM483 387v201l294 259l82 -117l-201 -242l201 -244l-82 -118z" />
<glyph unicode="&#xac;" horiz-adv-x="1033" d="M107 617v192h819v-649h-159v457h-660z" />
<glyph unicode="&#xae;" horiz-adv-x="1353" d="M55 772q0 252 179.5 431.5t432.5 179.5t431.5 -179.5t178.5 -432.5t-178.5 -430.5t-431.5 -177.5t-432.5 178.5t-179.5 430.5zM149 773q0 -215 151.5 -367t365.5 -152t365.5 152t151.5 367t-151.5 366.5t-365.5 151.5t-365.5 -151.5t-151.5 -366.5zM436 466q7 150 7 336 t-7 315h87l151 3q229 0 229 -157q0 -125 -131 -174v-7q50 -14 88.5 -79t102.5 -237h-148q-58 177 -89 218.5t-100 41.5q-29 0 -55 -1q0 -128 4 -259h-139zM565 1018q5 -78 5 -202q27 -1 47 -1q159 0 159 111q0 99 -128 99q-47 0 -83 -7z" />
<glyph unicode="&#xaf;" horiz-adv-x="500" d="M1 1161l11 174h485l-12 -174h-484z" />
<glyph unicode="&#xb0;" horiz-adv-x="547" d="M-12 1255q0 107 77 190t207 83t194.5 -73t64.5 -179t-78 -191.5t-206 -85.5t-193.5 74.5t-65.5 181.5zM107 1258q0 -60 35.5 -100t107.5 -40t116.5 46.5t44.5 105.5t-37 99t-109 40t-115 -45.5t-43 -105.5z" />
<glyph unicode="&#xb1;" horiz-adv-x="1033" d="M107 45v180h819v-180h-819zM107 619v180h320v290h180v-290h319v-180h-319v-290h-180v290h-320z" />
<glyph unicode="&#xb2;" horiz-adv-x="547" d="M55 607l13 109q97 67 170 161t73 192q0 120 -128 120q-64 0 -122 -17l15 124q60 20 170 20t170.5 -62t60.5 -162q0 -181 -212 -352v-10q152 0 241 8l-16 -131h-435z" />
<glyph unicode="&#xb3;" horiz-adv-x="547" d="M19 645q314 35 314 170q0 111 -244 111l18 110q117 0 162 17t45 59t-26 59.5t-80 17.5t-151 -21l9 126q82 22 181 22q226 0 226 -168q0 -92 -101 -132v-8q132 -39 132 -175q0 -109 -111 -196t-349 -99z" />
<glyph unicode="&#xb4;" horiz-adv-x="562" d="M59 1086q0 16 90 164.5t90 159.5h271q0 -12 -138 -160t-138 -164h-175z" />
<glyph unicode="&#xb5;" horiz-adv-x="1128" d="M86 938l290 11q-9 -208 -9 -408t44.5 -281t151.5 -81t181 67q0 507 -12 694l268 10q-11 -232 -11 -450t31 -501l-235 -8q-19 68 -19 103h-16q-85 -94 -218 -94t-205 94h-16q0 -269 57 -549l-262 -20q13 400 13 771t-33 642z" />
<glyph unicode="&#xb6;" horiz-adv-x="1371" d="M125 1005q0 194 134.5 300t318.5 106l352 -6h269q-13 -275 -13 -793t13 -1025h-271q8 519 8 955t-9 666q-32 3 -133 6q-11 -528 -11 -938t13 -772h-186q12 365 12 654t-1 407q-246 3 -371 104t-125 336z" />
<glyph unicode="&#xb7;" d="M81 595q1 69 51 123t133 54t124 -46t41 -116t-50 -126t-133 -55q-82 0 -124 48t-42 118z" />
<glyph unicode="&#xb8;" horiz-adv-x="470" d="M120 -182l41 234l87 -14l-16 -130q189 -47 189 -195q0 -227 -246 -227l-24 112q40 0 69 29.5t29 65.5q0 101 -129 125z" />
<glyph unicode="&#xb9;" horiz-adv-x="547" d="M32 1111l291 193h104q-5 -174 -5 -358t5 -339h-170q6 163 6 295t-3 212l-190 -99z" />
<glyph unicode="&#xba;" horiz-adv-x="637" d="M37 1026q1 138 85 221t202 83t197 -74t79 -213q0 -137 -85 -221t-202 -84t-197 75t-79 213zM200 1040q0 -76 34 -127q34 -52 88 -52t84 45q30 44 31 122q-1 78 -35 129t-87 51t-84 -46t-31 -122z" />
<glyph unicode="&#xbb;" horiz-adv-x="929" d="M70 244l202 242l-202 244l83 117l293 -259v-201l-293 -261zM483 244l202 242l-202 244l83 117l293 -259v-201l-293 -261z" />
<glyph unicode="&#xbc;" horiz-adv-x="1550" d="M62 1111l291 193h104q-5 -174 -5 -358t5 -339h-170q6 163 6 295t-3 212l-190 -99zM170 -22q0 72 497 666t497 691l166 -20q0 -66 -498 -666t-497 -691zM900 303q0 18 123 186t141 209h187q-9 -159 -9 -367q44 0 98 8l-16 -132h-82q0 -68 8 -236h-170q6 128 6 236h-273z M1047 327h52q58 0 87 1q4 112 4 223h-5q-10 -41 -138 -215v-9z" />
<glyph unicode="&#xbd;" horiz-adv-x="1550" d="M93 1111l291 193h104q-5 -174 -5 -358t5 -339h-170q6 163 6 295t-3 212l-190 -99zM195 -22q0 72 497 666t497 691l166 -20q1 -66 -497 -666t-498 -691zM969 1l13 109q97 67 170 161t73 192q0 120 -128 120q-64 0 -122 -17l15 124q60 20 170 20t170 -62t61 -162 q0 -181 -212 -352v-10q152 0 241 8l-16 -131h-435z" />
<glyph unicode="&#xbe;" horiz-adv-x="1550" d="M78 645q314 35 314 170q0 111 -244 111l18 110q117 0 162 17t45 59t-26 60q-25 17 -79 17t-152 -21l9 126q82 22 181 22q226 0 226 -168q0 -92 -101 -132v-8q132 -39 132 -175q0 -109 -111 -196t-349 -99zM198 -22q0 72 497 666t497 691l166 -20q0 -66 -498 -666 t-497 -691zM888 303q0 18 123 186t141 209h187q-9 -159 -9 -367q44 0 98 8l-16 -132h-82q0 -68 8 -236h-170q6 128 6 236h-273zM1035 327h52q58 0 87 1q4 112 4 223h-5q-10 -41 -138 -215v-9z" />
<glyph unicode="&#xbf;" horiz-adv-x="723" d="M42 -59q0 216 279 345l21 151h133l38 -213q-215 -62 -215 -208q0 -177 371 -188l-23 -189q-311 0 -457.5 65.5t-146.5 236.5zM251 804q0 70 50.5 125t132.5 55t124 -48t42 -118t-50.5 -123.5t-133.5 -53.5t-124 46.5t-41 116.5z" />
<glyph unicode="&#xc0;" horiz-adv-x="1290" d="M11 0q-1 39 233 640t234 662h378q0 -56 212 -652t211 -650h-320q0 66 -91 374h-462q-94 -303 -94 -374h-301zM336 1690h291q0 -10 80 -134t80 -140h-175q-10 16 -143 139t-133 135zM453 565h364q-171 516 -171 558h-16q0 -39 -177 -558z" />
<glyph unicode="&#xc1;" horiz-adv-x="1290" d="M11 0q-1 39 233 640t234 662h378q0 -56 212 -652t211 -650h-320q0 66 -91 374h-462q-94 -303 -94 -374h-301zM453 565h364q-171 516 -171 558h-16q0 -39 -177 -558zM536 1416q0 16 80 140t80 134h291q0 -12 -133 -135t-143 -139h-175z" />
<glyph unicode="&#xc2;" horiz-adv-x="1290" d="M11 0q-1 39 233 640t234 662h378q0 -56 212 -652t211 -650h-320q0 66 -91 374h-462q-94 -303 -94 -374h-301zM352 1416q0 16 100 140t100 134h242q0 -10 100 -134t100 -140h-155q-10 16 -166 134q-156 -118 -166 -134h-155zM453 565h364q-171 516 -171 558h-16 q0 -39 -177 -558z" />
<glyph unicode="&#xc3;" horiz-adv-x="1290" d="M11 0q-1 39 233 640t234 662h378q0 -56 212 -652t211 -650h-320q0 66 -91 374h-462q-94 -303 -94 -374h-301zM293 1483q112 186 256 186q50 0 124 -23t113 -23q91 0 176 77l89 -75q-112 -196 -256 -196q-45 0 -121 23t-116 23q-91 0 -176 -67zM453 565h364 q-171 516 -171 558h-16q0 -39 -177 -558z" />
<glyph unicode="&#xc4;" horiz-adv-x="1290" d="M11 0q-1 39 233 640t234 662h378q0 -56 212 -652t211 -650h-320q0 66 -91 374h-462q-94 -303 -94 -374h-301zM326 1552q0 56 40 98t106 43q66 0 98 -37t32 -92q0 -54 -40 -98t-104 -44t-98 38t-34 92zM453 565h364q-171 516 -171 558h-16q0 -39 -177 -558zM720 1552 q0 55 40 98t106 43t98 -37t33 -92q1 -54 -39 -98t-106 -44t-98 38q-34 38 -34 92z" />
<glyph unicode="&#xc5;" horiz-adv-x="1290" d="M11 0q-1 39 233 640t234 662h378q0 -56 212 -652t211 -650h-320q0 66 -91 374h-462q-94 -303 -94 -374h-301zM443 1580q-1 110 77 176t173 66t161 -56t65 -166q1 -110 -77 -178t-173 -67q-95 -1 -161 57t-65 168zM453 565h364q-171 516 -171 558h-16q0 -39 -177 -558z M558 1584q0 -62 34 -94t83 -33q50 -1 90 37t40 100q1 62 -33 94t-84 32t-90 -37t-40 -99z" />
<glyph unicode="&#xc6;" horiz-adv-x="1695" d="M11 0q0 38 234 638t234 664h1091l-9 -219q-314 16 -558 16q12 -141 12 -328q194 0 460 8v-206q-247 10 -460 10q0 -193 7 -380q277 0 596 17l-8 -220h-860q11 185 11 374h-371q-91 -290 -91 -374h-288zM437 565h326q0 325 -10 534h-131q0 -39 -185 -534z" />
<glyph unicode="&#xc7;" horiz-adv-x="1131" d="M77 627q0 275 191 484t522 209q122 0 231 -28l-35 -231q-118 38 -226 38q-201 0 -301 -128.5t-100 -314.5t117.5 -324t329.5 -138q124 0 270 43l-17 -230q-142 -34 -237 -34t-142 5l-9 -70q189 -47 189 -195q0 -227 -246 -227l-24 112q40 0 69 29.5t29 65.5 q0 101 -129 125l30 173q-211 41 -361.5 201t-150.5 435z" />
<glyph unicode="&#xc8;" horiz-adv-x="1080" d="M144 0q13 302 13 674t-13 628h812l-11 -219q-300 16 -544 16q10 -139 10 -328q209 0 447 11v-209q-234 10 -447 10q0 -203 8 -380q274 0 584 17l-8 -220h-851zM266 1690h291q0 -10 80 -134t80 -140h-175q-10 16 -143 139t-133 135z" />
<glyph unicode="&#xc9;" horiz-adv-x="1080" d="M144 0q13 302 13 674t-13 628h812l-11 -219q-300 16 -544 16q10 -139 10 -328q209 0 447 11v-209q-234 10 -447 10q0 -203 8 -380q274 0 584 17l-8 -220h-851zM468 1416q0 16 80 140t80 134h291q0 -12 -133 -135t-143 -139h-175z" />
<glyph unicode="&#xca;" horiz-adv-x="1080" d="M144 0q13 302 13 674t-13 628h812l-11 -219q-300 16 -544 16q10 -139 10 -328q209 0 447 11v-209q-234 10 -447 10q0 -203 8 -380q274 0 584 17l-8 -220h-851zM273 1416q0 16 100 140t100 134h242q0 -10 100 -134t100 -140h-155q-10 16 -166 134q-156 -118 -166 -134 h-155z" />
<glyph unicode="&#xcb;" horiz-adv-x="1080" d="M144 0q13 302 13 674t-13 628h812l-11 -219q-300 16 -544 16q10 -139 10 -328q209 0 447 11v-209q-234 10 -447 10q0 -203 8 -380q274 0 584 17l-8 -220h-851zM231 1552q0 56 40 98q39 42 105 43q66 0 98 -37t33 -92q1 -54 -39 -98t-105 -44t-99 38t-33 92zM625 1552 q1 55 41 98t106 43t98 -37t32 -92q0 -54 -40 -98t-104 -44q-66 0 -100 38t-33 92z" />
<glyph unicode="&#xcc;" horiz-adv-x="571" d="M-38 1690h291q0 -10 80 -134t80 -140h-175q-10 16 -143 139t-133 135zM144 0q13 310 13 678t-13 624h283q-13 -252 -13 -625t13 -677h-283z" />
<glyph unicode="&#xcd;" horiz-adv-x="571" d="M144 0q13 310 13 678t-13 624h283q-13 -252 -13 -625t13 -677h-283zM179 1416q0 16 80 140t80 134h291q0 -12 -133 -135t-143 -139h-175z" />
<glyph unicode="&#xce;" horiz-adv-x="571" d="M-34 1416q0 16 100 140t100 134h242q0 -10 100 -134t100 -140h-155q-10 16 -166 134q-156 -118 -166 -134h-155zM144 0q13 310 13 678t-13 624h283q-13 -252 -13 -625t13 -677h-283z" />
<glyph unicode="&#xcf;" horiz-adv-x="571" d="M-49 1552q0 56 40 98q39 42 105 43q66 0 98 -37t33 -92q1 -54 -39 -98t-105 -44t-99 38t-33 92zM144 0q13 310 13 678t-13 624h283q-13 -252 -13 -625t13 -677h-283zM345 1552q1 55 41 98t106 43t98 -37t32 -92q0 -54 -40 -98t-104 -44q-66 0 -100 38t-33 92z" />
<glyph unicode="&#xd0;" horiz-adv-x="1321" d="M11 568l9 179q80 -1 137 -1q0 307 -13 556h175l259 6q335 0 500.5 -176t165.5 -447t-181 -484t-502 -213q-157 0 -417 12q13 248 13 582q-56 -4 -146 -14zM399 1100q12 -139 11 -347q99 5 329 26l-9 -176q-70 0 -320 -7q0 -224 9 -389q65 -13 135 -13q210 0 313.5 134 t103.5 324t-115 323t-339 133q-51 0 -118 -8z" />
<glyph unicode="&#xd1;" horiz-adv-x="1361" d="M144 0q15 310 15 678t-15 624h297q0 -52 255 -434t294 -522h15q-24 223 -24 447t-14 509h250q-14 -248 -14 -622t14 -680h-247q0 42 -282 444t-321 554h-16q25 -219 25 -431t14 -567h-246zM305 1483q112 186 256 186q50 0 124 -23t113 -23q91 0 176 77l89 -75 q-112 -196 -256 -196q-45 0 -121 23t-116 23q-91 0 -176 -67z" />
<glyph unicode="&#xd2;" horiz-adv-x="1427" d="M77 632q0 296 188 498q189 202 459 202t448 -185t178 -482t-188 -499t-458 -202t-449 186q-178 186 -178 482zM353 649q-1 -205 107 -335t259 -130t253 132t102 335q0 204 -107 334t-259 130t-253 -131q-102 -131 -102 -335zM388 1690h291q0 -10 80 -134t80 -140h-175 q-10 16 -143 139t-133 135z" />
<glyph unicode="&#xd3;" horiz-adv-x="1427" d="M77 632q0 296 188 498q189 202 459 202t448 -185t178 -482t-188 -499t-458 -202t-449 186q-178 186 -178 482zM353 649q-1 -205 107 -335t259 -130t253 132t102 335q0 204 -107 334t-259 130t-253 -131q-102 -131 -102 -335zM655 1416q0 16 80 140t80 134h291 q0 -12 -133 -135t-143 -139h-175z" />
<glyph unicode="&#xd4;" horiz-adv-x="1427" d="M77 632q0 296 188 498q189 202 459 202t448 -185t178 -482t-188 -499t-458 -202t-449 186q-178 186 -178 482zM353 649q-1 -205 107 -335t259 -130t253 132t102 335q0 204 -107 334t-259 130t-253 -131q-102 -131 -102 -335zM400 1416q0 16 100 140t100 134h242 q0 -10 100 -134t100 -140h-155q-10 16 -166 134q-156 -118 -166 -134h-155z" />
<glyph unicode="&#xd5;" horiz-adv-x="1427" d="M77 632q0 296 188 498q189 202 459 202t448 -185t178 -482t-188 -499t-458 -202t-449 186q-178 186 -178 482zM353 649q-1 -205 107 -335t259 -130t253 132t102 335q0 204 -107 334t-259 130t-253 -131q-102 -131 -102 -335zM387 1483q112 186 256 186q50 0 124 -23 t113 -23q91 0 176 77l89 -75q-112 -196 -256 -196q-45 0 -121 23t-116 23q-91 0 -176 -67z" />
<glyph unicode="&#xd6;" horiz-adv-x="1427" d="M77 632q0 296 188 498q189 202 459 202t448 -185t178 -482t-188 -499t-458 -202t-449 186q-178 186 -178 482zM353 649q-1 -205 107 -335t259 -130t253 132t102 335q0 204 -107 334t-259 130t-253 -131q-102 -131 -102 -335zM396 1552q0 56 40 98t106 43q66 0 98 -37 t32 -92q0 -54 -40 -98t-104 -44t-98 38t-34 92zM790 1552q0 55 40 98t106 43t98 -37t33 -92q1 -54 -39 -98t-106 -44t-98 38q-34 38 -34 92z" />
<glyph unicode="&#xd7;" horiz-adv-x="1024" d="M144 259l241 240l-227 226l128 128l226 -227l240 241l128 -128l-241 -240l226 -226l-127 -127l-226 226l-240 -241z" />
<glyph unicode="&#xd8;" horiz-adv-x="1427" d="M66 -77q0 40 171 249q-158 182 -158 449q0 307 188 509t465 202q218 0 381 -131q98 126 98 158l149 -37q0 -43 -144 -225q136 -177 136 -422q0 -307 -188 -509t-465 -202q-200 0 -356 113q-130 -161 -130 -196zM355 653q0 -151 61 -267q190 216 538 618 q-102 111 -248 111t-248.5 -131t-102.5 -331zM504 270q96 -86 232 -86t238 131.5t102 330.5q0 126 -43 227q-185 -209 -529 -603z" />
<glyph unicode="&#xd9;" horiz-adv-x="1347" d="M122 1302h283q-13 -338 -13 -632t70 -397q70 -102 220 -102q150 -1 217 101q68 102 68 394t-13 636h271q-9 -336 -9 -672q0 -664 -544 -664q-269 0 -405 147t-136 505t-9 684zM353 1690h291q0 -10 80 -134t80 -140h-175q-10 16 -143 139t-133 135z" />
<glyph unicode="&#xda;" horiz-adv-x="1347" d="M122 1302h283q-13 -338 -13 -632t70 -397q70 -102 220 -102q150 -1 217 101q68 102 68 394t-13 636h271q-9 -336 -9 -672q0 -664 -544 -664q-269 0 -405 147t-136 505t-9 684zM574 1416q0 16 80 140t80 134h291q0 -12 -133 -135t-143 -139h-175z" />
<glyph unicode="&#xdb;" horiz-adv-x="1347" d="M122 1302h283q-13 -338 -13 -632t70 -397q70 -102 220 -102q150 -1 217 101q68 102 68 394t-13 636h271q-9 -336 -9 -672q0 -664 -544 -664q-269 0 -405 147t-136 505t-9 684zM355 1416q0 16 100 140t100 134h242q0 -10 100 -134t100 -140h-155q-10 16 -166 134 q-156 -118 -166 -134h-155z" />
<glyph unicode="&#xdc;" horiz-adv-x="1347" d="M122 1302h283q-13 -338 -13 -632t70 -397q70 -102 220 -102q150 -1 217 101q68 102 68 394t-13 636h271q-9 -336 -9 -672q0 -664 -544 -664q-269 0 -405 147t-136 505t-9 684zM347 1552q0 56 40 98q39 42 105 43q66 0 98 -37t33 -92q1 -54 -39 -98t-105 -44t-99 38 t-33 92zM741 1552q1 55 41 98t106 43t98 -37t32 -92q0 -54 -40 -98t-104 -44q-66 0 -100 38t-33 92z" />
<glyph unicode="&#xdd;" horiz-adv-x="1130" d="M11 1302h314q-1 -36 125 -304t126 -345h16q0 72 122 328t123 321h282q-1 -40 -145 -268t-182 -295q-114 -203 -114 -301q0 -220 12 -438h-284q11 219 11 441q0 102 -105 309q-49 96 -175 308t-126 244zM493 1416q0 16 80 140t80 134h291q0 -12 -133 -135t-143 -139h-175z " />
<glyph unicode="&#xde;" horiz-adv-x="1138" d="M144 0q12 317 12 679t-12 623h284q-6 -72 -9 -162q115 5 223 5q190 0 321 -86t131 -261q0 -236 -178.5 -351.5t-454.5 -115.5h-47q0 -125 8 -331h-278zM414 512h57q365 0 365 231q0 214 -284 214q-66 0 -136 -15q-2 -191 -2 -430z" />
<glyph unicode="&#xdf;" horiz-adv-x="1112" d="M99 0q10 332 10 896q0 267 152.5 403.5t334.5 136.5t283 -72t101 -206q0 -83 -61 -164q-56 -62 -115 -126t-59 -122t119 -163q182 -161 182 -305t-108 -222t-242 -78t-218 24l21 176q76 -28 166 -28q137 0 137 92q0 62 -139 192t-139 254q0 86 65 173q60 67 123 139 t63 129q0 131 -190 131q-100 0 -168 -82t-68 -261q0 -519 15 -917h-265z" />
<glyph unicode="&#xe0;" horiz-adv-x="1006" d="M73 229q1 152 129 249t450 103q2 18 2 34q0 109 -52 143t-197 34t-289 -40l22 184q136 47 384 47q182 0 280 -76t98 -266l-7 -301q0 -207 32 -339l-236 -8q-16 42 -16 76h-13q-110 -94 -297 -94q-125 -1 -207 69t-83 185zM161 1410h271q0 -12 90 -160t90 -164h-175 q0 16 -138 164t-138 160zM311 269q0 -119 150 -119q118 0 197 59q-6 135 -6 233q-341 0 -341 -173z" />
<glyph unicode="&#xe1;" horiz-adv-x="1006" d="M73 229q1 152 129 249t450 103q2 18 2 34q0 109 -52 143t-197 34t-289 -40l22 184q136 47 384 47q182 0 280 -76t98 -266l-7 -301q0 -207 32 -339l-236 -8q-16 42 -16 76h-13q-110 -94 -297 -94q-125 -1 -207 69t-83 185zM311 269q0 -119 150 -119q118 0 197 59 q-6 135 -6 233q-341 0 -341 -173zM379 1086q0 16 90 164t90 160h271q0 -12 -138 -160t-138 -164h-175z" />
<glyph unicode="&#xe2;" horiz-adv-x="1006" d="M73 229q1 152 129 249t450 103q2 18 2 34q0 109 -52 143t-197 34t-289 -40l22 184q136 47 384 47q182 0 280 -76t98 -266l-7 -301q0 -207 32 -339l-236 -8q-16 42 -16 76h-13q-110 -94 -297 -94q-125 -1 -207 69t-83 185zM159 1086q0 16 95 164t95 160h262q0 -12 95 -160 t95 -164h-155q0 16 -166 194q-166 -178 -166 -194h-155zM311 269q0 -119 150 -119q118 0 197 59q-6 135 -6 233q-341 0 -341 -173z" />
<glyph unicode="&#xe3;" horiz-adv-x="1006" d="M73 229q1 152 129 249t450 103q2 18 2 34q0 109 -52 143t-197 34t-289 -40l22 184q136 47 384 47q182 0 280 -76t98 -266l-7 -301q0 -207 32 -339l-236 -8q-16 42 -16 76h-13q-110 -94 -297 -94q-125 -1 -207 69t-83 185zM142 1143q112 226 256 226q50 0 124 -23t113 -23 q91 0 176 107l89 -75q-112 -226 -256 -226q-46 0 -122 23t-115 23q-91 0 -176 -107zM311 269q0 -119 150 -119q118 0 197 59q-6 135 -6 233q-341 0 -341 -173z" />
<glyph unicode="&#xe4;" horiz-adv-x="1006" d="M73 229q1 152 129 249t450 103q2 18 2 34q0 109 -52 143t-197 34t-289 -40l22 184q136 47 384 47q182 0 280 -76t98 -266l-7 -301q0 -207 32 -339l-236 -8q-16 42 -16 76h-13q-110 -94 -297 -94q-125 -1 -207 69t-83 185zM162 1236q0 56 40 98t106 43q66 0 98 -37t32 -92 q0 -54 -40 -98t-104 -44t-98 38t-34 92zM311 269q0 -119 150 -119q118 0 197 59q-6 135 -6 233q-341 0 -341 -173zM556 1236q0 55 40 98t106 43t98 -37t33 -92q1 -54 -39 -98t-106 -44t-98 38q-34 38 -34 92z" />
<glyph unicode="&#xe5;" horiz-adv-x="1006" d="M73 229q1 152 129 249t450 103q2 18 2 34q0 109 -52 143t-197 34t-289 -40l22 184q136 47 384 47q182 0 280 -76t98 -266l-7 -301q0 -207 32 -339l-236 -8q-16 42 -16 76h-13q-110 -94 -297 -94q-125 -1 -207 69t-83 185zM267 1264q-1 110 77 176t173 66t161 -56t65 -166 q1 -110 -77 -178t-173 -67q-95 -1 -161 57t-65 168zM311 269q0 -119 150 -119q118 0 197 59q-6 135 -6 233q-341 0 -341 -173zM382 1268q0 -62 34 -94t83 -33q50 -1 90 37t40 100q1 62 -33 94t-84 32t-90 -37t-40 -99z" />
<glyph unicode="&#xe6;" horiz-adv-x="1611" d="M73 229q0 152 128.5 249t450.5 103q2 18 2 34q0 108 -52.5 142.5t-197.5 34.5t-289 -40l22 184q135 47 363 47t313 -102h16q124 110 316 110t294.5 -115t102.5 -299q0 -51 -6 -133l-640 -11q14 -114 95 -188.5t223 -74.5t312 45l-20 -194q-139 -50 -343 -50 q-252 0 -391 163h-16q-97 -87 -174.5 -123t-210.5 -36t-215.5 69.5t-82.5 184.5zM310 269q0 -119 150 -119q118 0 236 85q-49 103 -49 207q-337 0 -337 -173zM894 578l414 8q0 230 -195 230t-219 -238z" />
<glyph unicode="&#xe7;" horiz-adv-x="912" d="M69 465q0 206 145 362.5t397 156.5q123 0 219 -28l-34 -204q-92 38 -210 38t-187.5 -86t-69.5 -216t83 -224t235 -94q89 0 221 40l-17 -191q-101 -48 -247 -48q-35 0 -65 3l-10 -66q189 -47 189 -195q0 -227 -246 -227l-24 112q40 0 69 29.5t29 65.5q0 101 -129 125 l29 170q-148 33 -262.5 152t-114.5 325z" />
<glyph unicode="&#xe8;" horiz-adv-x="1049" d="M69 470q1 208 131 364t352 157q222 0 325 -115t103 -299q0 -51 -6 -133l-644 -11q14 -113 97 -188t225 -75t312 45l-20 -194q-138 -50 -342 -50q-258 0 -396 145q-138 146 -137 354zM221 1410h271q0 -12 90 -160t90 -164h-175q0 16 -138 164t-138 160zM328 578l418 8 q0 230 -196 230q-187 0 -222 -238z" />
<glyph unicode="&#xe9;" horiz-adv-x="1049" d="M69 470q1 208 131 364t352 157q222 0 325 -115t103 -299q0 -51 -6 -133l-644 -11q14 -113 97 -188t225 -75t312 45l-20 -194q-138 -50 -342 -50q-258 0 -396 145q-138 146 -137 354zM328 578l418 8q0 230 -196 230q-187 0 -222 -238zM454 1086q0 16 90 164t90 160h271 q0 -12 -138 -160t-138 -164h-175z" />
<glyph unicode="&#xea;" horiz-adv-x="1049" d="M69 470q1 208 131 364t352 157q222 0 325 -115t103 -299q0 -51 -6 -133l-644 -11q14 -113 97 -188t225 -75t312 45l-20 -194q-138 -50 -342 -50q-258 0 -396 145q-138 146 -137 354zM234 1086q0 16 95 164t95 160h262q0 -12 95 -160t95 -164h-155q0 16 -166 194 q-166 -178 -166 -194h-155zM328 578l418 8q0 230 -196 230q-187 0 -222 -238z" />
<glyph unicode="&#xeb;" horiz-adv-x="1049" d="M69 470q1 208 131 364t352 157q222 0 325 -115t103 -299q0 -51 -6 -133l-644 -11q14 -113 97 -188t225 -75t312 45l-20 -194q-138 -50 -342 -50q-258 0 -396 145q-138 146 -137 354zM222 1236q0 56 40 98t106 43q66 0 98 -37t32 -92q0 -54 -40 -98t-104 -44t-98 38 t-34 92zM328 578l418 8q0 230 -196 230q-187 0 -222 -238zM616 1236q0 55 40 98t106 43t98 -37t33 -92q1 -54 -39 -98t-106 -44t-98 38q-34 38 -34 92z" />
<glyph unicode="&#xec;" horiz-adv-x="510" d="M-58 1410h271q0 -12 90 -160t90 -164h-175q0 16 -138 164t-138 160zM106 941l288 29q-13 -194 -13 -473t14 -497h-269q14 207 14 474t-34 467z" />
<glyph unicode="&#xed;" horiz-adv-x="510" d="M106 941l288 29q-13 -194 -13 -473t14 -497h-269q14 207 14 474t-34 467zM157 1086q0 16 90 164t90 160h271q0 -12 -138 -160t-138 -164h-175z" />
<glyph unicode="&#xee;" horiz-adv-x="510" d="M-60 1086q0 16 95 164t95 160h262q0 -12 95 -160t95 -164h-155q0 16 -166 194q-166 -178 -166 -194h-155zM106 941l288 29q-13 -194 -13 -473t14 -497h-269q14 207 14 474t-34 467z" />
<glyph unicode="&#xef;" horiz-adv-x="510" d="M-71 1236q0 56 40 98q39 42 105 43q66 0 98 -37t33 -92q1 -54 -39 -98t-105 -44t-99 38t-33 92zM106 941l288 29q-13 -194 -13 -473t14 -497h-269q14 207 14 474t-34 467zM323 1236q1 55 41 98t106 43t98 -37t32 -92q0 -54 -40 -98t-104 -44q-66 0 -100 38t-33 92z" />
<glyph unicode="&#xf0;" horiz-adv-x="1130" d="M72 446q0 196 125 347.5t349 151.5q100 0 204 -64h16q-36 158 -120 258q-88 -48 -162 -102l-89 142q40 17 174 69q-74 65 -133 110l129 101q56 -29 161 -115q75 46 166 111l88 -145q-40 -17 -150 -69q235 -249 235 -661q0 -261 -132.5 -439.5t-368.5 -178.5t-364 144 t-128 340zM337 448q0 -122 59.5 -210.5t169.5 -88.5t176 99.5t66 237.5t-16 209q-96 61 -214 61t-179.5 -93t-61.5 -215z" />
<glyph unicode="&#xf1;" horiz-adv-x="1126" d="M72 943l256 28l17 -106h16q137 118 303 118q166 -1 258 -73t93 -267l-5 -177q0 -135 5 -466h-266q22 253 22 512q-1 157 -47 213t-150 56t-207 -78q5 -390 5 -703h-269q18 313 18 522t-49 421zM202 1143q112 226 256 226q50 0 124 -23t113 -23q91 0 176 107l89 -75 q-112 -226 -256 -226q-46 0 -122 23t-115 23q-91 0 -176 -107z" />
<glyph unicode="&#xf2;" horiz-adv-x="1144" d="M69 464q0 244 156 387q157 143 361 143t346 -130t143 -375q0 -244 -155 -386t-360 -142q-205 -1 -348 129t-143 374zM251 1410h271q0 -12 90 -160t90 -164h-175q0 16 -138 164t-138 160zM330 484q0 -142 68 -240t176 -99q108 0 174 92q66 91 66 233t-68 240t-176 99 q-108 0 -174 -92q-66 -91 -66 -233z" />
<glyph unicode="&#xf3;" horiz-adv-x="1144" d="M69 464q0 244 156 387q157 143 361 143t346 -130t143 -375q0 -244 -155 -386t-360 -142q-205 -1 -348 129t-143 374zM330 484q0 -142 68 -240t176 -99q108 0 174 92q66 91 66 233t-68 240t-176 99q-108 0 -174 -92q-66 -91 -66 -233zM474 1086q0 16 90 164t90 160h271 q0 -12 -138 -160t-138 -164h-175z" />
<glyph unicode="&#xf4;" horiz-adv-x="1144" d="M69 464q0 244 156 387q157 143 361 143t346 -130t143 -375q0 -244 -155 -386t-360 -142q-205 -1 -348 129t-143 374zM269 1086q0 16 95 164t95 160h262q0 -12 95 -160t95 -164h-155q0 16 -166 194q-166 -178 -166 -194h-155zM330 484q0 -142 68 -240t176 -99 q108 0 174 92q66 91 66 233t-68 240t-176 99q-108 0 -174 -92q-66 -91 -66 -233z" />
<glyph unicode="&#xf5;" horiz-adv-x="1144" d="M69 464q0 244 156 387q157 143 361 143t346 -130t143 -375q0 -244 -155 -386t-360 -142q-205 -1 -348 129t-143 374zM242 1143q112 226 256 226q50 0 124 -23t113 -23q91 0 176 107l89 -75q-112 -226 -256 -226q-46 0 -122 23t-115 23q-91 0 -176 -107zM330 484 q0 -142 68 -240t176 -99q108 0 174 92q66 91 66 233t-68 240t-176 99q-108 0 -174 -92q-66 -91 -66 -233z" />
<glyph unicode="&#xf6;" horiz-adv-x="1144" d="M69 464q0 244 156 387q157 143 361 143t346 -130t143 -375q0 -244 -155 -386t-360 -142q-205 -1 -348 129t-143 374zM262 1236q0 56 40 98t106 43q66 0 98 -37t32 -92q0 -54 -40 -98t-104 -44t-98 38t-34 92zM330 484q0 -142 68 -240t176 -99q108 0 174 92q66 91 66 233 t-68 240t-176 99q-108 0 -174 -92q-66 -91 -66 -233zM656 1236q0 55 40 98t106 43t98 -37t33 -92q1 -54 -39 -98t-106 -44t-98 38q-34 38 -34 92z" />
<glyph unicode="&#xf7;" horiz-adv-x="1033" d="M111 409v180h810v-180h-810zM375 158q1 55 41 98t106 43t98 -37t32 -92q0 -54 -40 -98t-104 -44q-66 0 -100 38t-33 92zM381 829q1 55 41 98t106 43t98 -37t32 -92t-40 -99t-104 -43q-66 -1 -100 37t-33 93z" />
<glyph unicode="&#xf8;" horiz-adv-x="1144" d="M42 -72q0 35 142 193q-115 132 -115 334q0 253 156 396t352 143t327 -106q84 101 84 130l112 -37q0 -37 -117 -174q92 -125 92 -310q0 -253 -155 -394.5t-365 -141.5q-161 0 -284 84q-118 -132 -118 -159zM330 507q0 -118 33 -196l382 400q-69 98 -175 98t-173 -92 t-67 -210zM424 212q64 -67 160 -67t163 92t67 230q0 70 -20 132q-128 -133 -370 -387z" />
<glyph unicode="&#xf9;" horiz-adv-x="1107" d="M85 942l279 10q-16 -192 -16 -400t36 -294q36 -85 149 -85q112 0 197 56q0 526 -12 714l270 9q-10 -189 -10 -451t27 -500l-234 -8q-16 54 -16 86h-16q-131 -108 -301 -108q-170 1 -254 87t-83 345l3 185q0 111 -19 354zM221 1410h271q0 -12 90 -160t90 -164h-175 q0 16 -138 164t-138 160z" />
<glyph unicode="&#xfa;" horiz-adv-x="1107" d="M85 942l279 10q-16 -192 -16 -400t36 -294q36 -85 149 -85q112 0 197 56q0 526 -12 714l270 9q-10 -189 -10 -451t27 -500l-234 -8q-16 54 -16 86h-16q-131 -108 -301 -108q-170 1 -254 87t-83 345l3 185q0 111 -19 354zM434 1086q0 16 90 164t90 160h271 q0 -12 -138 -160t-138 -164h-175z" />
<glyph unicode="&#xfb;" horiz-adv-x="1107" d="M85 942l279 10q-16 -192 -16 -400t36 -294q36 -85 149 -85q112 0 197 56q0 526 -12 714l270 9q-10 -189 -10 -451t27 -500l-234 -8q-16 54 -16 86h-16q-131 -108 -301 -108q-170 1 -254 87t-83 345l3 185q0 111 -19 354zM244 1086q0 16 95 164t95 160h262q0 -12 95 -160 t95 -164h-155q0 16 -166 194q-166 -178 -166 -194h-155z" />
<glyph unicode="&#xfc;" horiz-adv-x="1107" d="M85 942l279 10q-16 -192 -16 -400t36 -294q36 -85 149 -85q112 0 197 56q0 526 -12 714l270 9q-10 -189 -10 -451t27 -500l-234 -8q-16 54 -16 86h-16q-131 -108 -301 -108q-170 1 -254 87t-83 345l3 185q0 111 -19 354zM222 1236q0 56 40 98t106 43q66 0 98 -37t32 -92 q0 -54 -40 -98t-104 -44t-98 38t-34 92zM616 1236q0 55 40 98t106 43t98 -37t33 -92q1 -54 -39 -98t-106 -44t-98 38q-34 38 -34 92z" />
<glyph unicode="&#xfd;" horiz-adv-x="1002" d="M35 950h309q0 -35 91 -339t91 -372h14q0 59 82 343t83 368h263q0 -65 -153 -438t-191 -518q-65 -250 -173 -344t-320 -93l-20 193q124 0 204 70t80 190q0 118 -180 520t-180 420zM424 1086q0 16 90 164t90 160h271q0 -12 -138 -160t-138 -164h-175z" />
<glyph unicode="&#xfe;" horiz-adv-x="1136" d="M87 1406l287 16q-10 -233 -10 -527h12q106 89 290 89t292.5 -137.5t108.5 -342.5t-124.5 -369t-341.5 -164q-155 0 -222 63h-14q0 -236 13 -491h-282q24 506 24 1030t-33 833zM360 717q0 -342 6 -515q62 -49 162 -49q134 0 203.5 99.5t69.5 231.5t-64.5 223t-188.5 91 t-188 -81z" />
<glyph unicode="&#xff;" horiz-adv-x="1002" d="M35 950h309q0 -35 91 -339t91 -372h14q0 59 82 343t83 368h263q0 -65 -153 -438t-191 -518q-65 -250 -173 -344t-320 -93l-20 193q124 0 204 70t80 190q0 118 -180 520t-180 420zM202 1236q0 56 40 98t106 43q66 0 98 -37t32 -92q0 -54 -40 -98t-104 -44t-98 38t-34 92z M596 1236q0 55 40 98t106 43t98 -37t33 -92q1 -54 -39 -98t-106 -44t-98 38q-34 38 -34 92z" />
<glyph unicode="&#x152;" horiz-adv-x="1863" d="M77 630q0 272 172.5 487t468.5 215q103 0 246 -30h774l-9 -219q-337 16 -556 16q10 -141 10 -328q178 0 459 8v-206q-247 10 -459 10q0 -193 10 -380q226 0 593 17l-9 -220h-834q-130 -35 -252 -35q-293 0 -453.5 196.5t-160.5 468.5zM357 656q0 -188 95 -329.5 t260 -141.5q131 0 210 31q8 194 8 445t-7 429q-98 25 -227 25q-163 0 -251 -135.5t-88 -323.5z" />
<glyph unicode="&#x153;" horiz-adv-x="1765" d="M69 464q0 244 153.5 387t377.5 143t337 -164h16q101 161 321 161t321 -114.5t101 -299.5q0 -51 -6 -133l-630 -11q14 -114 92.5 -188.5t220.5 -74.5t307 45l-20 -194q-134 -50 -338 -50q-257 0 -382 167h-15q-129 -177 -375 -177q-199 0 -340 129.5t-141 373.5zM330 484 q0 -142 66 -240.5t173 -98.5t174 91.5t67 233.5t-68 240.5t-176 98.5t-172 -91.5t-64 -233.5zM1058 578l404 8q0 230 -190 230t-214 -238z" />
<glyph unicode="&#x178;" horiz-adv-x="1130" d="M11 1302h314q-1 -36 125 -304t126 -345h16q0 72 122 328t123 321h282q-1 -40 -145 -268t-182 -295q-114 -203 -114 -301q0 -220 12 -438h-284q11 219 11 441q0 102 -105 309q-49 96 -175 308t-126 244zM243 1552q0 56 40 98q39 42 105 43q66 0 98 -37t33 -92 q1 -54 -39 -98t-105 -44t-99 38t-33 92zM637 1552q1 55 41 98t106 43t98 -37t32 -92q0 -54 -40 -98t-104 -44q-66 0 -100 38t-33 92z" />
<glyph unicode="&#x2c6;" horiz-adv-x="782" d="M69 1086q0 16 95 164.5t95 159.5h262q0 -11 95 -159.5t95 -164.5h-155q0 16 -166 194q-166 -178 -166 -194h-155z" />
<glyph unicode="&#x2dc;" horiz-adv-x="884" d="M62 1143q112 226 256 226q50 0 124 -23t113 -23q91 0 176 107l89 -75q-112 -226 -256 -226q-46 0 -121.5 23t-115.5 23q-91 0 -176 -107z" />
<glyph unicode="&#x2000;" horiz-adv-x="911" />
<glyph unicode="&#x2001;" horiz-adv-x="1822" />
<glyph unicode="&#x2002;" horiz-adv-x="911" />
<glyph unicode="&#x2003;" horiz-adv-x="1822" />
<glyph unicode="&#x2004;" horiz-adv-x="607" />
<glyph unicode="&#x2005;" horiz-adv-x="455" />
<glyph unicode="&#x2006;" horiz-adv-x="303" />
<glyph unicode="&#x2007;" horiz-adv-x="303" />
<glyph unicode="&#x2008;" horiz-adv-x="227" />
<glyph unicode="&#x2009;" horiz-adv-x="364" />
<glyph unicode="&#x200a;" horiz-adv-x="101" />
<glyph unicode="&#x2010;" d="M39 410l9 180l431 15l-12 -180z" />
<glyph unicode="&#x2011;" d="M39 410l9 180l431 15l-12 -180z" />
<glyph unicode="&#x2012;" d="M39 410l9 180l431 15l-12 -180z" />
<glyph unicode="&#x2013;" horiz-adv-x="1024" d="M57 410v180h909v-180h-909z" />
<glyph unicode="&#x2014;" horiz-adv-x="2048" d="M0 410v180h2048v-180h-2048z" />
<glyph unicode="&#x2018;" d="M55 885q0 262 319 555l89 -76q-136 -151 -136 -329q76 -46 76 -133t-50.5 -140.5t-132.5 -53.5t-123.5 54t-41.5 123z" />
<glyph unicode="&#x2019;" d="M55 774q136 151 136 329q-76 46 -76 133t50.5 140.5t132.5 53.5t123.5 -54t41.5 -123q0 -262 -319 -555z" />
<glyph unicode="&#x201a;" d="M19 -323q136 151 136 327q-76 46 -76 149q0 72 51 126t133 54q81 0 123 -54t42 -123q0 -261 -320 -555z" />
<glyph unicode="&#x201c;" horiz-adv-x="1033" d="M55 885q0 262 319 555l89 -76q-136 -151 -136 -329q76 -46 76 -133q-1 -86 -51 -140t-132 -54t-124 54t-41 123zM564 885q0 262 319 555l89 -76q-136 -151 -136 -329q76 -46 76 -133q0 -86 -50 -140t-133 -54q-81 0 -123 54t-42 123z" />
<glyph unicode="&#x201d;" horiz-adv-x="1033" d="M55 774q136 151 136 329q-76 46 -76 133q1 86 51 140t132 54t124 -54t41 -123q0 -262 -319 -555zM564 774q136 151 136 329q-76 46 -76 133q0 86 50 140t133 54q81 0 123 -54t42 -123q0 -262 -319 -555z" />
<glyph unicode="&#x201e;" horiz-adv-x="1033" d="M19 -323q136 151 136 327q-76 46 -76 149q0 72 51 126t133 54q81 0 123 -54t42 -123q0 -261 -320 -555zM551 -323q136 151 136 327q-76 46 -76 149q0 72 51 126t133 54q81 0 123 -54t42 -123q0 -261 -320 -555z" />
<glyph unicode="&#x2022;" horiz-adv-x="1351" d="M375 639q0 154 90.5 241t213.5 87t213 -86.5t90 -240.5t-89 -240t-213 -86t-214.5 85.5t-90.5 239.5z" />
<glyph unicode="&#x2026;" horiz-adv-x="2048" d="M81 156q1 70 51 124t133 53t124 -47t41 -116t-50 -124q-50 -56 -133 -56q-82 0 -124 48t-42 118zM699 156q1 70 51 124t133 53t124 -47t41 -116t-50 -124q-50 -56 -133 -56q-82 0 -124 48t-42 118zM1317 156q1 70 51 124t133 53t124 -47t41 -116t-50 -124 q-50 -56 -133 -56q-82 0 -124 48t-42 118z" />
<glyph unicode="&#x202f;" horiz-adv-x="364" />
<glyph unicode="&#x2039;" d="M70 387v201l294 259l82 -117l-201 -242l201 -244l-82 -118z" />
<glyph unicode="&#x203a;" d="M70 244l202 242l-202 244l83 117l293 -259v-201l-293 -261z" />
<glyph unicode="&#x205f;" horiz-adv-x="455" />
<glyph unicode="&#x20ac;" horiz-adv-x="909" d="M28 401l22 110h85q-2 40 2 77h-109l22 110h105q40 180 154.5 284t282.5 104q126 0 215 -20l-33 -185q-86 24 -191 24q-159 0 -196 -207q179 0 365 10l-19 -120h-356q-2 -32 1 -77h342l-21 -120q-143 10 -307 10q20 -118 80.5 -181t144.5 -63q123 0 210 31l-16 -175 q-107 -39 -266 -39t-270 114.5t-135 312.5h-112z" />
<glyph unicode="&#x2122;" horiz-adv-x="1407" d="M29 1286l4 108h513l-4 -107q-100 7 -188 7q-1 -94 -1 -242t5 -309h-140q7 159 7 307t-2 244q-71 0 -194 -8zM559 743q0 15 36 284t36 367h194q0 -56 61 -247t61 -244h8q0 53 69.5 244.5t69.5 246.5h192q0 -103 23.5 -369t23.5 -282h-146l-21 539h-8q-5 -30 -85.5 -269 t-80.5 -270h-111q0 32 -74 254t-85 285h-7l-24 -539h-132z" />
<glyph unicode="&#x25fc;" horiz-adv-x="950" d="M0 0v950h950v-950h-950z" />
</font>
</defs>
</svg>
