<?xml version="1.0" standalone="no"?>
<!DOCTYPE svg PUBLIC "-//W3C//DTD SVG 1.1//EN" "http://www.w3.org/Graphics/SVG/1.1/DTD/svg11.dtd" >
<svg xmlns="http://www.w3.org/2000/svg">
<metadata></metadata>
<defs>
<font id="candara-bolditalicbold_italic" horiz-adv-x="516" >
<font-face units-per-em="2048" ascent="1484" descent="-564" />
<missing-glyph horiz-adv-x="433" />
<glyph unicode="&#xfb01;" horiz-adv-x="1139" d="M-4 -316q78 60 115.5 179t65 377t48.5 508q-56 0 -166 -6l29 198q99 -7 157 -7q30 288 133.5 395.5t280.5 107.5q272 0 459 -98l-95 -198q-182 115 -362 115q-108 0 -141 -66t-53 -256q264 0 608 38q-3 -28 -41 -309t-59 -662l-255 -10q56 365 90 774q-45 -16 -362 -16 q-22 -320 -64.5 -733.5t-333.5 -471.5z" />
<glyph unicode="&#xfb02;" horiz-adv-x="1147" d="M-4 -316q78 60 115.5 179t65 377t48.5 508q-56 0 -166 -6l29 198q99 -7 157 -7q53 503 374 503q122 0 233 -30l271 16q0 -51 -59 -466.5t-86 -952.5l-259 -15q0 17 57 438t73 819q-113 20 -205 20t-124 -66q-33 -66 -53 -266q85 0 234 8l-28 -199q-145 6 -225 6 q-22 -320 -59 -733.5t-339 -471.5z" />
<glyph unicode="&#xfb03;" horiz-adv-x="1692" d="M-4 -316q78 60 115.5 179t65 377t48.5 508q-56 0 -166 -6l29 198q99 -7 157 -7q31 284 126.5 383.5t260.5 99.5t328 -59q85 79 252 79q272 0 459 -98l-95 -198q-182 115 -362 115q-108 0 -141 -66t-53 -256q264 0 608 38q-3 -28 -41 -309t-59 -662l-255 -10 q56 365 90 774q-45 -16 -362 -16q-22 -320 -64.5 -733.5t-333.5 -471.5l-54 141q78 60 115.5 179t65 377t48.5 508h-330q-22 -320 -64.5 -733.5t-333.5 -471.5zM467 933h331q17 159 60 268q-88 44 -217 44q-93 0 -126 -66t-48 -246z" />
<glyph unicode="&#xfb04;" horiz-adv-x="1700" d="M-4 -316q78 60 115.5 179t65 377t48.5 508q-56 0 -166 -6l29 198q99 -7 157 -7q31 284 126.5 383.5t260.5 99.5t328 -59q86 79 210 79t235 -30l271 16q0 -51 -59 -466.5t-86 -952.5l-259 -15q0 17 57 438t73 819q-112 20 -204 20t-125 -66t-53 -266q85 0 234 8l-28 -199 q-145 6 -225 6q-22 -320 -64.5 -733.5t-333.5 -471.5l-54 141q78 60 115.5 179t65 377t48.5 508h-330q-22 -320 -64.5 -733.5t-333.5 -471.5zM467 933h331q17 159 60 268q-88 44 -217 44q-93 0 -126 -66t-48 -246z" />
<glyph horiz-adv-x="433" />
<glyph horiz-adv-x="433" />
<glyph horiz-adv-x="682" />
<glyph unicode="&#x9;" horiz-adv-x="433" />
<glyph unicode=" "  horiz-adv-x="433" />
<glyph unicode="&#x09;" horiz-adv-x="433" />
<glyph unicode="&#xa0;" horiz-adv-x="433" />
<glyph unicode="&#xd;" horiz-adv-x="433" />
<glyph unicode="!" d="M28 144q0 72 57.5 130.5t143.5 58.5q134 0 134 -138q0 -85 -58 -145t-133 -60q-144 0 -144 154zM170 1034q0 304 174 304q122 0 122 -164t-179 -637h-97q-20 307 -20 497z" />
<glyph unicode="&#x22;" horiz-adv-x="927" d="M153 1066q0 168 16 226q33 129 157 129t124 -118q0 -113 -62 -289t-135 -312h-80q-20 196 -20 364zM540 1066q0 168 16 226q34 129 158 129t123 -118q-1 -113 -63 -289t-134 -312h-80q-20 196 -20 364z" />
<glyph unicode="#" horiz-adv-x="1033" d="M-7 0q17 37 171 362h-137l19 180h203q47 96 92 194h-275l19 180h339q144 317 159 392h141q-12 -41 -174 -392h189q145 319 159 392h141q-12 -39 -175 -392h137l-19 -180h-201q-15 -32 -39 -83t-51 -111h271l-19 -180h-335q-140 -305 -159 -362h-143q19 37 172 362h-185 q-139 -305 -159 -362h-141zM377 542h187q19 41 43 92l48 102h-189q-14 -32 -38 -84t-51 -110z" />
<glyph unicode="$" horiz-adv-x="909" d="M81 53l52 193q115 -43 233 -43q201 0 202 100q0 67 -130 127t-184 109q-82 73 -82 187t85.5 197t218.5 102q25 236 25 303h135q-8 -41 -38 -296q157 -2 235 -31l-53 -194q-103 45 -227 45q-149 0 -149 -97q0 -61 131 -117t187 -106q81 -74 81 -182q0 -273 -311 -320 q-20 -185 -24 -293h-135q8 53 35 283q-143 0 -287 33z" />
<glyph unicode="%" horiz-adv-x="1033" d="M16 10q11 97 424.5 643t424.5 649l140 -10q-10 -89 -423.5 -633t-425.5 -659zM97 1051q0 101 78.5 179t188.5 78t168 -62q56 -62 56 -162q0 -102 -78 -180t-188 -78t-168 62t-57 163zM240 1044q0 -112 92 -112q56 0 88 48t32 105q0 116 -92 116q-54 0 -87 -50t-33 -107z M421 214q0 101 78.5 179t188.5 78q110 1 168 -61q56 -62 56 -163t-78.5 -179t-188.5 -78t-167 62t-57 162zM564 208q0 -113 92 -113q54 -1 87 47t33 105q0 117 -92 117q-54 0 -87 -50t-33 -106z" />
<glyph unicode="&#x26;" horiz-adv-x="1361" d="M34 301q0 293 316 428l1 14q-141 123 -141 267t118.5 229t260.5 85t233 -68.5t91 -187.5q0 -190 -216 -293l-2 -15q81 -49 220 -211h15q43 63 59 213h240q-4 -41 -76 -155t-128 -167l-1 -14q50 -54 137 -212t87 -214h-282q0 34 -35 113.5t-61 111.5h-15 q-208 -254 -474 -254q-160 0 -253.5 93t-93.5 237zM282 360q0 -94 52.5 -149t147.5 -55q146 0 310 182l2 15q-168 233 -320 312q-88 -40 -140 -125.5t-52 -179.5zM432 1017q0 -110 146 -183q135 64 135 196t-124 132q-65 0 -111 -41t-46 -104z" />
<glyph unicode="'" horiz-adv-x="503" d="M153 1066q0 168 16 226q33 129 157 129t124 -118q0 -113 -62 -289t-135 -312h-80q-20 196 -20 364z" />
<glyph unicode="(" horiz-adv-x="723" d="M92 283q0 376 147 719q172 402 458 519l35 -136q-127 -100 -217 -242q-217 -341 -217 -832q0 -451 261 -660l-83 -137q-112 59 -192 157q-192 236 -192 612z" />
<glyph unicode=")" horiz-adv-x="723" d="M-36 -349q127 106 217 250q217 347 217 811t-261 673l84 136q112 -59 192 -157q192 -235 192 -611t-147 -719q-172 -403 -459 -520z" />
<glyph unicode="*" horiz-adv-x="1033" d="M125 1092q0 51 27.5 96t75.5 45t225 -156l24 16q-17 171 -17 243q0 98 120 98q87 0 87 -64t-97 -283l18 -20q204 125 261 125q34 0 54 -42t20 -96t-54.5 -70t-127.5 -16t-139 5l-12 -26q164 -166 164 -224q0 -41 -48 -82.5t-89 -41.5q-78 0 -113 292h-27 q-128 -263 -196 -263q-39 0 -77.5 34.5t-38.5 74.5q0 68 243 217l-4 29q-93 12 -246 46q-33 12 -33 63z" />
<glyph unicode="+" horiz-adv-x="1033" d="M119 409l18 180h304l35 340h171l-35 -340h302l-18 -180h-304l-35 -340h-171l35 340h-302z" />
<glyph unicode="," d="M-41 -323q146 151 164 327q-57 38 -57 124t57 145.5t133 59.5t109.5 -46t33.5 -109q0 -251 -359 -568z" />
<glyph unicode="-" d="M39 410l28 180l411 15l-31 -180z" />
<glyph unicode="&#xad;" d="M39 410l28 180l411 15l-31 -180z" />
<glyph unicode="." d="M54 144q0 72 57.5 130.5t142.5 58.5q134 0 134 -138q0 -85 -57 -145t-133 -60q-144 0 -144 154z" />
<glyph unicode="/" horiz-adv-x="547" d="M-113 -302q6 65 255 816.5t268 940.5h170q-7 -69 -256 -828.5t-266 -928.5h-171z" />
<glyph unicode="0" horiz-adv-x="1126" d="M120 395q0 285 128 483.5t348 198.5t315 -123.5t95 -365.5q0 -130 -34 -251t-133 -249t-343 -128q-187 0 -281.5 112t-94.5 323zM362 444q0 -162 42 -226.5t118 -64.5t160 71t84 366t-172 295q-116 0 -174 -140t-58 -301z" />
<glyph unicode="1" horiz-adv-x="744" d="M90 794l394 261h120q-84 -630 -109 -1055h-260q33 224 57 458t25 298l-188 -64z" />
<glyph unicode="2" horiz-adv-x="924" d="M40 0l40 201q189 107 315.5 238t126.5 262q0 169 -240 169q-57 0 -139 -14l38 186q83 22 245 22t254 -79t92 -223q0 -239 -156 -351.5t-213 -143.5t-91 -55l-1 -13q210 0 493 15l-41 -214h-723z" />
<glyph unicode="3" horiz-adv-x="956" d="M0 -233q215 19 396.5 115.5t181.5 256.5q0 208 -396 208l37 164q129 0 235 47q138 61 138 175q0 139 -217 139q-106 0 -188 -18l36 186q76 24 262 24t268.5 -70.5t82.5 -180.5t-74 -188t-184 -115l-2 -16q121 -21 190.5 -110.5t69.5 -211.5q0 -262 -249.5 -407 t-568.5 -164z" />
<glyph unicode="4" horiz-adv-x="1045" d="M40 320q1 18 281.5 363.5t285.5 371.5h264q-22 -152 -88 -717q85 0 172 10l-43 -220h-149q-20 -187 -37 -458h-255q17 119 57 458h-480zM236 328q119 0 320 5q23 136 70 502h-15q-2 -21 -186.5 -250.5t-186.5 -243.5z" />
<glyph unicode="5" horiz-adv-x="963" d="M40 -199q214 20 370 109.5t156 254.5q0 131 -109.5 183.5t-357.5 52.5q104 434 127 654h617l-31 -220q-178 20 -445 20q-17 -61 -49 -273q513 0 513 -366q0 -264 -231 -415.5t-539 -166.5z" />
<glyph unicode="6" horiz-adv-x="1079" d="M100 413q0 396 199 654t584 277l11 -165q-420 -47 -526 -464h14q89 100 249 100t244 -107t84 -256q0 -204 -136.5 -348t-343.5 -144q-159 0 -269 114.5t-110 338.5zM340 442q0 -302 166 -302q99 0 159.5 88.5t60.5 188.5t-52 166t-156 66t-171 -71q-7 -67 -7 -136z" />
<glyph unicode="7" horiz-adv-x="957" d="M50 -309q14 131 314 589t311 566q-196 0 -563 -19l30 228h785q-20 -191 -168.5 -464t-295 -532.5t-160.5 -388.5z" />
<glyph unicode="8" horiz-adv-x="1088" d="M80 318q0 145 82.5 249.5t218.5 159.5l1 16q-158 103 -158 274t123 260.5t281 89.5t249 -78.5t91 -190.5t-64 -197t-167 -127l-1 -16q223 -128 223 -357q0 -194 -142.5 -309.5t-330.5 -115.5t-297 98.5t-109 243.5zM310 368q0 -109 51 -161.5t141 -52.5t153.5 65 t63.5 160q0 178 -207 281q-76 -30 -139 -106.5t-63 -185.5zM436 1049q0 -137 172 -228q67 35 110.5 102t43.5 139t-42 111.5t-114 39.5t-121 -45t-49 -119z" />
<glyph unicode="9" horiz-adv-x="1073" d="M100 581q0 203 134.5 343t340.5 140q157 0 267.5 -125t110.5 -356q0 -405 -205.5 -688.5t-596.5 -300.5l-20 167q241 14 376 170t178 386h-10q-97 -105 -253 -105t-239 109t-83 260zM331 608q0 -100 49.5 -167t151.5 -67t175 81q7 67 7 122q0 155 -50 230.5t-136 75.5 t-141.5 -87.5t-55.5 -187.5z" />
<glyph unicode=":" d="M54 144q0 72 58 131q58 58 142 58q134 0 134 -138q0 -85 -57 -145t-133 -60q-144 0 -144 154zM117 768q-1 72 57 131q58 58 143 58q134 0 134 -138q0 -85 -57 -145q-56 -60 -132 -60q-144 0 -145 154z" />
<glyph unicode=";" d="M-41 -323q146 151 164 327q-57 38 -57 124t56 146t134 59q76 0 110 -46t33 -109q0 -251 -359 -568zM114 768q0 72 58 130t142 58q134 0 134 -138q0 -85 -57 -145t-133 -60q-144 1 -144 155z" />
<glyph unicode="&#x3c;" horiz-adv-x="1033" d="M108 433l15 139l742 418l59 -187l-585 -290l-3 -23l525 -287l-98 -188z" />
<glyph unicode="=" horiz-adv-x="1033" d="M96 200l20 180h777l-20 -180h-777zM141 619l19 180h777l-19 -180h-777z" />
<glyph unicode="&#x3e;" horiz-adv-x="1033" d="M108 203l585 288l2 23l-523 289l97 187l655 -418l-15 -139l-742 -418z" />
<glyph unicode="?" horiz-adv-x="723" d="M61 144q0 72 58 130.5t143 58.5q135 0 135 -138q0 -85 -57.5 -145t-133.5 -60q-146 0 -145 154zM101 1146l41 189q276 0 410 -62t134 -211q0 -125 -88 -223.5t-215 -150.5l-35 -151h-126l-16 213q229 74 229 225q0 160 -334 171z" />
<glyph unicode="@" horiz-adv-x="2014" d="M141 366q0 437 269 773t699 336q377 0 575.5 -222t198.5 -551q0 -288 -139 -509.5t-386 -221.5q-116 0 -176.5 52.5t-60.5 134.5l3 26h-13q-125 -213 -307 -213q-113 0 -171.5 94t-58.5 236q0 234 140.5 440t365.5 206q121 0 167 -74h13l20 46l189 21q-59 -223 -131 -575 q-4 -38 -4 -75q0 -142 111 -142q103 0 165 154.5t62 367.5q0 265 -143 440t-436 175q-331 0 -533 -288.5t-202 -632.5q0 -280 145 -468.5t424 -188.5q160 0 300 52l2 -195q-140 -39 -325 -39q-372 0 -567.5 243.5t-195.5 597.5zM784 334q0 -182 108 -182t200 167.5 t117 407.5q-47 50 -124 50q-136 0 -218.5 -147.5t-82.5 -295.5z" />
<glyph unicode="A" horiz-adv-x="1216" d="M-60 0q3 37 289 640.5t292 661.5h358q0 -113 133 -647t133 -655h-304q0 109 -48 374h-438q-125 -295 -129 -374h-286zM419 565h346q-104 513 -104 558h-15q-4 -35 -227 -558z" />
<glyph unicode="B" horiz-adv-x="1169" d="M84 0q20 137 83 681q38 364 43 621h164l319 6q180 0 286 -67.5t106 -189.5t-69.5 -210t-178.5 -115l-1 -15q100 -17 176.5 -90t76.5 -201q0 -426 -662 -426q-107 0 -343 6zM363 190q42 -8 106 -8q195 0 279 54t84 170q0 174 -313 174q-65 0 -123 -5q-22 -209 -33 -385z M415 758q45 -2 85 -2q321 0 321 212q0 152 -196 152q-98 0 -182 -15q0 -41 -28 -347z" />
<glyph unicode="C" horiz-adv-x="1049" d="M55 567q0 318 216 535.5t539 217.5q116 0 217 -28l-57 -231q-108 38 -211 38q-201 0 -315.5 -147.5t-114.5 -335.5t96.5 -305t280.5 -117q118 0 263 43l-41 -230q-159 -34 -270 -34q-302 0 -452.5 174.5t-150.5 419.5z" />
<glyph unicode="D" horiz-adv-x="1261" d="M85 0q20 137 83 681q38 364 43 621h176l246 6q286 0 429.5 -158.5t143.5 -399.5q0 -314 -205 -538t-522 -224q-150 0 -394 12zM366 207q61 -13 127 -13q211 0 330.5 156t119.5 348t-94.5 301t-286.5 109q-48 0 -117 -9q-6 -93 -34 -375t-45 -517z" />
<glyph unicode="E" horiz-adv-x="1031" d="M83 0q21 137 84 681q38 364 43 621h779l-31 -219q-281 16 -513 16q-7 -107 -26 -328q198 0 425 11l-23 -209q-219 10 -422 10q-21 -203 -34 -380q260 0 558 17l-32 -220h-808z" />
<glyph unicode="F" horiz-adv-x="981" d="M84 0q21 137 84 681q38 364 42 621h795l-30 -219q-292 16 -532 16q-6 -107 -30 -379q184 0 418 10l-22 -207q-235 9 -415 9q-30 -283 -43 -532h-267z" />
<glyph unicode="G" horiz-adv-x="1205" d="M55 562q0 324 222 541t550 217q153 0 267 -29l-56 -236q-144 41 -263 41q-208 0 -328.5 -147t-120.5 -341t95.5 -313.5t273.5 -119.5q54 0 128 12q-1 18 -1 68l15 393h268q-50 -326 -55 -614q-241 -61 -393 -61q-298 0 -450 171t-152 418z" />
<glyph unicode="H" horiz-adv-x="1299" d="M83 0q22 151 84 681q37 355 43 621h279q-20 -131 -67 -520h484q24 227 31 520h280q-19 -113 -79 -621q-40 -383 -49 -681h-278q21 156 70 574h-478q-23 -218 -41 -574h-279z" />
<glyph unicode="I" horiz-adv-x="574" d="M84 0q22 141 86 681q38 365 41 621h280q-18 -112 -78 -621q-37 -348 -49 -681h-280z" />
<glyph unicode="J" horiz-adv-x="817" d="M-30 -6l39 215q60 -30 124 -30q125 0 187 57q90 82 114 310q48 457 55 756h269q-20 -132 -90 -736q-35 -333 -179 -473q-123 -120 -355 -120q-84 0 -164 21z" />
<glyph unicode="K" horiz-adv-x="1180" d="M84 0q20 137 83 681q38 364 43 621h279q-19 -129 -65 -520h21q42 0 229 243.5t187 276.5h297q0 -32 -202.5 -252.5t-293.5 -283.5l-2 -15q86 -47 260.5 -367t174.5 -384h-301q0 59 -138.5 332.5t-208.5 273.5h-42q-24 -228 -44 -606h-277z" />
<glyph unicode="L" horiz-adv-x="961" d="M84 0q19 120 84 681q40 376 43 621h277q-18 -98 -64 -510t-72 -589q237 0 553 15l-32 -218h-789z" />
<glyph unicode="M" horiz-adv-x="1658" d="M25 0q0 27 129 619.5t141 682.5h364q0 -137 73.5 -495.5t73.5 -487.5h15q10 97 173.5 495t172.5 488h366q-33 -285 -33 -639t15 -663h-285q0 415 60 1082h-16q-45 -191 -226 -603.5t-188 -478.5h-217q0 79 -75.5 416t-91 437t-27.5 229h-15q-13 -115 -82 -574t-69 -508 h-258z" />
<glyph unicode="N" horiz-adv-x="1323" d="M84 0q21 141 84 681q38 365 42 621h292q0 -66 208 -464t230 -523h14q-12 57 -12 159t24 337t29 491h244q-18 -110 -78 -621q-40 -376 -59 -681h-234q0 48 -230 468t-254 561h-15q11 -76 11 -173t-22 -304t-41 -552h-233z" />
<glyph unicode="O" horiz-adv-x="1333" d="M55 555q0 312 200 544.5t499 232.5q228 0 376 -167.5t148 -423.5q0 -309 -198.5 -543t-499.5 -234q-228 0 -376.5 168t-148.5 423zM322 589q0 -190 87 -297.5t219 -107.5q173 0 279 170t106 358t-87.5 295.5t-219.5 107.5q-174 0 -279 -168t-105 -358z" />
<glyph unicode="P" horiz-adv-x="1133" d="M84 0q20 129 84 681q38 360 43 621h174l310 6q164 0 279.5 -87t115.5 -243q0 -239 -175 -361.5t-467 -122.5q-37 0 -56 2q-20 -188 -31 -496h-277zM411 677q23 -2 55 -2q372 0 372 260q0 185 -249 185q-67 0 -141 -15q-5 -85 -37 -428z" />
<glyph unicode="Q" horiz-adv-x="1333" d="M55 555q0 316 199.5 546.5t499.5 230.5q228 0 375.5 -167.5t147.5 -402.5t-101.5 -421t-284.5 -291l-1 -16q149 -19 216.5 -122t88.5 -344l-279 -12q-27 256 -83 332t-269 76t-361 168t-148 423zM321 588q0 -190 87.5 -297t219.5 -107q172 0 278 168.5t106 358.5t-87 297 t-219 107q-172 0 -278.5 -168.5t-106.5 -358.5z" />
<glyph unicode="R" horiz-adv-x="1194" d="M84 0q20 137 83 681q38 364 44 621h173l288 6q177 0 291 -75t114 -213t-80 -235t-207 -138l-1 -15q91 -27 157 -164t149 -468h-279q-71 344 -130.5 432t-189.5 88q-40 0 -103 -1q-29 -277 -36 -519h-273zM413 701q52 -2 88 -2q325 0 325 252q0 168 -223 168 q-89 0 -156 -14q-5 -88 -34 -404z" />
<glyph unicode="S" horiz-adv-x="1035" d="M27 10l71 223q146 -56 280 -56t196 20q110 35 110 136q0 65 -57 115t-201 118q-276 131 -276 364q0 208 143 300.5t348 92.5t328 -33l-59 -222q-122 49 -271 49q-241 0 -241 -146q0 -57 49 -97t182 -99q308 -137 308 -391q0 -420 -577 -420q-181 0 -333 46z" />
<glyph unicode="T" horiz-adv-x="1061" d="M86 1086l31 216h974l-29 -215q-189 15 -356 15q-12 -92 -50 -450t-48 -652h-276q21 145 84 681q24 227 40 421q-134 0 -370 -16z" />
<glyph unicode="U" horiz-adv-x="1300" d="M112 474q0 64 20 263t42 565h279q-23 -157 -81 -652q-9 -86 -9 -165q0 -178 57.5 -246t185.5 -68t206 97.5t110 404.5t43 629h266q-18 -139 -78 -672q-70 -664 -586 -664q-221 0 -338 108t-117 400z" />
<glyph unicode="V" horiz-adv-x="1173" d="M82 1302h295q0 -140 83.5 -523.5t83.5 -499.5h16q5 49 191 478t186 545h279q0 -91 -291.5 -659.5t-299.5 -642.5h-261q0 154 -141 645t-141 657z" />
<glyph unicode="W" horiz-adv-x="1862" d="M82 1302h298q0 -99 64 -495t64 -528h14q8 75 178.5 505.5t170.5 517.5h271q0 -106 67.5 -502.5t67.5 -520.5h15q6 62 169 481t163 542h281q0 -97 -265 -665.5t-272 -636.5h-252q0 112 -77.5 468.5t-83.5 493.5h-15q-28 -127 -182 -509t-161 -453h-257q0 146 -129 671.5 t-129 630.5z" />
<glyph unicode="X" horiz-adv-x="1186" d="M-51 0q0 29 221 336t279 362l1 15q-43 59 -171.5 307t-128.5 282h306q0 -36 74 -219t102 -225h15q42 49 148.5 230.5t106.5 213.5h280q0 -27 -190.5 -277.5t-240.5 -296.5l-1 -15q55 -67 198.5 -367t143.5 -346h-320q0 40 -88 260t-123 280h-16q-50 -63 -171 -282 t-121 -258h-304z" />
<glyph unicode="Y" horiz-adv-x="1065" d="M66 1302h298q0 -63 85 -312t85 -337h15q7 68 152.5 324t145.5 325h270q0 -42 -171.5 -284t-249.5 -362.5t-88 -217.5q-23 -220 -24 -438h-280q58 381 58 467q0 143 -148 474.5t-148 360.5z" />
<glyph unicode="Z" horiz-adv-x="1023" d="M22 0l35 205q122 147 368.5 493.5t249.5 391.5l1 16q-227 0 -524 -23l29 219h813l-35 -207q-122 -155 -356 -492.5t-236 -384.5l-1 -15q200 0 535 23l-30 -226h-849z" />
<glyph unicode="[" horiz-adv-x="723" d="M72 -475l112 946q21 204 97 1037l458 13l-32 -211q-172 6 -248 6l-96 -845q-15 -139 -73 -763q70 2 260 18l-32 -212z" />
<glyph unicode="\" horiz-adv-x="503" d="M90 1455h151q0 -189 78.5 -940t78.5 -817h-153q0 169 -77.5 928.5t-77.5 828.5z" />
<glyph unicode="]" horiz-adv-x="723" d="M-67 -486l32 212q173 -6 249 -6l96 844q15 139 72 765q-70 -2 -260 -19l32 211l446 -11l-112 -946q-21 -203 -97 -1037z" />
<glyph unicode="^" horiz-adv-x="1007" d="M24 682l475 735h132l319 -735l-179 -83l-220 593h-22l-343 -593z" />
<glyph unicode="_" horiz-adv-x="1007" d="M-65 -332h1033v-180h-1033v180z" />
<glyph unicode="`" horiz-adv-x="562" d="M96 1410h255q0 -11 69 -159.5t69 -164.5h-174q0 16 -108.5 164t-110.5 160z" />
<glyph unicode="a" horiz-adv-x="1031" d="M52 325q0 236 165 425.5t513 198.5l44 31l192 15q-80 -542 -80 -749q0 -105 17 -236l-246 -28q-6 83 -6 193h-15q-111 -203 -330 -203q-126 0 -190 94.5t-64 258.5zM305 354q0 -194 116 -194q90 0 165.5 131t95.5 250.5t28 249.5q-209 -2 -307 -122.5t-98 -314.5z" />
<glyph unicode="b" horiz-adv-x="1115" d="M69 -10q19 131 89 753q40 381 40 663l275 16q0 -42 -35.5 -299.5t-51.5 -349.5h12q112 209 340 209q148 0 227.5 -105.5t79.5 -281.5q0 -259 -138.5 -441.5t-366.5 -182.5q-144 0 -212 68h-13l-22 -39zM328 200q74 -45 162 -45q152 0 227 115t75 273q0 252 -162 252 q-97 0 -181.5 -129.5t-100.5 -279.5z" />
<glyph unicode="c" horiz-adv-x="866" d="M63 421q0 231 158 394.5t414 163.5q117 0 205 -19l-53 -203q-83 28 -203 28t-194 -101.5t-74 -234.5q0 -279 212 -279q121 0 266 88l-32 -198q-122 -89 -312 -89t-288.5 129.5t-98.5 320.5z" />
<glyph unicode="d" horiz-adv-x="1112" d="M71 361q0 259 138.5 441.5t366.5 182.5q135 0 209 -66h14q19 210 32 486l263 9q0 -26 -34 -216t-60 -449.5t-26 -441.5t8 -306l-231 -12q-12 83 -12 195l-13 -1q-120 -209 -348 -209q-148 0 -227.5 105.5t-79.5 281.5zM325 413q0 -251 162 -251q97 0 180 128.5t99 279.5 l20 187q-71 45 -159 45q-152 0 -227 -115.5t-75 -273.5z" />
<glyph unicode="e" horiz-adv-x="986" d="M63 418q0 261 163.5 418.5t387.5 157.5q155 0 245 -65t90 -186q0 -298 -641 -310q0 -132 49 -197.5t190 -65.5t324 103l-31 -198q-150 -104 -366 -104t-313.5 122.5t-97.5 324.5zM317 578q409 8 409 145q0 97 -149 97q-85 0 -161 -62.5t-99 -179.5z" />
<glyph unicode="f" horiz-adv-x="693" d="M-4 -316q78 60 115.5 179t65 377t48.5 508q-56 0 -166 -6l29 198q99 -7 157 -7q53 503 374 503q96 0 154 -14l-42 -172q-53 5 -115 5t-95.5 -66t-53.5 -256q85 0 234 8l-28 -199q-145 6 -225 6q-22 -320 -59 -733.5t-339 -471.5z" />
<glyph unicode="g" horiz-adv-x="1077" d="M-32 -263q0 174 192 272l1 15q-64 40 -64 142t129 204l1 14q-55 30 -95 94.5t-40 142.5q0 180 137 270.5t304 90.5t266 -68h12q49 197 194 197q61 0 105 -23l-40 -186q-148 0 -189 -45l-1 -13q45 -71 45 -150q0 -172 -128.5 -267.5t-312.5 -95.5q-97 0 -156 16 q-49 -41 -49 -91t43.5 -66t339.5 -16t296 -228q0 -210 -177 -336.5t-425 -126.5q-388 0 -388 254zM185 -204q0 -166 191 -166q147 0 244 58.5t97 178.5q0 58 -42.5 81.5t-168.5 23.5t-213 10q-108 -65 -108 -186zM335 638q0 -84 49.5 -124t120.5 -40t128 55t57 139 t-49.5 125t-120.5 41t-128 -56t-57 -140z" />
<glyph unicode="h" horiz-adv-x="1095" d="M69 -10q18 131 87 753q40 381 40 663l275 16q0 -44 -37.5 -305.5t-53.5 -343.5h14q117 209 346 209q259 0 259 -298q0 -88 -27 -330t-27 -354l-258 -10q0 48 33 285.5t33 338.5t-30.5 141t-108.5 40t-160 -119t-102 -312t-30 -364z" />
<glyph unicode="i" horiz-adv-x="488" d="M69 -10q83 540 83 840q0 67 -4 111l272 29q1 -27 -37 -308t-59 -662zM183 1224q0 68 54 122t133 54q127 0 127 -129q0 -78 -54 -133.5t-124 -55.5q-136 0 -136 142z" />
<glyph unicode="j" horiz-adv-x="488" d="M-61 -316q73 57 108.5 167t71.5 454.5t36 476.5t-3 161l272 28q0 -25 -33 -285t-50 -464t-22 -250q-39 -369 -327 -428zM182 1224q0 68 55 122t134 54q126 0 126 -129q0 -78 -54.5 -133.5t-124.5 -55.5q-136 0 -136 142z" />
<glyph unicode="k" horiz-adv-x="1017" d="M69 -10q20 131 91 753q39 371 39 663l272 16q0 -43 -29.5 -248.5t-92.5 -764.5l15 1q34 76 200 288t165 262l281 -11q0 -36 -120 -177.5t-204 -205.5l-1 -13q105 -121 183.5 -304.5t78.5 -248.5l-273 -10q0 46 -49.5 177t-115.5 220q-175 -188 -188 -387z" />
<glyph unicode="l" horiz-adv-x="519" d="M69 -12q0 17 66.5 509t66.5 909l271 16q0 -51 -59 -466.5t-86 -952.5z" />
<glyph unicode="m" horiz-adv-x="1669" d="M69 -10q70 518 70 662t-16 294l248 25q7 -78 7 -198h14q111 209 336 209q113 0 173 -58t63 -151h12q119 209 345 209q140 0 196 -75t56 -201t-27 -362t-27 -344l-255 -10q0 64 32.5 299t32.5 329t-25 135.5t-87 41.5q-95 0 -172 -114t-97 -317t-26 -364l-256 -10 q0 52 33 293.5t33 335.5t-25.5 135t-86.5 41q-94 0 -172 -116.5t-98 -316.5t-30 -362z" />
<glyph unicode="n" horiz-adv-x="1093" d="M69 -10q70 518 70 662t-16 294l248 25q7 -85 7 -198h14q117 209 346 209q259 0 259 -298q0 -88 -27 -330t-27 -354l-258 -10q0 48 33 285.5t33 338.5t-30.5 141t-108.5 40t-160 -119t-102 -312t-30 -364z" />
<glyph unicode="o" horiz-adv-x="1095" d="M63 415q0 243 156 411t401 168q171 0 291.5 -120.5t120.5 -325.5q0 -244 -155.5 -415.5t-399.5 -171.5q-170 0 -292 124.5t-122 329.5zM315 438q0 -134 54 -213.5t147 -79.5q121 0 192 117.5t71 252.5t-53.5 214.5t-145.5 79.5q-118 0 -191.5 -118.5t-73.5 -252.5z" />
<glyph unicode="p" horiz-adv-x="1107" d="M12 -457q126 922 126 1177q0 95 -16 223l246 28q9 -77 9 -198h12q118 209 346 209q148 0 227 -105.5t79 -281.5q0 -259 -138.5 -441.5t-366.5 -182.5q-144 0 -209 68h-12q-26 -245 -43 -491zM325 200q73 -45 161 -45q152 0 227.5 115.5t75.5 272.5q0 252 -163 252 q-97 0 -181 -129.5t-100 -279.5z" />
<glyph unicode="q" horiz-adv-x="1112" d="M71 361q0 259 138.5 441.5t366.5 182.5q144 0 218 -60h13l37 25l203 16q-18 -98 -86 -679q-26 -244 -64 -732l-249 -12q14 105 38 326t48 314h-11q-117 -209 -345 -209q-148 0 -227.5 105.5t-79.5 281.5zM324 413q0 -251 162 -251q97 0 181.5 129t100.5 279l20 187 q-74 45 -162 45q-149 0 -225.5 -114t-76.5 -275z" />
<glyph unicode="r" horiz-adv-x="757" d="M69 -10q70 518 70 662t-16 294l248 25q6 -66 6 -132h15q102 144 248 144q69 0 150 -22l-79 -235q-67 20 -140 20q-181 0 -202 -199q-32 -302 -49 -547z" />
<glyph unicode="s" horiz-adv-x="812" d="M5 3l53 197q114 -40 232 -40q213 0 213 98q0 70 -134 128q-133 58 -203 120t-70 165q0 159 115.5 237t284.5 78t263 -20l-54 -198q-105 33 -229 33q-156 0 -156 -95q0 -63 147 -122q260 -105 260 -286q0 -325 -457 -325q-154 0 -265 30z" />
<glyph unicode="t" horiz-adv-x="746" d="M71 742l28 197q76 -6 139 -6q10 70 43 279l222 29q-17 -95 -47 -308q80 0 234 8l-27 -199q-141 6 -231 6q-42 -272 -42 -388t22 -153t94 -37t172 62l-34 -182q-90 -71 -228 -71t-198 69.5t-60 213.5t50 486q-48 0 -137 -6z" />
<glyph unicode="u" horiz-adv-x="1086" d="M96 267q0 88 26.5 329.5t26.5 353.5l260 20q0 -48 -34 -287t-34 -341t28.5 -143.5t106.5 -41.5t160 118.5t99 289.5q28 278 28 385l253 20q-70 -554 -70 -698t16 -264l-246 -28q-6 81 -6 198h-14q-113 -209 -342 -209q-258 0 -258 298z" />
<glyph unicode="v" horiz-adv-x="981" d="M80 950l273 11q0 -98 56.5 -362t56.5 -352h12q4 38 126.5 322t122.5 381l256 11q0 -85 -217.5 -494t-223.5 -467h-259q0 145 -101.5 488.5t-101.5 461.5z" />
<glyph unicode="w" horiz-adv-x="1564" d="M89 948l271 13q0 -94 44 -365.5t44 -348.5h14q8 65 136.5 355t128.5 348h224q0 -68 55.5 -350.5t55.5 -352.5h13q5 48 120.5 332.5t115.5 368.5l248 13q0 -74 -204.5 -485.5t-211.5 -475.5h-222q0 61 -51.5 319.5t-67.5 366.5h-15q-38 -111 -154 -372.5t-121 -313.5h-222 q0 82 -100.5 475t-100.5 473z" />
<glyph unicode="x" horiz-adv-x="1025" d="M-5 -10q0 34 156.5 240.5t224.5 271.5l1 15q-43 54 -145.5 231t-102.5 202l291 11q0 -26 50.5 -158.5t78.5 -179.5h13q33 39 99 169.5t66 157.5l268 11q0 -31 -146.5 -206.5t-200.5 -224.5l-1 -15q50 -65 168.5 -274.5t118.5 -240.5l-293 -10q0 32 -64.5 180t-101.5 213 h-12q-35 -43 -112.5 -199t-77.5 -184z" />
<glyph unicode="y" horiz-adv-x="965" d="M6 -250q126 0 217.5 80t91.5 210t-121.5 468t-121.5 442l288 11q0 -137 56.5 -384.5t56.5 -337.5h15q4 35 109 299.5t105 408.5l255 14q0 -141 -198.5 -512.5t-227.5 -454.5q-88 -248 -205 -342.5t-320 -94.5v193z" />
<glyph unicode="z" horiz-adv-x="859" d="M30 0l34 186q54 46 261.5 292t207.5 282v15q-226 0 -415 -16l26 191h690l-36 -186q-58 -55 -254.5 -295.5t-196.5 -277.5v-15q215 0 427 19l-26 -195h-718z" />
<glyph unicode="{" horiz-adv-x="723" d="M47 438l15 149q247 33 247 177q0 45 -23.5 182.5t-23.5 199.5q0 170 150 273q127 89 310 102l27 -156q-310 -55 -310 -296q0 -49 27.5 -161t27.5 -148q0 -91 -75 -164t-167 -73l-1 -15q60 0 118 -40q79 -54 79 -152q0 -68 -65.5 -203.5t-65.5 -204.5q0 -171 264 -238 l-82 -160q-379 83 -379 296q0 88 66.5 256t66.5 236t-66 102t-140 38z" />
<glyph unicode="|" d="M156 1550h201q-10 -775 -10 -983t11 -1084h-201q10 775 10 983t-11 1084z" />
<glyph unicode="}" horiz-adv-x="723" d="M-51 -331q301 71 301 284q0 46 -20 162t-20 155q0 93 73 164t167 71l2 14q-58 0 -126 50t-69 149q0 64 57.5 199t57.5 204q0 194 -240 243l65 157q112 -16 193 -52q192 -85 192 -250q0 -82 -69 -256.5t-69 -234.5t78 -100q59 -31 135 -38l-16 -149q-240 -25 -240 -178 q0 -45 20 -182.5t20 -201.5q0 -160 -150 -261q-120 -82 -301 -108z" />
<glyph unicode="~" horiz-adv-x="1007" d="M7 376q169 276 348 276q65 0 163 -32t159 -32q113 0 219 112l107 -89q-169 -264 -348 -264q-65 0 -157 33.5t-153 33.5q-113 0 -231 -128z" />
<glyph unicode="&#xa1;" d="M31 -206q0 164 179 637h97q20 -307 20 -497q0 -304 -174 -304q-122 0 -122 164zM134 773q0 85 58 145t133 60q144 0 144 -154q0 -72 -57.5 -130.5t-143.5 -58.5q-134 0 -134 138z" />
<glyph unicode="&#xa2;" horiz-adv-x="1033" d="M127 465q0 204 127 362.5t329 194.5q16 162 23 305h134q-12 -68 -40 -295q108 -1 199 -29l-54 -200q-84 35 -177 35q-129 0 -208 -105t-79 -231t67.5 -206.5t198.5 -80.5q79 0 205 35l-38 -191q-114 -42 -222 -42q-15 -144 -20 -281h-132q8 55 35 288q-170 25 -259 151 t-89 290z" />
<glyph unicode="&#xa3;" horiz-adv-x="909" d="M46 0l16 159q150 47 150 254q0 37 -3 80q-67 0 -136 -5l21 147q47 -4 112 -4q0 302 109.5 424.5t273.5 122.5q107 0 179 -13l-42 -170q-54 13 -102 13q-88 0 -137.5 -64.5t-51.5 -312.5q71 0 205 5l-22 -147q-100 4 -176 4q2 -33 2 -64q0 -197 -139 -259l-1 -10 q195 0 516 19l-37 -179h-737z" />
<glyph unicode="&#xa4;" horiz-adv-x="1000" d="M111 198l92 87q-40 69 -40 181t61 199l-97 92l102 102l97 -104q82 49 180 49t172 -44l110 115l101 -101l-111 -106q47 -72 47 -180t-46 -185l94 -88l-102 -102l-86 91q-91 -64 -199 -64t-187 49l-87 -92zM283 476q0 -94 57 -171t155 -77t153.5 73t55.5 167t-56.5 171 t-154.5 77t-154 -73t-56 -167z" />
<glyph unicode="&#xa5;" horiz-adv-x="909" d="M48 351l13 122h227q-10 42 -20 72h-199l12 122q109 -5 139 -5q-161 372 -165 406h296q2 -27 66 -237t58 -267h13q5 55 110 263.5t108 240.5h259q-3 -27 -90 -153.5t-174 -252.5q52 2 151 5l-12 -122q-160 -1 -217 0q-27 -44 -40 -72h249l-13 -122q-161 7 -273 7 q-15 -157 -19 -358h-271q13 99 44 358q-87 0 -252 -7z" />
<glyph unicode="&#xa6;" horiz-adv-x="500" d="M152 382h205q-13 -339 -13 -428t13 -462h-205q13 339 13 428t-13 462zM152 635q13 339 13 428t-13 462h205q-13 -339 -13 -428t13 -462h-205z" />
<glyph unicode="&#xa7;" horiz-adv-x="859" d="M4 -399l52 197q115 -45 233 -45q213 0 213 117q0 61 -100 165l-185 195q-100 124 -100 231t59.5 185.5t157.5 111.5q-154 158 -154 312t113 248.5t281 94.5t270 -30l-54 -199q-113 44 -237 44q-151 0 -151 -116q0 -61 101 -159l186 -186q101 -115 101 -244 q0 -223 -206 -295q144 -151 144 -299q0 -189 -130 -276t-307 -87t-287 35zM326 515q0 -61 132 -175q53 0 89 35.5t36 95.5t-129 179q-54 0 -91 -37t-37 -98z" />
<glyph unicode="&#xa8;" horiz-adv-x="836" d="M125 1227q0 66 45.5 112t111.5 46q105 0 105 -108q0 -66 -45.5 -112.5t-111.5 -46.5q-105 0 -105 109zM493 1228q0 66 46 111.5t112 45.5q105 0 105 -108q0 -66 -45 -112.5t-111 -46.5q-107 0 -107 110z" />
<glyph unicode="&#xa9;" horiz-adv-x="1277" d="M40 608q0 252 179.5 432t432.5 180t431.5 -179.5t178.5 -432.5t-178.5 -430.5t-431.5 -177.5t-432.5 178t-179.5 430zM134 610q0 -215 152 -366.5t366 -151.5t365 151.5t151 366.5t-151 367t-365 152t-366 -152t-152 -367zM365 580q0 159 108 267.5t269 108.5 q58 0 109 -14l-29 -115q-54 19 -105 19q-101 0 -158 -74t-57 -168t48 -152.5t124 -58.5t148 22l-21 -115q-79 -17 -135 -17q-149 0 -225 86.5t-76 210.5z" />
<glyph unicode="&#xaa;" horiz-adv-x="590" d="M32 948q0 163 110 262q110 100 268 100l21 13l118 13q-52 -285 -52 -377t11 -175l-159 -25q-6 60 -6 89h-10q-69 -88 -165 -88q-54 0 -95 49t-41 139zM194 970q0 -46 16 -71t34 -25q90 0 116 209q10 84 14 119q-98 -14 -139 -73t-41 -159z" />
<glyph unicode="&#xab;" horiz-adv-x="929" d="M67 387l22 201l306 259l66 -117l-216 -242l165 -244l-91 -118zM464 387l22 201l306 259l66 -117l-216 -242l165 -244l-91 -118z" />
<glyph unicode="&#xac;" horiz-adv-x="1033" d="M117 617l21 192h777l-69 -649h-151l48 457h-626z" />
<glyph unicode="&#xae;" horiz-adv-x="1277" d="M40 772q0 252 179.5 431.5t432.5 179.5t431.5 -179.5t178.5 -432.5t-178.5 -430.5t-431.5 -177.5t-432.5 178.5t-179.5 430.5zM134 773q0 -215 152 -367t366 -152t365 152t151 367t-151 366.5t-365 151.5t-366 -151.5t-152 -366.5zM396 466q58 395 64 651h86l144 3 q203 0 203 -149q0 -138 -144 -182v-7q45 -14 78 -82.5t75 -233.5h-140q-35 172 -65 216t-95 44q-20 0 -51 -1q-15 -138 -18 -259h-137zM561 816q26 -1 44 -1q162 0 162 126q0 84 -111 84q-45 0 -78 -7q-3 -44 -17 -202z" />
<glyph unicode="&#xaf;" horiz-adv-x="500" d="M63 1161l30 174h461l-31 -174h-460z" />
<glyph unicode="&#xb0;" horiz-adv-x="547" d="M-7 1254q0 115 81.5 194t198.5 79t185 -68.5t68 -182.5t-82 -194.5t-198 -80.5t-184.5 69t-68.5 184zM111 1260q0 -64 39.5 -104t104.5 -40t109 42t44 106t-40 103.5t-106 39.5t-108.5 -41.5t-42.5 -105.5z" />
<glyph unicode="&#xb1;" horiz-adv-x="1033" d="M89 45l19 180h779l-19 -180h-779zM149 619l19 180h304l30 290h172l-30 -290h303l-19 -180h-303l-30 -290h-172l30 290h-304z" />
<glyph unicode="&#xb2;" horiz-adv-x="547" d="M26 607l24 110q68 35 169 146.5t101 225.5q0 100 -110 100q-51 0 -120 -18l28 125q64 20 142 20q221 0 221 -220q0 -107 -96.5 -212.5t-143.5 -137.5l-3 -16q132 0 233 8l-28 -131h-417z" />
<glyph unicode="&#xb3;" horiz-adv-x="547" d="M8 645q228 28 273 88t45 96q0 97 -222 97l29 110q118 0 162 22.5t44 63.5q0 67 -98 67q-66 0 -143 -22l21 128q80 21 157 21q121 0 170.5 -39t49.5 -111q0 -94 -116 -149l-2 -10q115 -44 115 -148q0 -129 -123 -217t-349 -104z" />
<glyph unicode="&#xb4;" horiz-adv-x="562" d="M72 1086q0 16 102 164.5t102 159.5h265q0 -12 -147.5 -160t-147.5 -164h-174z" />
<glyph unicode="&#xb5;" horiz-adv-x="1128" d="M86 938l290 11q-9 -208 -9 -408t44.5 -281t151.5 -81t181 67q0 507 -12 694l268 10q-11 -232 -11 -450t31 -501l-235 -8q-19 68 -19 103h-16q-85 -94 -218 -94t-205 94h-16q0 -269 57 -549l-262 -20q13 400 13 771t-33 642z" />
<glyph unicode="&#xb6;" horiz-adv-x="1371" d="M162 932q0 206 130 342.5t339 136.5l342 -6h256q-19 -121 -87 -711q-67 -637 -104 -1107h-257q25 207 90 807t79 814q-36 2 -126 6q-102 -791 -178 -1710h-176q18 113 64 531t58 530q-430 11 -430 367z" />
<glyph unicode="&#xb7;" d="M93 584q0 72 57.5 130t142.5 58q134 0 134 -138q0 -85 -56.5 -145t-132.5 -60q-144 1 -145 155z" />
<glyph unicode="&#xb8;" horiz-adv-x="470" d="M97 -165l61 217l81 -14l-26 -108q158 -55 158 -192q0 -232 -257 -232l-11 112q41 0 72 29t31 69q0 97 -109 119z" />
<glyph unicode="&#xb9;" horiz-adv-x="547" d="M73 1112l295 192h105q-51 -319 -72 -697h-167q21 133 56 505q-47 -23 -189 -98z" />
<glyph unicode="&#xba;" horiz-adv-x="590" d="M22 1015q0 124 87 218t224 94q161 1 217 -145q18 -46 18 -99q0 -134 -78 -232q-89 -104 -236 -104q-94 0 -161 67q-71 77 -71 201zM181 1010q0 -156 92 -156q59 0 99 64t39 149q0 151 -99 151q-59 0 -95 -54t-36 -154z" />
<glyph unicode="&#xbb;" horiz-adv-x="929" d="M33 244l216 242l-166 244l91 117l252 -259l-22 -201l-305 -261zM442 244l216 242l-166 244l91 117l252 -259l-22 -201l-305 -261z" />
<glyph unicode="&#xbc;" horiz-adv-x="1550" d="M123 1112l295 192h105q-51 -319 -72 -697h-167q21 133 56 505q-47 -23 -189 -98zM155 -22q7 72 541 666t543 691l156 -20q-7 -66 -541 -666t-545 -691zM909 304q1 18 111 150t181 242h182q-29 -172 -49 -366q31 0 96 8l-30 -133h-79q-5 -50 -17 -236h-163q21 151 30 236 h-258zM1039 325h82q44 0 63 1q19 120 27 228h-5q-30 -58 -84 -126t-80 -92z" />
<glyph unicode="&#xbd;" horiz-adv-x="1550" d="M122 1112l295 192h105q-51 -319 -72 -697h-167q21 133 56 505q-47 -23 -189 -98zM155 -22q7 72 541 666t543 691l156 -20q-7 -66 -541 -666t-545 -691zM965 1l24 110q68 35 169 147t101 225q0 100 -110 100q-51 0 -120 -18l28 125q64 20 142 20q221 0 221 -220 q0 -106 -96 -212t-144 -138l-3 -16q132 0 233 8l-28 -131h-417z" />
<glyph unicode="&#xbe;" horiz-adv-x="1550" d="M88 645q228 28 296 118q22 30 22 66q0 97 -222 97l29 110q118 0 162 22t44 64q0 67 -98 67q-66 0 -143 -22l21 128q80 21 157 21q121 0 171 -39q49 -39 49 -111q0 -94 -116 -149l-2 -10q115 -44 115 -148q0 -129 -123 -217t-349 -104zM155 -22q7 72 541 666t543 691 l156 -20q-7 -66 -541 -666t-545 -691zM908 304q2 18 112 150t180 242h182q-29 -172 -49 -366q31 0 96 8l-30 -133h-79q-5 -50 -17 -236h-163q21 151 30 236h-258zM1038 325h82q44 0 63 1q19 120 27 228h-5q-31 -58 -85 -126t-79 -92z" />
<glyph unicode="&#xbf;" horiz-adv-x="723" d="M-29 -88q0 125 88 223.5t215 150.5l35 151h126l16 -213q-229 -74 -229 -225q0 -160 334 -171l-41 -189q-275 0 -409 62t-135 211zM260 779q0 85 57.5 145t133.5 60q145 0 145 -154q0 -72 -58 -130.5t-143 -58.5q-135 0 -135 138z" />
<glyph unicode="&#xc0;" horiz-adv-x="1216" d="M-60 0q3 36 289 640t292 662h358q0 -113 133 -647t133 -655h-304q0 109 -48 374h-438q-125 -295 -129 -374h-286zM419 565h346q-104 513 -104 558h-15q-4 -35 -227 -558zM467 1690h265q0 -10 64 -134t64 -140h-174q0 16 -108 139t-111 135z" />
<glyph unicode="&#xc1;" horiz-adv-x="1216" d="M-60 0q3 36 289 640t292 662h358q0 -113 133 -647t133 -655h-304q0 109 -48 374h-438q-125 -295 -129 -374h-286zM419 565h346q-104 513 -104 558h-15q-4 -35 -227 -558zM573 1416q0 16 97 140t97 134h275q0 -12 -148 -135t-147 -139h-174z" />
<glyph unicode="&#xc2;" horiz-adv-x="1216" d="M-60 0q3 36 289 640t292 662h358q0 -113 133 -647t133 -655h-304q0 109 -48 374h-438q-125 -295 -129 -374h-286zM410 1416q1 14 106 136t111 138h241q4 -16 77 -138t73 -136h-146q0 13 -140 128q-175 -115 -176 -128h-146zM419 565h346q-104 513 -104 558h-15 q-4 -35 -227 -558z" />
<glyph unicode="&#xc3;" horiz-adv-x="1216" d="M-60 0q3 36 289 640t292 662h358q0 -113 133 -647t133 -655h-304q0 109 -48 374h-438q-125 -295 -129 -374h-286zM360 1483q130 186 267 186q49 0 113 -22t111 -22q86 0 178 62l76 -75q-130 -185 -267 -185q-50 0 -114 24t-110 24q-86 0 -177 -67zM419 565h346 q-104 513 -104 558h-15q-4 -35 -227 -558z" />
<glyph unicode="&#xc4;" horiz-adv-x="1216" d="M-60 0q3 36 289 640t292 662h358q0 -113 133 -647t133 -655h-304q0 109 -48 374h-438q-125 -295 -129 -374h-286zM412 1533q0 66 46 112t111 46q105 0 105 -108q0 -67 -46 -113t-111 -46q-105 0 -105 109zM419 565h346q-104 513 -104 558h-15q-4 -35 -227 -558zM780 1534 q0 66 46 112t112 45q105 0 105 -108q0 -67 -45 -113t-111 -46q-107 0 -107 110z" />
<glyph unicode="&#xc5;" horiz-adv-x="1216" d="M-60 0q3 36 289 640t292 662h358q0 -113 133 -647t133 -655h-304q0 109 -48 374h-438q-125 -295 -129 -374h-286zM419 565h346q-104 513 -104 558h-15q-4 -35 -227 -558zM483 1578q-1 110 77 176t173 66t160 -56t65 -166t-78 -178t-172 -67q-95 -1 -160 57t-65 168z M597 1582q-1 -62 33 -94t84 -33t90 37t40 100t-34 94t-83 32q-50 0 -90 -37t-40 -99z" />
<glyph unicode="&#xc6;" horiz-adv-x="1598" d="M-60 0q4 38 289 638t292 664h1035l-30 -219q-294 16 -525 16q-7 -105 -26 -328q184 0 437 8l-22 -206q-234 10 -436 10q-21 -203 -32 -380q263 0 567 17l-31 -220h-816q15 92 50 374h-353q-116 -290 -125 -374h-274zM405 565h308q31 293 48 534h-125q-4 -39 -231 -534z " />
<glyph unicode="&#xc7;" horiz-adv-x="1049" d="M55 567q0 318 216 535.5t539 217.5q116 0 217 -28l-57 -231q-108 38 -211 38q-201 0 -315.5 -147.5t-114.5 -335.5t96.5 -305t280.5 -117q118 0 263 43l-41 -230q-158 -34 -232 -34t-107 3l-11 -46q158 -55 158 -192q0 -232 -257 -232l-11 112q41 0 72 29t31 69 q0 97 -109 119l42 152q-190 36 -319.5 184.5t-129.5 395.5z" />
<glyph unicode="&#xc8;" horiz-adv-x="1031" d="M83 0q21 137 84 681q38 364 43 621h779l-31 -219q-281 16 -513 16q-7 -107 -26 -328q198 0 425 11l-23 -209q-219 10 -422 10q-21 -203 -34 -380q260 0 558 17l-32 -220h-808zM370 1690h265q0 -10 64 -134t64 -140h-174q-1 16 -109 139t-110 135z" />
<glyph unicode="&#xc9;" horiz-adv-x="1031" d="M83 0q21 137 84 681q38 364 43 621h779l-31 -219q-281 16 -513 16q-7 -107 -26 -328q198 0 425 11l-23 -209q-219 10 -422 10q-21 -203 -34 -380q260 0 558 17l-32 -220h-808zM491 1416q0 16 97 140t97 134h275q0 -12 -148 -135t-147 -139h-174z" />
<glyph unicode="&#xca;" horiz-adv-x="1031" d="M83 0q21 137 84 681q38 364 43 621h779l-31 -219q-281 16 -513 16q-7 -107 -26 -328q198 0 425 11l-23 -209q-219 10 -422 10q-21 -203 -34 -380q260 0 558 17l-32 -220h-808zM302 1416q1 14 106 136t111 138h241q4 -16 77 -138t73 -136h-146q0 13 -140 128 q-175 -115 -176 -128h-146z" />
<glyph unicode="&#xcb;" horiz-adv-x="1031" d="M83 0q21 137 84 681q38 364 43 621h779l-31 -219q-281 16 -513 16q-7 -107 -26 -328q198 0 425 11l-23 -209q-219 10 -422 10q-21 -203 -34 -380q260 0 558 17l-32 -220h-808zM314 1533q0 66 46 112t111 46q105 0 105 -108q0 -67 -46 -113t-111 -46q-105 0 -105 109z M682 1534q0 66 46 112t112 45q105 0 105 -108q0 -67 -45 -113t-111 -46q-107 0 -107 110z" />
<glyph unicode="&#xcc;" horiz-adv-x="574" d="M84 0q22 141 86 681q38 365 41 621h280q-18 -112 -78 -621q-37 -348 -49 -681h-280zM100 1690h265q0 -10 64 -134t64 -140h-174q-1 16 -109 139t-110 135z" />
<glyph unicode="&#xcd;" horiz-adv-x="574" d="M84 0q22 141 86 681q38 365 41 621h280q-18 -112 -78 -621q-37 -348 -49 -681h-280zM239 1416q0 16 97 140t97 134h275q0 -12 -148 -135t-147 -139h-174z" />
<glyph unicode="&#xce;" horiz-adv-x="574" d="M58 1416q1 14 106 136t111 138h241q4 -16 77 -138t73 -136h-146q0 13 -140 128q-175 -115 -176 -128h-146zM84 0q22 141 86 681q38 365 41 621h280q-18 -112 -78 -621q-37 -348 -49 -681h-280z" />
<glyph unicode="&#xcf;" horiz-adv-x="574" d="M71 1533q-1 66 45 112t112 46q105 0 105 -108q1 -67 -45 -113t-112 -46q-105 0 -105 109zM84 0q22 141 86 681q38 365 41 621h280q-18 -112 -78 -621q-37 -348 -49 -681h-280zM439 1534q0 66 46 112t112 45q105 0 105 -108q0 -67 -45 -113t-111 -46q-107 0 -107 110z" />
<glyph unicode="&#xd0;" horiz-adv-x="1279" d="M36 568l26 179q77 -1 131 -1q25 249 46 556h165l247 6q285 0 429 -154t144 -395q0 -319 -209 -545t-519 -226q-150 0 -394 12q21 149 74 582q-54 -4 -140 -14zM385 207q60 -13 126 -13q205 0 327 153t122 349t-98 304t-289 108q-48 0 -110 -8q-4 -74 -29 -347 q94 5 315 26l-27 -176q-149 0 -304 -7q-20 -202 -33 -389z" />
<glyph unicode="&#xd1;" horiz-adv-x="1323" d="M84 0q21 141 84 681q38 365 42 621h292q0 -66 208 -464t230 -523h14q-12 57 -12 159t24 337t29 491h244q-18 -110 -78 -621q-40 -376 -59 -681h-234q0 48 -230 468t-254 561h-15q11 -76 11 -173t-22 -304t-41 -552h-233zM384 1483q130 186 267 186q49 0 113 -22t111 -22 q86 0 178 62l76 -75q-130 -185 -267 -185q-50 0 -114 24t-110 24q-86 0 -177 -67z" />
<glyph unicode="&#xd2;" horiz-adv-x="1333" d="M55 555q0 313 200 545t499 232q228 0 376 -168t148 -423q0 -309 -198 -543t-500 -234q-228 0 -376 168t-149 423zM322 589q0 -189 87 -297t219 -108q173 0 279 170t106 358q1 188 -87 296q-88 107 -220 107q-174 0 -279 -168t-105 -358zM460 1690h265q0 -10 64 -134 t64 -140h-174q-1 16 -109 139t-110 135z" />
<glyph unicode="&#xd3;" horiz-adv-x="1333" d="M55 555q0 313 200 545t499 232q228 0 376 -168t148 -423q0 -309 -198 -543t-500 -234q-228 0 -376 168t-149 423zM322 589q0 -189 87 -297t219 -108q173 0 279 170t106 358q1 188 -87 296q-88 107 -220 107q-174 0 -279 -168t-105 -358zM651 1416q0 16 97 140t97 134h275 q0 -12 -148 -135t-147 -139h-174z" />
<glyph unicode="&#xd4;" horiz-adv-x="1333" d="M55 555q0 313 200 545t499 232q228 0 376 -168t148 -423q0 -309 -198 -543t-500 -234q-228 0 -376 168t-149 423zM322 589q0 -189 87 -297t219 -108q173 0 279 170t106 358q1 188 -87 296q-88 107 -220 107q-174 0 -279 -168t-105 -358zM459 1416q1 14 106 136t111 138 h241q4 -16 77 -138t73 -136h-146q0 13 -140 128q-175 -115 -176 -128h-146z" />
<glyph unicode="&#xd5;" horiz-adv-x="1333" d="M55 555q0 313 200 545t499 232q228 0 376 -168t148 -423q0 -309 -198 -543t-500 -234q-228 0 -376 168t-149 423zM322 589q0 -189 87 -297t219 -108q173 0 279 170t106 358q1 188 -87 296q-88 107 -220 107q-174 0 -279 -168t-105 -358zM413 1483q130 186 267 186 q50 0 114 -22t110 -22q86 0 178 62l76 -75q-130 -185 -267 -185q-49 0 -113 24t-111 24q-86 0 -177 -67z" />
<glyph unicode="&#xd6;" horiz-adv-x="1333" d="M55 555q0 313 200 545t499 232q228 0 376 -168t148 -423q0 -309 -198 -543t-500 -234q-228 0 -376 168t-149 423zM322 589q0 -189 87 -297t219 -108q173 0 279 170t106 358q1 188 -87 296q-88 107 -220 107q-174 0 -279 -168t-105 -358zM455 1533q-1 66 45 112t112 46 q105 0 105 -108q1 -67 -45 -113t-112 -46q-105 0 -105 109zM823 1534q0 66 46 112t112 45q105 0 105 -108q0 -67 -45 -113t-111 -46q-107 0 -107 110z" />
<glyph unicode="&#xd7;" horiz-adv-x="1033" d="M136 259l255 240l-192 226l135 128l191 -227l253 241l109 -128l-254 -240l190 -226l-133 -127l-192 226l-253 -241z" />
<glyph unicode="&#xd8;" horiz-adv-x="1333" d="M-15 -77q4 39 188 249q-109 150 -109 387q0 308 195.5 540.5t499.5 232.5q207 0 348 -131q107 128 110 158l138 -37q-4 -42 -160 -225q91 -144 91 -361q0 -305 -196 -538.5t-499 -233.5q-190 0 -327 113q-138 -159 -142 -196zM329 580q0 -107 35 -194q203 216 573 617 q-87 112 -226 112q-177 0 -279.5 -172.5t-102.5 -362.5zM436 270q83 -86 203 -86q177 0 279 172.5t102 362.5q0 87 -21 154q-197 -209 -563 -603z" />
<glyph unicode="&#xd9;" horiz-adv-x="1300" d="M112 474q0 64 20 263t42 565h279q-23 -157 -81 -652q-9 -86 -9 -165q-1 -178 57 -246t186 -68q128 -1 206 97t110 405t43 629h266q-18 -139 -78 -672q-70 -664 -586 -664q-221 0 -338 108t-117 400zM441 1690h265q0 -10 64 -134t64 -140h-174q0 16 -108 139t-111 135z " />
<glyph unicode="&#xda;" horiz-adv-x="1300" d="M112 474q0 64 20 263t42 565h279q-23 -157 -81 -652q-9 -86 -9 -165q-1 -178 57 -246t186 -68q128 -1 206 97t110 405t43 629h266q-18 -139 -78 -672q-70 -664 -586 -664q-221 0 -338 108t-117 400zM625 1416q0 16 97 140t97 134h275q0 -12 -148 -135t-147 -139h-174z " />
<glyph unicode="&#xdb;" horiz-adv-x="1300" d="M112 474q0 64 20 263t42 565h279q-23 -157 -81 -652q-9 -86 -9 -165q-1 -178 57 -246t186 -68q128 -1 206 97t110 405t43 629h266q-18 -139 -78 -672q-70 -664 -586 -664q-221 0 -338 108t-117 400zM402 1416q1 14 106 136t111 138h241q4 -16 77 -138t73 -136h-146 q0 13 -140 128q-175 -115 -176 -128h-146z" />
<glyph unicode="&#xdc;" horiz-adv-x="1300" d="M112 474q0 64 20 263t42 565h279q-23 -157 -81 -652q-9 -86 -9 -165q-1 -178 57 -246t186 -68q128 -1 206 97t110 405t43 629h266q-18 -139 -78 -672q-70 -664 -586 -664q-221 0 -338 108t-117 400zM419 1533q-1 66 45 112t112 46q105 0 105 -108q1 -67 -45 -113 t-112 -46q-105 0 -105 109zM787 1534q0 66 46 112t112 45q105 0 105 -108q0 -67 -45 -113t-111 -46q-107 0 -107 110z" />
<glyph unicode="&#xdd;" horiz-adv-x="1065" d="M66 1302h298q0 -63 85 -312t85 -337h15q7 68 153 324t145 325h270q1 -42 -171 -284t-250 -362t-88 -218q-23 -220 -24 -438h-280q58 381 58 467q0 143 -148 475t-148 360zM498 1416q0 16 97 140t97 134h275q1 -12 -147 -135t-148 -139h-174z" />
<glyph unicode="&#xde;" horiz-adv-x="1119" d="M83 0q21 145 83 684q38 357 44 618h268q-9 -34 -25 -126q124 5 227 5q164 0 280 -87.5t116 -243.5q0 -255 -189.5 -369t-463.5 -114h-45q-18 -170 -21 -367h-274zM391 548h61q372 0 372 260q0 185 -249 185q-63 0 -140 -15q-26 -201 -44 -430z" />
<glyph unicode="&#xdf;" horiz-adv-x="1075" d="M-79 -316q78 60 115.5 179t67.5 377t54 573.5t142.5 469t364.5 153.5q178 0 267.5 -63t89.5 -172t-69 -197l-130 -134q-69 -72 -69 -132t95 -157q144 -147 144 -293t-115 -228t-273 -82q-105 0 -183 24l39 176q68 -28 154 -28q141 0 141 103q0 63 -108 181t-108 220 t74 198l136 146q74 82 74 150q0 112 -168 112q-132 0 -195 -117t-86.5 -416t-60.5 -712.5t-339 -471.5z" />
<glyph unicode="&#xe0;" horiz-adv-x="1031" d="M52 325q0 235 165 425t513 199l44 31l192 15q-80 -542 -80 -749q0 -105 17 -236l-246 -28q-6 83 -6 193h-15q-111 -203 -330 -203q-126 0 -190 94t-64 259zM286 1410h255q0 -12 69 -160t69 -164h-174q-1 16 -109 164t-110 160zM305 354q0 -194 116 -194q89 0 165 131 t96 251t28 249q-209 -2 -307 -122q-98 -121 -98 -315z" />
<glyph unicode="&#xe1;" horiz-adv-x="1031" d="M52 325q0 235 165 425t513 199l44 31l192 15q-80 -542 -80 -749q0 -105 17 -236l-246 -28q-6 83 -6 193h-15q-111 -203 -330 -203q-126 0 -190 94t-64 259zM305 354q0 -194 116 -194q89 0 165 131t96 251t28 249q-209 -2 -307 -122q-98 -121 -98 -315zM442 1086 q0 16 102 164t102 160h265q1 -12 -147 -160t-148 -164h-174z" />
<glyph unicode="&#xe2;" horiz-adv-x="1031" d="M52 325q0 235 165 425t513 199l44 31l192 15q-80 -542 -80 -749q0 -105 17 -236l-246 -28q-6 83 -6 193h-15q-111 -203 -330 -203q-126 0 -190 94t-64 259zM253 1086q1 12 106 160t111 164h241q4 -16 77 -164t73 -160h-146q0 13 -140 168q-175 -155 -176 -168h-146z M305 354q0 -194 116 -194q89 0 165 131t96 251t28 249q-209 -2 -307 -122q-98 -121 -98 -315z" />
<glyph unicode="&#xe3;" horiz-adv-x="1031" d="M52 325q0 235 165 425t513 199l44 31l192 15q-80 -542 -80 -749q0 -105 17 -236l-246 -28q-6 83 -6 193h-15q-111 -203 -330 -203q-126 0 -190 94t-64 259zM235 1163q130 206 267 206q50 0 114 -22t110 -22q86 0 178 92l76 -75q-130 -195 -267 -195q-49 0 -113 24 t-111 24q-86 0 -177 -107zM305 354q0 -194 116 -194q89 0 165 131t96 251t28 249q-209 -2 -307 -122q-98 -121 -98 -315z" />
<glyph unicode="&#xe4;" horiz-adv-x="1031" d="M52 325q0 235 165 425t513 199l44 31l192 15q-80 -542 -80 -749q0 -105 17 -236l-246 -28q-6 83 -6 193h-15q-111 -203 -330 -203q-126 0 -190 94t-64 259zM285 1227q-1 66 45 112t112 46q105 0 105 -108q1 -67 -45 -113t-112 -46q-105 0 -105 109zM305 354 q0 -194 116 -194q89 0 165 131t96 251t28 249q-209 -2 -307 -122q-98 -121 -98 -315zM653 1228q0 66 46 112t112 45q105 0 105 -108q0 -67 -45 -113t-111 -46q-107 0 -107 110z" />
<glyph unicode="&#xe5;" horiz-adv-x="1031" d="M52 325q0 235 165 425t513 199l44 31l192 15q-80 -542 -80 -749q0 -105 17 -236l-246 -28q-6 83 -6 193h-15q-111 -203 -330 -203q-126 0 -190 94t-64 259zM305 354q0 -194 116 -194q89 0 165 131t96 251t28 249q-209 -2 -307 -122q-98 -121 -98 -315zM407 1263 q-1 110 77 176t173 66q95 -1 160 -57t65 -166t-78 -176q-78 -68 -172 -68q-95 0 -160 58t-65 167zM521 1267q-1 -63 33 -95t84 -32t90 38t40 99q0 62 -34 94t-83 32q-50 0 -90 -37t-40 -99z" />
<glyph unicode="&#xe6;" horiz-adv-x="1588" d="M52 325q0 237 167 427t511 198l44 30l172 15l-12 -76h15q124 75 273 75t239 -65t90 -186q0 -298 -641 -310q0 -125 46 -194t190 -69t327 103l-31 -198q-149 -104 -378 -104q-295 0 -374 246h-14q-137 -245 -370 -245q-126 0 -190 94.5t-64 258.5zM305 354 q0 -194 116 -194q91 0 166.5 125.5t103.5 306.5q11 69 19 199q-208 -3 -306.5 -123t-98.5 -314zM918 578q410 8 410 145q0 97 -149 97q-85 0 -161.5 -62.5t-99.5 -179.5z" />
<glyph unicode="&#xe7;" horiz-adv-x="866" d="M63 421q0 231 158 394.5t414 163.5q117 0 205 -19l-53 -203q-83 28 -203 28t-194 -101.5t-74 -234.5q0 -279 212 -279q121 0 266 88l-32 -198q-122 -89 -296 -89q-14 0 -28 1l-10 -42q158 -55 158 -192q0 -232 -257 -232l-11 112q41 0 72 29t31 69q0 97 -109 119l41 148 q-124 29 -207 138t-83 300z" />
<glyph unicode="&#xe8;" horiz-adv-x="986" d="M63 418q-1 260 163 418t388 158q155 0 245 -65t90 -186q0 -298 -641 -310q0 -131 49 -197t190 -66t324 103l-31 -198q-150 -104 -366 -104q-216 1 -314 123t-97 324zM286 1410h255q0 -12 69 -160t69 -164h-174q-1 16 -109 164t-110 160zM317 578q409 8 409 145 q0 97 -149 97q-85 0 -161 -62t-99 -180z" />
<glyph unicode="&#xe9;" horiz-adv-x="986" d="M63 418q-1 260 163 418t388 158q155 0 245 -65t90 -186q0 -298 -641 -310q0 -131 49 -197t190 -66t324 103l-31 -198q-150 -104 -366 -104q-216 1 -314 123t-97 324zM317 578q409 8 409 145q0 97 -149 97q-85 0 -161 -62t-99 -180zM467 1086q0 16 102 164t102 160h265 q0 -12 -148 -160t-147 -164h-174z" />
<glyph unicode="&#xea;" horiz-adv-x="986" d="M63 418q-1 260 163 418t388 158q155 0 245 -65t90 -186q0 -298 -641 -310q0 -131 49 -197t190 -66t324 103l-31 -198q-150 -104 -366 -104q-216 1 -314 123t-97 324zM268 1086q1 12 106 160t111 164h241q4 -16 77 -164t73 -160h-146q0 13 -140 168q-175 -155 -176 -168 h-146zM317 578q409 8 409 145q0 97 -149 97q-85 0 -161 -62t-99 -180z" />
<glyph unicode="&#xeb;" horiz-adv-x="986" d="M63 418q-1 260 163 418t388 158q155 0 245 -65t90 -186q0 -298 -641 -310q0 -131 49 -197t190 -66t324 103l-31 -198q-150 -104 -366 -104q-216 1 -314 123t-97 324zM275 1227q-1 66 45 112t112 46q105 0 105 -108q1 -67 -45 -113t-112 -46q-105 0 -105 109zM317 578 q409 8 409 145q0 97 -149 97q-85 0 -161 -62t-99 -180zM643 1228q0 66 46 112t112 45q105 0 105 -108q0 -67 -45 -113t-111 -46q-107 0 -107 110z" />
<glyph unicode="&#xec;" horiz-adv-x="488" d="M17 1410h255q0 -12 69 -160t69 -164h-174q0 16 -108 164t-111 160zM69 -10q83 540 83 840q0 67 -4 111l272 29q0 -27 -38 -312t-58 -658z" />
<glyph unicode="&#xed;" horiz-adv-x="488" d="M69 -10q83 540 83 840q0 67 -4 111l272 29q0 -27 -38 -312t-58 -658zM170 1086q0 16 102 164t102 160h265q1 -12 -147 -160t-148 -164h-174z" />
<glyph unicode="&#xee;" horiz-adv-x="488" d="M-16 1086q1 12 106 160t111 164h241q4 -16 77 -164t73 -160h-146q0 13 -140 168q-175 -155 -176 -168h-146zM69 -10q83 540 83 840q0 67 -4 111l272 29q0 -27 -38 -312t-58 -658z" />
<glyph unicode="&#xef;" horiz-adv-x="488" d="M25 1227q0 66 45.5 112t111.5 46q105 0 105 -108q0 -66 -45.5 -112.5t-111.5 -46.5q-105 0 -105 109zM69 -10q83 540 83 840q0 67 -4 111l272 29q1 -27 -37 -308t-59 -662zM353 1228q0 66 46 111.5t112 45.5q105 0 105 -108q0 -66 -45 -112.5t-111 -46.5q-107 0 -107 110 z" />
<glyph unicode="&#xf0;" horiz-adv-x="1114" d="M64 416q0 195 139.5 362t362.5 167q118 0 196 -64h15q-25 159 -93 258q-92 -48 -168 -102l-69 142q39 17 182 65q-56 74 -113 114l133 101q42 -20 132 -115q73 46 167 111l68 -145q-40 -17 -156 -69q171 -237 171 -529t-140.5 -521t-407.5 -229q-204 0 -311.5 129.5 t-107.5 324.5zM314 412q0 -118 51.5 -194t146.5 -76q271 0 271 553q-86 61 -205 61t-191.5 -113t-72.5 -231z" />
<glyph unicode="&#xf1;" horiz-adv-x="1093" d="M69 -10q70 518 70 662t-16 294l248 25q7 -85 7 -198h14q117 209 346 209q259 0 259 -298q0 -88 -27 -330t-27 -354l-258 -10q0 48 33 286t33 338q0 101 -30 141q-31 40 -109 40t-160 -119t-102 -312t-30 -364zM275 1163q130 206 267 206q50 0 114 -22t110 -22 q86 0 178 92l76 -75q-130 -195 -267 -195q-49 0 -113 24t-111 24q-86 0 -177 -107z" />
<glyph unicode="&#xf2;" horiz-adv-x="1095" d="M63 415q0 243 156 411t401 168q172 0 292 -120t120 -326q0 -244 -156 -416t-399 -171q-170 1 -292 125t-122 329zM315 438q0 -134 54 -214t147 -79q121 -1 192 117t71 253q1 135 -53 215t-146 79q-118 0 -192 -119q-74 -118 -73 -252zM316 1410h255q0 -12 69 -160 t69 -164h-174q-1 16 -109 164t-110 160z" />
<glyph unicode="&#xf3;" horiz-adv-x="1095" d="M63 415q0 243 156 411t401 168q172 0 292 -120t120 -326q0 -244 -156 -416t-399 -171q-170 1 -292 125t-122 329zM315 438q0 -134 54 -214t147 -79q121 -1 192 117t71 253q1 135 -53 215t-146 79q-118 0 -192 -119q-74 -118 -73 -252zM527 1086q0 16 102 164t102 160h265 q0 -12 -148 -160t-147 -164h-174z" />
<glyph unicode="&#xf4;" horiz-adv-x="1095" d="M63 415q0 243 156 411t401 168q172 0 292 -120t120 -326q0 -244 -156 -416t-399 -171q-170 1 -292 125t-122 329zM313 1086q1 12 106 160t111 164h241q4 -16 77 -164t73 -160h-146q0 13 -140 168q-175 -155 -176 -168h-146zM315 438q0 -134 54 -214t147 -79 q121 -1 192 117t71 253q1 135 -53 215t-146 79q-118 0 -192 -119q-74 -118 -73 -252z" />
<glyph unicode="&#xf5;" horiz-adv-x="1095" d="M63 415q0 243 156 411t401 168q172 0 292 -120t120 -326q0 -244 -156 -416t-399 -171q-170 1 -292 125t-122 329zM265 1163q130 206 267 206q50 0 114 -22t110 -22q86 0 178 92l76 -75q-130 -195 -267 -195q-49 0 -113 24t-111 24q-86 0 -177 -107zM315 438 q0 -134 54 -214t147 -79q121 -1 192 117t71 253q1 135 -53 215t-146 79q-118 0 -192 -119q-74 -118 -73 -252z" />
<glyph unicode="&#xf6;" horiz-adv-x="1095" d="M63 415q0 243 156 411t401 168q172 0 292 -120t120 -326q0 -244 -156 -416t-399 -171q-170 1 -292 125t-122 329zM315 438q0 -134 54 -214t147 -79q121 -1 192 117t71 253q1 135 -53 215t-146 79q-118 0 -192 -119q-74 -118 -73 -252zM325 1227q-1 66 45 112t112 46 q105 0 105 -108q1 -67 -45 -113t-112 -46q-105 0 -105 109zM693 1228q0 66 46 112t112 45q105 0 105 -108q0 -67 -45 -113t-111 -46q-107 0 -107 110z" />
<glyph unicode="&#xf7;" horiz-adv-x="1033" d="M122 411l20 180h769l-20 -180h-769zM346 140q0 66 46 111.5t112 45.5q105 0 105 -108q0 -66 -45 -112.5t-111 -46.5q-107 0 -107 110zM422 810q0 66 46 111.5t112 45.5q105 0 105 -108q0 -66 -45 -112.5t-111 -46.5q-107 0 -107 110z" />
<glyph unicode="&#xf8;" horiz-adv-x="1095" d="M-11 -72q3 34 155 193q-79 108 -79 282q0 244 155 417.5t398 173.5q173 0 286 -106q89 100 92 130l104 -37q-4 -36 -129 -174q61 -102 61 -257q0 -244 -154 -416.5t-398 -172.5q-154 0 -262 84q-124 -131 -127 -159zM316 432q0 -67 17 -121l403 400q-56 98 -170 98 t-182 -121t-68 -256zM381 212q54 -67 137 -67q125 0 193.5 110.5t68.5 241.5q0 69 -9 102q-134 -133 -390 -387z" />
<glyph unicode="&#xf9;" horiz-adv-x="1086" d="M96 267q0 87 26 329t27 354l260 20q0 -48 -34 -287t-34 -341q1 -102 29 -143q28 -42 106 -42q78 1 160 119t99 289q28 278 28 385l253 20q-70 -554 -70 -698t16 -264l-246 -28q-6 81 -6 198h-14q-113 -209 -342 -209q-258 0 -258 298zM286 1410h255q0 -12 69 -160 t69 -164h-174q-1 16 -109 164t-110 160z" />
<glyph unicode="&#xfa;" horiz-adv-x="1086" d="M96 267q0 87 26 329t27 354l260 20q0 -48 -34 -287t-34 -341q1 -102 29 -143q28 -42 106 -42q78 1 160 119t99 289q28 278 28 385l253 20q-70 -554 -70 -698t16 -264l-246 -28q-6 81 -6 198h-14q-113 -209 -342 -209q-258 0 -258 298zM487 1086q0 16 102 164t102 160h265 q0 -12 -148 -160t-147 -164h-174z" />
<glyph unicode="&#xfb;" horiz-adv-x="1086" d="M96 267q0 87 26 329t27 354l260 20q0 -48 -34 -287t-34 -341q1 -102 29 -143q28 -42 106 -42q78 1 160 119t99 289q28 278 28 385l253 20q-70 -554 -70 -698t16 -264l-246 -28q-6 81 -6 198h-14q-113 -209 -342 -209q-258 0 -258 298zM288 1086q1 12 106 160t111 164h241 q4 -16 77 -164t73 -160h-146q0 13 -140 168q-175 -155 -176 -168h-146z" />
<glyph unicode="&#xfc;" horiz-adv-x="1086" d="M96 267q0 87 26 329t27 354l260 20q0 -48 -34 -287t-34 -341q1 -102 29 -143q28 -42 106 -42q78 1 160 119t99 289q28 278 28 385l253 20q-70 -554 -70 -698t16 -264l-246 -28q-6 81 -6 198h-14q-113 -209 -342 -209q-258 0 -258 298zM295 1227q-1 66 45 112t112 46 q105 0 105 -108q1 -67 -45 -113t-112 -46q-105 0 -105 109zM663 1228q0 66 46 112t112 45q105 0 105 -108q0 -67 -45 -113t-111 -46q-107 0 -107 110z" />
<glyph unicode="&#xfd;" horiz-adv-x="965" d="M6 -250q126 0 218 80t91 210q1 130 -121 468t-122 442l288 11q0 -137 56 -385t57 -337h15q4 35 109 299t105 409l255 14q-1 -141 -199 -513t-227 -454q-88 -248 -205 -342t-320 -95v193zM437 1086q0 16 102 164t102 160h265q0 -12 -148 -160t-147 -164h-174z" />
<glyph unicode="&#xfe;" horiz-adv-x="1104" d="M9 -457q39 263 144 1200q38 390 38 663l275 16q0 -34 -34 -295.5t-53 -353.5h12q113 209 341 209q148 0 227 -105.5t79 -281.5q0 -259 -138.5 -441.5t-366.5 -182.5q-144 0 -209 68h-12q-26 -245 -43 -496h-260zM322 200q73 -45 161 -45q152 0 227.5 115.5t75.5 272.5 q0 252 -163 252q-97 0 -181 -129.5t-100 -279.5z" />
<glyph unicode="&#xff;" horiz-adv-x="965" d="M6 -250q126 0 218 80t91 210q1 130 -121 468t-122 442l288 11q0 -137 56 -385t57 -337h15q4 35 109 299t105 409l255 14q-1 -141 -199 -513t-227 -454q-88 -248 -205 -342t-320 -95v193zM239 1227q-1 66 45 112t112 46q105 0 105 -108q1 -67 -45 -113t-112 -46 q-105 0 -105 109zM607 1228q0 66 46 112t112 45q105 0 105 -108q0 -67 -45 -113t-111 -46q-107 0 -107 110z" />
<glyph unicode="&#x152;" horiz-adv-x="1750" d="M55 556q0 307 194.5 541.5t492.5 234.5q98 0 231 -30h735l-30 -219q-317 16 -524 16l-27 -328q169 0 437 8l-23 -206q-232 10 -434 10q-21 -203 -31 -380q214 0 565 17l-32 -220h-792q-127 -35 -243 -35q-249 0 -384 173t-135 418zM326 604q0 -188 75 -303.5t207 -115.5 t212 31q63 447 93 874q-90 25 -213 25q-172 0 -273 -161.5t-101 -349.5z" />
<glyph unicode="&#x153;" horiz-adv-x="1676" d="M63 415q0 243 156 411t401 168q187 0 296 -156h13q153 156 375 156q155 0 245 -65t90 -186q0 -298 -641 -310q0 -125 46 -194t190 -69t327 103l-31 -198q-149 -104 -367 -104t-318 143h-15q-146 -153 -353 -153q-170 0 -292 124.5t-122 329.5zM315 434q0 -130 54 -209.5 t147 -79.5q125 0 191.5 121.5t66.5 253.5t-51.5 210.5t-142.5 78.5q-125 0 -195 -122.5t-70 -252.5zM1007 578q409 8 409 145q0 97 -149 97q-85 0 -161 -62.5t-99 -179.5z" />
<glyph unicode="&#x178;" horiz-adv-x="1065" d="M66 1302h298q0 -63 85 -312t85 -337h15q7 68 153 324t145 325h270q1 -42 -171 -284t-250 -362t-88 -218q-23 -220 -24 -438h-280q58 381 58 467q0 143 -148 475t-148 360zM320 1533q0 66 46 112t111 46q105 0 105 -108q0 -67 -46 -113t-111 -46q-105 0 -105 109z M688 1534q0 66 46 112t112 45q105 0 105 -108q0 -67 -45 -113t-111 -46q-107 0 -107 110z" />
<glyph unicode="&#x2c6;" horiz-adv-x="782" d="M93 1086q1 13 106 160.5t111 163.5h241q4 -16 77 -163.5t73 -160.5h-146q0 13 -140 168q-175 -155 -176 -168h-146z" />
<glyph unicode="&#x2dc;" horiz-adv-x="884" d="M79 1163q130 206 267 206q50 0 113.5 -22t110.5 -22q86 0 178 92l76 -75q-130 -195 -267 -195q-50 0 -113.5 24t-110.5 24q-86 0 -177 -107z" />
<glyph unicode="&#x2000;" horiz-adv-x="910" />
<glyph unicode="&#x2001;" horiz-adv-x="1820" />
<glyph unicode="&#x2002;" horiz-adv-x="910" />
<glyph unicode="&#x2003;" horiz-adv-x="1820" />
<glyph unicode="&#x2004;" horiz-adv-x="606" />
<glyph unicode="&#x2005;" horiz-adv-x="455" />
<glyph unicode="&#x2006;" horiz-adv-x="303" />
<glyph unicode="&#x2007;" horiz-adv-x="303" />
<glyph unicode="&#x2008;" horiz-adv-x="227" />
<glyph unicode="&#x2009;" horiz-adv-x="364" />
<glyph unicode="&#x200a;" horiz-adv-x="101" />
<glyph unicode="&#x2010;" d="M39 410l28 180l411 15l-31 -180z" />
<glyph unicode="&#x2011;" d="M39 410l28 180l411 15l-31 -180z" />
<glyph unicode="&#x2012;" d="M39 410l28 180l411 15l-31 -180z" />
<glyph unicode="&#x2013;" horiz-adv-x="1024" d="M67 410l19 180h871l-19 -180h-871z" />
<glyph unicode="&#x2014;" horiz-adv-x="2048" d="M-10 410l18 180h2050l-18 -180h-2050z" />
<glyph unicode="&#x2018;" d="M61 867q0 256 358 573l82 -71q-145 -151 -164 -328q59 -41 59 -125t-58 -143.5t-134 -59.5t-109.5 45.5t-33.5 108.5z" />
<glyph unicode="&#x2019;" d="M55 774q145 151 164 328q-59 42 -59 126t58 143t134 59t109.5 -45.5t33.5 -108.5q0 -256 -358 -573z" />
<glyph unicode="&#x201a;" d="M-41 -323q146 151 164 327q-57 38 -57 124t56 146t134 59q76 0 110 -46t33 -109q0 -251 -359 -568z" />
<glyph unicode="&#x201c;" horiz-adv-x="1033" d="M61 867q0 256 358 573l82 -71q-145 -151 -164 -328q59 -41 59 -125t-58 -144q-58 -59 -134 -59q-76 -1 -110 45t-33 109zM557 867q0 256 358 573l82 -71q-145 -151 -164 -328q59 -41 59 -125t-58 -144q-58 -59 -134 -59q-76 -1 -110 45t-33 109z" />
<glyph unicode="&#x201d;" horiz-adv-x="1033" d="M55 774q145 151 164 328q-59 42 -59 126t58 143t134 59t110 -46t33 -108q0 -256 -358 -573zM541 774q145 151 164 328q-59 42 -59 126t58 143t134 59t110 -46t33 -108q0 -256 -358 -573z" />
<glyph unicode="&#x201e;" horiz-adv-x="1033" d="M-41 -323q146 151 164 327q-57 38 -57 124t56 146t134 59q76 0 110 -46t33 -109q0 -251 -359 -568zM483 -323q146 151 164 327q-57 38 -57 124t56 146t134 59q76 0 110 -46t33 -109q0 -251 -359 -568z" />
<glyph unicode="&#x2022;" horiz-adv-x="1351" d="M407 610q0 141 89.5 249t237.5 108q106 0 181 -78t75 -219t-89 -248.5t-237 -107.5q-106 0 -181.5 77.5t-75.5 218.5z" />
<glyph unicode="&#x2026;" horiz-adv-x="2048" d="M126 144q0 72 58 131q58 58 142 58q134 0 134 -138q0 -85 -57 -145t-133 -60q-144 0 -144 154zM716 144q0 72 58 131q58 58 142 58q134 0 134 -138q0 -85 -57 -145t-133 -60q-144 0 -144 154zM1305 144q-1 72 57 131q58 58 143 58q134 0 134 -138q0 -85 -57 -145 q-56 -60 -132 -60q-144 0 -145 154z" />
<glyph unicode="&#x202f;" horiz-adv-x="364" />
<glyph unicode="&#x2039;" d="M67 387l22 201l306 259l66 -117l-216 -242l165 -244l-91 -118z" />
<glyph unicode="&#x203a;" d="M33 244l216 242l-166 244l91 117l252 -259l-22 -201l-305 -261z" />
<glyph unicode="&#x205f;" horiz-adv-x="455" />
<glyph unicode="&#x20ac;" horiz-adv-x="909" d="M34 401l33 110h81q2 40 10 77h-104l32 110h100q56 180 176 284t280 104q120 0 202 -20l-51 -183q-79 22 -179 22q-151 0 -208 -207q170 0 349 10l-31 -120h-338q-6 -32 -8 -77h325l-33 -120q-134 10 -290 10q7 -118 58 -181t131 -63q116 0 202 31l-34 -175 q-106 -39 -257 -39q-150 0 -244 114t-96 313h-106z" />
<glyph unicode="&#x2122;" horiz-adv-x="1328" d="M68 1286l15 108h487l-14 -107q-95 7 -177 7q-40 -258 -50 -551h-138q37 243 62 551q-67 0 -185 -8zM533 743q-1 13 63 295t72 356h182q0 -68 36.5 -247.5t36.5 -243.5h8q5 48 86.5 247t86.5 244h188q-15 -142 -15 -342t1 -309h-143q0 203 30 541h-8q-21 -91 -112 -299 q-91 -209 -95 -242h-108q0 39 -43 230t-54 311h-8l-75 -541h-129z" />
<glyph unicode="&#x25fc;" horiz-adv-x="960" d="M0 0v960h960v-960h-960z" />
</font>
</defs>
</svg>
