<?xml version="1.0" standalone="no"?>
<!DOCTYPE svg PUBLIC "-//W3C//DTD SVG 1.1//EN" "http://www.w3.org/Graphics/SVG/1.1/DTD/svg11.dtd" >
<svg xmlns="http://www.w3.org/2000/svg">
<metadata></metadata>
<defs>
<font id="candara-italicitalic" horiz-adv-x="516" >
<font-face units-per-em="2048" ascent="1484" descent="-564" />
<missing-glyph horiz-adv-x="422" />
<glyph unicode="&#xfb01;" horiz-adv-x="1082" d="M16 -374q93 76 132.5 199.5t65.5 372.5t52 599q-58 -2 -203 -6l23 147q130 -10 194 -8q18 260 105.5 382t252.5 122q225 0 382 -74l-74 -144q-178 94 -294 94t-164.5 -74t-62.5 -306q307 -2 551 37q1 -70 -31 -287.5t-58 -679.5l-174 -10q23 158 62 467q20 191 21 356 q-178 -18 -384 -16q-28 -369 -57.5 -693.5t-99 -421.5t-199.5 -134z" />
<glyph unicode="&#xfb02;" horiz-adv-x="1090" d="M16 -372q93 76 131.5 173.5t65.5 372.5t53 623q-58 0 -203 -6l23 147q130 -8 194 -8q18 262 105.5 384t252.5 122q101 0 216 -29l182 10q0 -59 -59.5 -481t-78.5 -931l-182 -20q0 42 60 445t76 855q-120 27 -218 27t-146.5 -74t-62.5 -308q94 0 264 10l-20 -149 q-184 6 -257 6q-28 -367 -52 -685.5t-99 -421.5t-205 -140z" />
<glyph unicode="&#xfb03;" horiz-adv-x="1635" d="M16 -374q93 76 131.5 173.5t65.5 372.5t53 623q-58 0 -203 -6l23 147q130 -8 194 -8q16 256 93.5 371t286.5 115q158 1 314 -64q82 84 217 84q225 0 382 -74l-74 -144q-177 94 -293 94t-165 -74t-63 -308q307 0 551 39q1 -70 -31 -287.5t-58 -679.5l-174 -10 q23 158 62 467q20 191 21 354q-178 -16 -384 -16q-28 -367 -57.5 -691.5t-99 -421.5t-199.5 -134l-40 78q93 76 132.5 199.5t65.5 372.5t52 597h-407q-28 -367 -52 -685.5t-99 -421.5t-205 -140zM425 928h408q12 196 71 312q-122 50 -254 50t-170.5 -69t-54.5 -293z" />
<glyph unicode="&#xfb04;" horiz-adv-x="1643" d="M16 -372q93 76 131.5 173.5t65.5 372.5t53 623q-58 0 -203 -6l23 147q130 -8 194 -8q16 256 93.5 371t286.5 115q158 1 314 -64q82 84 200 84t233 -29l182 10q1 -41 -29 -259q-91 -670 -109 -1153l-182 -20q-1 41 33 267q86 581 103 1033q-120 27 -218 27t-146.5 -74 t-62.5 -308q94 0 264 10l-20 -149q-184 6 -257 6q-28 -367 -52 -685.5t-99 -421.5t-205 -140l-40 78q93 76 131.5 173.5t65.5 372.5t53 623h-407q-28 -367 -52 -685.5t-99 -421.5t-205 -140zM425 930h408q12 196 71 312q-122 50 -254 50t-170.5 -69t-54.5 -293z" />
<glyph horiz-adv-x="422" />
<glyph horiz-adv-x="422" />
<glyph horiz-adv-x="682" />
<glyph unicode="&#x9;" horiz-adv-x="422" />
<glyph unicode=" "  horiz-adv-x="422" />
<glyph unicode="&#x09;" horiz-adv-x="422" />
<glyph unicode="&#xa0;" horiz-adv-x="422" />
<glyph unicode="&#xd;" horiz-adv-x="422" />
<glyph unicode="!" d="M56 112q0 68 44.5 115.5t112.5 47.5q103 0 103 -110q0 -68 -44.5 -117.5t-112.5 -49.5q-103 0 -103 114zM195 975q0 351 141 351q81 0 81 -115q0 -195 -157 -674h-60q-5 267 -5 438z" />
<glyph unicode="&#x22;" horiz-adv-x="892" d="M192 1040q0 192 25 286t113 95q88 0 87 -109t-55 -289t-120 -321h-37q-13 146 -13 338zM567 1040q0 192 25 286q24 94 112 95q88 0 88 -109t-54 -289t-121 -321h-37q-13 146 -13 338z" />
<glyph unicode="#" horiz-adv-x="1033" d="M-7 0q18 40 195 414h-155l14 128h202q19 38 50 104t67 142h-194l13 128h239q146 317 161 392h122q-12 -41 -176 -392h227q145 319 160 392h121q-11 -39 -175 -392h137l-13 -128h-182q-26 -54 -56 -120t-59 -126h172l-14 -128h-218q-161 -352 -182 -414h-124 q20 39 196 414h-224q-160 -352 -182 -414h-122zM358 542h225q19 41 50 106t66 140h-227q-26 -57 -56 -122t-58 -124z" />
<glyph unicode="$" horiz-adv-x="909" d="M83 59l45 147q119 -50 259 -50q223 0 223 128q0 93 -180 172q-116 51 -169 97q-85 73 -85 187t84 190.5t215 91.5q21 191 25 306h112q-9 -49 -39 -302q141 -3 223 -29l-44 -145q-99 44 -229 44q-196 0 -196 -130q0 -47 38 -80t141 -77q255 -109 255 -275 q0 -262 -294 -302q-18 -171 -23 -295h-111q9 61 35 289q-153 0 -285 33z" />
<glyph unicode="%" horiz-adv-x="1033" d="M16 10q11 97 438.5 643t438.5 649l112 -10q-10 -89 -437.5 -633t-439.5 -659zM100 1051q0 101 79 179t189 78t167 -62t57 -163t-78.5 -179t-188.5 -78q-109 0 -167 62t-58 163zM210 1049q0 -62 31 -101t94 -39t105 54q42 53 41 117t-31 104t-92 39q-62 0 -105 -56 t-43 -118zM404 214q0 101 79 179t189 78t167 -62t57 -163t-79 -178.5t-189 -77.5t-167 62t-57 162zM514 212q0 -62 31 -101t93 -39t106 54q42 52 42 116t-31 104t-93 40t-105 -56t-43 -118z" />
<glyph unicode="&#x26;" horiz-adv-x="1326" d="M28 308q0 152 90 273t245 183v7q-145 128 -145 257t105 212.5t233 83.5t211 -63t83 -170t-61 -189.5t-155 -120.5l-3 -10q100 -59 290 -277h6q48 73 68 268h180q-4 -40 -67.5 -165.5t-116.5 -179.5v-8q48 -52 138.5 -205.5t90.5 -203.5h-206q0 33 -51 128.5t-82 133.5h-8 q-218 -291 -518 -291q-144 0 -235.5 92.5t-91.5 244.5zM206 347q0 -109 65 -172t175 -63q159 0 376 231l2 10q-62 77 -164.5 186.5t-216.5 171.5q-237 -107 -237 -364zM381 1037q0 -123 170 -211q142 63 142 215q0 78 -40.5 118.5t-106.5 40.5t-115.5 -46.5t-49.5 -116.5z " />
<glyph unicode="'" horiz-adv-x="490" d="M192 1040q0 192 25 286.5t113 94.5t87 -109q0 -109 -54.5 -289t-120.5 -321h-37q-13 146 -13 338z" />
<glyph unicode="(" horiz-adv-x="723" d="M104 273q0 377 147 724q172 407 458 524l41 -85q-142 -111 -243 -261q-244 -359 -244 -839t303 -737l-78 -85q-112 56 -192 152q-192 230 -192 607z" />
<glyph unicode=")" horiz-adv-x="723" d="M-89 -401q142 114 244 264q244 361 244 839t-304 734l79 85q112 -56 192 -152q192 -230 192 -607t-147 -724q-172 -407 -458 -524z" />
<glyph unicode="*" horiz-adv-x="1033" d="M125 1094q0 58 29 95q28 44 66 44q55 0 243 -173l19 12q-20 173 -20 226t2 75q2 21 38 41t77 20q87 0 87 -70q0 -79 -112 -296l15 -16q222 140 279 140q34 0 54 -44t20 -90q0 -62 -81 -80q-34 -7 -104 -7t-158 8l-8 -20q182 -181 182 -238q0 -42 -48 -82t-89 -40 q-78 0 -111 318h-21q-136 -289 -204 -289q-40 0 -78 35.5t-38 76.5q0 72 268 225l-4 23q-105 9 -268 41q-35 7 -35 65z" />
<glyph unicode="+" horiz-adv-x="1033" d="M122 438l12 128h329l37 366h122l-37 -366h326l-12 -128h-329l-37 -366h-122l37 366h-326z" />
<glyph unicode="," d="M-47 -310q93 98 121 166t38 158q-49 28 -49 98t46.5 116.5t104.5 46.5q58 1 84 -39t25 -93q0 -242 -324 -511z" />
<glyph unicode="-" d="M41 438l23 128l411 15l-25 -129z" />
<glyph unicode="&#xad;" d="M41 438l23 128l411 15l-25 -129z" />
<glyph unicode="." d="M57 112q0 68 44.5 115.5t112.5 47.5q103 0 103 -110q0 -68 -44.5 -117.5t-112.5 -49.5q-103 0 -103 114z" />
<glyph unicode="/" horiz-adv-x="547" d="M-103 -302q6 65 259.5 816.5t272.5 940.5h141q-7 -69 -260.5 -828.5t-270.5 -928.5h-142z" />
<glyph unicode="0" horiz-adv-x="1095" d="M120 407q0 271 136.5 464t346.5 193t291 -132.5t81 -299.5q0 -268 -137 -462.5t-359 -194.5q-190 0 -274.5 128t-84.5 304zM285 463q0 -354 238 -354q118 0 201.5 137.5t83.5 349.5q0 137 -53 235.5t-180 98.5t-208.5 -141.5t-81.5 -325.5z" />
<glyph unicode="1" horiz-adv-x="698" d="M90 777l370 265h98q-83 -621 -109 -1042h-178q77 507 84 804l-229 -114z" />
<glyph unicode="2" horiz-adv-x="885" d="M40 0l36 155q137 70 325 226.5t188 354.5q0 183 -249 183q-66 0 -192 -14l34 139q74 20 195 20q212 0 298 -85t86 -191t-70 -251t-461 -400l-1 -8q271 0 536 12l-36 -141h-689z" />
<glyph unicode="3" horiz-adv-x="950" d="M0 -277q235 25 438.5 132.5t203.5 293.5q0 242 -438 242l33 124q151 0 292.5 61t141.5 183q0 160 -277 160q-115 0 -204 -20l29 138q115 27 285 27t248 -71t78 -175q0 -211 -268 -305l-2 -11q126 -25 195 -112.5t69 -211.5q0 -269 -252 -414t-558 -162z" />
<glyph unicode="4" horiz-adv-x="1021" d="M40 283q3 25 297 390.5t296 381.5h204q-34 -217 -90 -752q86 0 184 11l-37 -162h-162q-20 -187 -40 -482h-171q35 258 59 482h-533zM197 297q162 0 398 6q43 308 73 608h-7q-2 -27 -232 -308.5t-231 -297.5z" />
<glyph unicode="5" horiz-adv-x="939" d="M40 -243q238 19 416.5 122.5t178.5 294.5q0 145 -114.5 200.5t-405.5 55.5q51 212 121 625h583l-23 -159q-190 27 -454 27q-21 -77 -60 -356q535 0 535 -347q0 -263 -236 -418t-526 -167z" />
<glyph unicode="6" horiz-adv-x="1063" d="M100 417q0 392 192.5 646.5t568.5 279.5l4 -120q-250 -27 -379 -155.5t-189 -383.5h10q104 130 314 130q154 0 238 -111.5t84 -264.5q0 -205 -133.5 -343t-341.5 -138q-155 0 -261.5 118t-106.5 342zM278 452q0 -185 59.5 -273t149.5 -88q125 0 204 97.5t79 217.5 t-69 199t-206 79t-211 -95q-6 -57 -6 -137z" />
<glyph unicode="7" horiz-adv-x="922" d="M50 -309q9 105 326 596t329 628q-203 0 -600 -25l23 165h764q-19 -236 -340.5 -768.5t-329.5 -616.5z" />
<glyph unicode="8" horiz-adv-x="1075" d="M100 320q0 273 314 407v11q-165 115 -165 281t114.5 256.5t258.5 90.5t238.5 -74t94.5 -189t-68.5 -203t-173.5 -131v-11q236 -148 236 -359q0 -188 -138.5 -304t-312.5 -116t-286 91.5t-112 249.5zM259 344q0 -114 70.5 -173t179.5 -59t194 71.5t85 186.5 q0 171 -260 312q-114 -39 -191.5 -131.5t-77.5 -206.5zM404 1060q0 -147 198 -252q200 89 200 270q0 84 -54 129t-136 45t-145 -53t-63 -139z" />
<glyph unicode="9" horiz-adv-x="1055" d="M100 571q0 205 130.5 349t336.5 144q155 0 261.5 -122t106.5 -353q0 -407 -199 -687.5t-590 -306.5l-17 122q512 37 612 626h-8q-110 -140 -314 -140q-153 0 -236 107.5t-83 260.5zM274 612q0 -120 64 -199.5t196 -79.5t221 116q6 57 6 111q0 181 -64.5 273.5 t-171.5 92.5t-179 -97t-72 -217z" />
<glyph unicode=":" d="M57 112q1 68 45 116t112 47q103 0 103 -110q-1 -67 -45 -117t-112 -50q-103 0 -103 114zM129 794q1 68 45 116t112 47q103 0 103 -110q-1 -67 -45 -117t-112 -50q-103 0 -103 114z" />
<glyph unicode=";" d="M-47 -310q93 98 121 166t38 158q-49 28 -49 98q1 70 47 116t104 47t84 -39t25 -93q0 -242 -324 -511zM126 794q0 68 44 116t113 47q103 0 103 -110q0 -67 -44 -117t-113 -50q-103 0 -103 114z" />
<glyph unicode="&#x3c;" horiz-adv-x="1033" d="M106 469l10 87l744 444l66 -122l-652 -355l-3 -23l579 -351l-91 -124z" />
<glyph unicode="=" horiz-adv-x="1033" d="M99 231l15 128h777l-15 -128h-777zM143 645l14 128h777l-14 -128h-777z" />
<glyph unicode="&#x3e;" horiz-adv-x="1033" d="M106 149l655 353l2 23l-580 353l90 122l653 -444l-10 -87l-744 -444z" />
<glyph unicode="?" horiz-adv-x="723" d="M77 112q0 68 44.5 115.5t112.5 47.5q104 0 104 -110q0 -68 -44.5 -117.5t-112.5 -49.5q-104 0 -104 114zM92 1209l37 126q508 0 508 -277q0 -122 -88 -223t-211 -147l-35 -151h-75l-14 213q260 63 260 261t-382 198z" />
<glyph unicode="@" horiz-adv-x="1962" d="M112 376q0 435 269 767t700 332q388 0 582.5 -231.5t194.5 -551.5q0 -278 -142 -499.5t-374 -221.5q-99 0 -161.5 57.5t-62.5 159.5q0 10 3 35h-9q-134 -252 -332 -252q-107 0 -163 97.5t-56 239.5q0 245 147 458t384 213q135 0 175 -91h11l22 62l124 21 q-65 -237 -140 -576q-11 -57 -11 -108q0 -180 145 -180q119 0 198 193t79 380q0 269 -150.5 454.5t-475.5 185.5q-355 0 -578.5 -294t-223.5 -658q0 -292 160.5 -488t469.5 -196q148 0 271 45l2 -173q-122 -31 -293 -31q-372 0 -568.5 248t-196.5 603zM716 318 q0 -202 132 -202q107 0 228 192t150 469q-38 58 -138 58q-163 0 -267.5 -171.5t-104.5 -345.5z" />
<glyph unicode="A" horiz-adv-x="1232" d="M-40 0q5 30 313 638t314 664h220q0 -90 165.5 -653t165.5 -649h-199q0 97 -77 421h-548q-152 -328 -162 -421h-192zM367 552h465q-158 578 -158 624h-9q-3 -31 -298 -624z" />
<glyph unicode="B" horiz-adv-x="1118" d="M88 0q21 141 84 684q37 352 42 618h124l301 6q165 0 266 -70.5t101 -188.5q0 -117 -60 -207t-161 -119v-10q95 -18 164.5 -92.5t69.5 -198.5q0 -220 -175.5 -324t-446.5 -104q-74 0 -309 6zM271 143q55 -9 201 -9t264.5 57.5t118.5 219.5q0 215 -390 215q-76 0 -154 -6 q-28 -267 -40 -477zM325 756q65 -2 121 -2q174 0 262 37q133 57 133 207q0 180 -244 180q-133 0 -235 -15q0 -23 -37 -407z" />
<glyph unicode="C" horiz-adv-x="1010" d="M70 567q0 319 215.5 536t540.5 217q86 0 177 -27l-44 -159q-104 36 -190 36q-239 0 -382 -170.5t-143 -412.5q0 -198 118 -334.5t343 -136.5q92 0 244 43l-27 -149q-169 -37 -260 -37q-297 0 -444.5 173.5t-147.5 420.5z" />
<glyph unicode="D" horiz-adv-x="1211" d="M88 0q21 141 84 684q37 352 42 618h113l238 6q289 0 432.5 -165.5t143.5 -401.5q0 -312 -205 -533.5t-522 -221.5q-99 0 -326 14zM271 136q74 -16 147 -16q253 0 403.5 173.5t150.5 427.5q0 194 -119 323t-363 129q-59 0 -126 -10q-9 -107 -41 -428t-52 -599z" />
<glyph unicode="E" horiz-adv-x="986" d="M88 0q21 141 85 684q37 352 42 618h727l-23 -149q-258 12 -550 12q-4 -53 -29 -325l-9 -94q252 0 450 12l-17 -149q-208 9 -448 9q-27 -257 -44 -482q316 0 606 15l-25 -151h-765z" />
<glyph unicode="F" horiz-adv-x="931" d="M88 0q22 141 87 684q37 352 40 618h739l-21 -149q-248 12 -568 12q-8 -122 -39 -458q223 0 436 8l-17 -145q-202 8 -433 8q-41 -391 -50 -578h-174z" />
<glyph unicode="G" horiz-adv-x="1163" d="M70 570q0 316 218.5 533t541.5 217q132 0 234 -29l-41 -166q-162 40 -251 40q-237 0 -382.5 -167.5t-145.5 -387.5t122.5 -360.5t349.5 -140.5q56 0 151 15q-1 22 -1 53l21 416h172q-10 -60 -37 -279q-7 -63 -13 -287q-171 -54 -339 -54q-298 0 -449 174.5t-151 422.5z " />
<glyph unicode="H" horiz-adv-x="1225" d="M88 0q25 170 86 684q35 334 42 618h190q-20 -133 -71 -556h575q23 217 35 556h192q-21 -126 -80 -618q-37 -349 -48 -684h-190q22 163 74 620h-568q-23 -222 -46 -620h-191z" />
<glyph unicode="I" horiz-adv-x="494" d="M88 0q23 148 87 684q37 354 39 618h192q-19 -123 -78 -618q-33 -315 -45 -612l-3 -72h-192z" />
<glyph unicode="J" horiz-adv-x="786" d="M-47 -6l29 146q65 -33 128 -33q146 0 219 59q116 95 145 369q48 453 56 767h192q-22 -134 -93 -744q-35 -338 -183 -476q-117 -109 -329 -109q-93 0 -164 21z" />
<glyph unicode="K" horiz-adv-x="1127" d="M88 0q21 141 84 684q37 352 42 618h190q-18 -123 -66 -540h20q44 0 287 256t243 284h194q0 -30 -225 -256t-331 -300l-2 -11q106 -45 311 -369t205 -366h-197q0 17 -95 191t-201.5 318t-173.5 144h-48q-25 -234 -50 -653h-187z" />
<glyph unicode="L" horiz-adv-x="931" d="M88 0q18 106 85 684q39 375 44 618h185q-14 -85 -76 -618q-36 -342 -64 -548q232 0 597 11l-23 -147h-748z" />
<glyph unicode="M" horiz-adv-x="1594" d="M44 0q0 35 124 588.5t141 713.5h240q0 -156 100.5 -551t100.5 -532h10q11 107 221 548t220 535h245q-32 -285 -32 -684t18 -618h-189q0 526 50 1161h-11q-63 -202 -279 -641.5t-224 -519.5h-133q0 102 -101.5 534.5t-112.5 497.5t-18 129h-10q-19 -154 -106 -637.5 t-87 -523.5h-167z" />
<glyph unicode="N" horiz-adv-x="1245" d="M77 0q23 149 87 684q37 352 39 618h194q0 -60 254 -508t279 -575h8q-6 37 -6 146t30 394t33 543h173q-20 -119 -79 -618q-38 -359 -58 -684h-134q0 36 -275 526t-303 606h-11q6 -44 6 -154t-28 -373t-50 -605h-159z" />
<glyph unicode="O" horiz-adv-x="1318" d="M70 545q0 317 192.5 550t481.5 233q202 0 353 -159.5t151 -424.5q0 -310 -191.5 -546.5t-482.5 -236.5q-204 0 -354 160.5t-150 423.5zM244 573q0 -231 110 -352t262 -121q206 0 333.5 195t127.5 425t-111 349.5t-263 119.5q-209 0 -334 -192.5t-125 -423.5z" />
<glyph unicode="P" horiz-adv-x="1072" d="M88 0q20 126 86 684q36 344 42 618h144l302 6q167 0 266.5 -90t99.5 -225q0 -240 -182 -354t-455 -114q-55 0 -80 2q-25 -235 -30 -527h-193zM323 655q33 -2 81 -2q458 0 458 301q0 224 -308 224q-81 0 -181 -15z" />
<glyph unicode="Q" horiz-adv-x="1318" d="M70 564q0 284 188 524t486 240q202 0 352 -158t150 -404t-102.5 -436.5t-294.5 -294.5v-10q158 -16 220.5 -106t89.5 -353l-180 -8q-31 273 -99.5 338t-307.5 65q-201 0 -351.5 159.5t-150.5 443.5zM244 573q0 -231 110 -352t262 -121q206 0 333.5 195t127.5 425 t-111 349.5t-263 119.5q-209 0 -334 -192.5t-125 -423.5z" />
<glyph unicode="R" horiz-adv-x="1134" d="M88 0q21 141 84 684q37 352 42 618h142l260 6q180 0 283.5 -82t103.5 -212t-75 -224.5t-198 -136.5v-10q98 -32 161 -156.5t153 -486.5h-180q-56 266 -105 380.5t-113.5 146t-171.5 31.5t-163 -2q-34 -323 -38 -556h-185zM325 690q56 -2 108 -2q400 0 400 285 q0 203 -283 203q-109 0 -181 -13q-9 -115 -44 -473z" />
<glyph unicode="S" horiz-adv-x="998" d="M31 10l50 157q134 -58 278 -58q357 0 357 211q0 88 -65 149t-211 131t-219 149t-73 203q0 184 125 276t335 92t291 -31l-40 -159q-119 48 -281 48q-277 0 -277 -188q0 -74 56.5 -125t200.5 -119t230 -157.5t86 -227.5q0 -394 -530 -394q-179 0 -313 43z" />
<glyph unicode="T" horiz-adv-x="1033" d="M98 1159l19 143h944l-19 -141q-187 10 -386 10q-79 -637 -106 -1171h-185q23 157 85 684q31 291 45 487q-141 0 -397 -12z" />
<glyph unicode="U" horiz-adv-x="1282" d="M124 469q0 87 15 231t47 602h190q-87 -634 -87 -827t68.5 -281.5t234.5 -88.5t260 123.5t131 478.5q22 210 38 595h187q-19 -144 -76 -659q-70 -670 -581 -670q-200 0 -313.5 111t-113.5 385z" />
<glyph unicode="V" horiz-adv-x="1153" d="M74 1302h180q0 -130 134 -561t134 -541h10q7 70 250.5 533.5t243.5 568.5h182q0 -97 -323.5 -660.5t-331.5 -641.5h-124q0 126 -177.5 640.5t-177.5 661.5z" />
<glyph unicode="W" horiz-adv-x="1843" d="M74 1302h182q0 -38 105.5 -507.5t105.5 -594.5h10q11 108 219.5 575t208.5 527h167q0 -55 104.5 -524.5t104.5 -577.5h8q10 91 216 548.5t206 553.5h186q0 -76 -290 -657.5t-297 -644.5h-124q0 80 -114.5 517t-123.5 582h-10q-35 -142 -231 -587t-203 -512h-124 q0 102 -153 683.5t-153 618.5z" />
<glyph unicode="X" horiz-adv-x="1155" d="M-52 0q0 29 239 343t292 362v10q-44 59 -183.5 308.5t-139.5 278.5h205q0 -38 102 -235.5t142 -254.5h8q57 64 189.5 263t132.5 227h198q0 -28 -197 -266t-263 -301v-10q64 -75 222 -371.5t158 -353.5h-207q0 50 -124 294t-177 320h-11q-70 -86 -217.5 -327t-147.5 -287 h-221z" />
<glyph unicode="Y" horiz-adv-x="1049" d="M74 1302h194q0 -38 127 -323t127 -382h10q10 93 195.5 377t185.5 328h190q0 -38 -170 -262t-265.5 -365.5t-106.5 -250.5q-21 -200 -21 -424h-191q57 376 57 478t-65 254t-166 344.5t-101 225.5z" />
<glyph unicode="Z" horiz-adv-x="1000" d="M28 0l21 120q139 176 421 587.5t287 459.5l2 11q-208 0 -593 -25l17 149h775l-21 -124q-125 -161 -399.5 -575t-278.5 -456l-2 -11q196 0 608 27l-21 -163h-816z" />
<glyph unicode="[" horiz-adv-x="723" d="M82 -473q79 612 106 880t103 1101l458 13l-28 -172q-208 6 -280 6q-79 -627 -99 -825t-82 -859q70 2 296 19l-28 -174z" />
<glyph unicode="\" horiz-adv-x="490" d="M100 1455h151q0 -189 78.5 -940.5t78.5 -816.5h-153q0 169 -77.5 928.5t-77.5 828.5z" />
<glyph unicode="]" horiz-adv-x="723" d="M-92 -486l28 174q210 -6 286 -6q84 714 100 868t76 816q-70 -2 -297 -19l28 172l446 -11q-93 -758 -113 -952t-96 -1029z" />
<glyph unicode="^" horiz-adv-x="981" d="M29 682l499 735h83l343 -735l-130 -83l-262 645h-23l-397 -645z" />
<glyph unicode="_" horiz-adv-x="1000" d="M-164 -384h1033v-128h-1033v128z" />
<glyph unicode="`" horiz-adv-x="562" d="M143 1410h195q0 -11 69 -159.5t69 -164.5h-114q0 16 -108.5 164t-110.5 160z" />
<glyph unicode="a" horiz-adv-x="980" d="M54 325q0 250 175 435t503 189l44 31l118 15q-91 -508 -91 -739q0 -105 18 -246l-169 -25q-6 89 -6 223h-9q-127 -231 -335 -231q-121 0 -184.5 96.5t-63.5 251.5zM225 340q0 -224 152 -224q106 0 195 152.5t110.5 276t29.5 291.5q-254 -5 -370.5 -138.5t-116.5 -357.5z " />
<glyph unicode="b" horiz-adv-x="1106" d="M96 -10q13 92 87 756q42 400 42 661l190 10q0 -36 -22 -181q-21 -146 -35 -280t-26 -218h8q132 243 362 243q142 0 230 -104.5t88 -281.5q0 -270 -137.5 -446t-372.5 -176q-159 0 -238 66h-8l-27 -39zM280 159q97 -58 188 -58q190 0 285.5 121t95.5 313q0 308 -217 308 q-109 0 -212.5 -137t-119.5 -320z" />
<glyph unicode="c" horiz-adv-x="864" d="M86 417q0 230 149.5 393t406.5 163q113 0 182 -16l-41 -157q-96 31 -199 31q-150 0 -240.5 -116.5t-90.5 -268.5t63.5 -241t191.5 -89t272 92l-25 -148q-103 -87 -289 -87t-289 136q-91 119 -91 308z" />
<glyph unicode="d" horiz-adv-x="1102" d="M86 363q0 272 138 447t372 175q150 0 233 -66h8q21 207 36 488l185 6q0 -26 -34 -216t-60 -449.5t-26 -441.5t8 -306l-156 -13q-16 83 -16 233h-8q-132 -243 -362 -243q-142 0 -230 104.5t-88 281.5zM257 423q0 -308 217 -308q109 0 212.5 137t119.5 320l20 227 q-87 58 -188 58q-187 0 -284 -116.5t-97 -317.5z" />
<glyph unicode="e" horiz-adv-x="974" d="M86 406q0 277 161.5 432.5t372.5 155.5q128 0 214 -62t86 -171q0 -135 -125 -205q-159 -90 -542 -97q0 -180 62.5 -261.5t208.5 -81.5t318 102l-25 -148q-135 -97 -337 -97t-298 122.5t-96 310.5zM262 574q307 6 421 65q78 40 78 118q0 110 -191 110q-93 0 -186.5 -72 t-121.5 -221z" />
<glyph unicode="f" horiz-adv-x="681" d="M16 -372q93 76 131.5 173.5t65.5 372.5t53 623q-58 0 -203 -6l23 147q130 -8 194 -8q28 262 110.5 384t247.5 122q58 0 119 -15l-31 -126q-54 7 -111 7q-89 0 -127.5 -74t-62.5 -298q94 0 264 10l-20 -149q-184 6 -257 6q-28 -367 -52 -685.5t-99 -421.5t-205 -140z" />
<glyph unicode="g" horiz-adv-x="1040" d="M-28 -225q0 187 197 270l1 9q-61 33 -61 129t113 189l1 8q-39 21 -78 86t-39 146q0 177 121 273t291 96t262 -66h9q28 98 65.5 137t105.5 39t105 -15l-30 -138q-164 0 -200 -62l-1 -8q44 -74 44 -158q0 -177 -122.5 -278t-305.5 -101q-100 0 -151 20q-58 -41 -58 -104 t46.5 -79.5t358.5 -16.5q271 -1 271 -209t-169 -333.5t-384 -125.5t-303.5 77.5t-88.5 214.5zM115 -192q0 -211 261 -211q163 0 276 78.5t113 200.5q0 80 -57.5 103t-206.5 23t-250 12q-136 -67 -136 -206zM258 636q0 -200 219 -200q104 0 173.5 68t69.5 170t-60 152 t-161 50t-171 -69.5t-70 -170.5z" />
<glyph unicode="h" horiz-adv-x="1075" d="M96 -10q12 92 69 624t57 793l190 10q0 -36 -22 -181q-22 -146 -36 -280t-25 -218h8q130 243 358 243q261 0 261 -297q0 -79 -22.5 -322t-22.5 -362l-169 -10q0 44 29 283t29 359t-42.5 165.5t-142.5 45.5t-200.5 -142.5t-120.5 -340.5t-31 -360z" />
<glyph unicode="i" horiz-adv-x="465" d="M96 -10q83 570 83 739q0 168 -4 213l184 27q1 -72 -31 -289.5t-58 -679.5zM206 1221q0 58 38 98t96 40q91 0 91 -95q0 -58 -38 -99t-96 -41q-91 0 -91 97z" />
<glyph unicode="j" horiz-adv-x="465" d="M-58 -372q92 75 127 178t73.5 469t38.5 497t-4 170l182 27q0 -73 -27.5 -275.5t-49 -451.5t-26.5 -298q-34 -323 -275 -392zM205 1221q0 58 39.5 98t97.5 40q89 0 89 -95q0 -58 -38.5 -99t-96.5 -41q-91 0 -91 97z" />
<glyph unicode="k" horiz-adv-x="997" d="M96 -10q16 94 91 756q41 390 41 661l184 10q0 -51 -50 -441.5t-77 -645.5h10q53 125 266.5 355.5t213.5 274.5l206 -6q0 -33 -127.5 -162t-232.5 -215l-1 -10q112 -132 191 -314t79 -253l-181 -10q0 53 -57.5 208.5t-137.5 264.5q-69 -70 -120 -142q-122 -172 -132 -321z " />
<glyph unicode="l" horiz-adv-x="470" d="M96 -15q0 42 33 267.5t69 563.5t36 591l182 10q0 -59 -59.5 -481t-78.5 -931z" />
<glyph unicode="m" horiz-adv-x="1644" d="M96 -10q70 518 70 662t-16 294l169 25q6 -98 6 -233h8q116 243 337 243q119 0 179 -68.5t59 -174.5h9q124 243 346 243q262 0 262 -297q0 -112 -22.5 -342t-22.5 -342l-169 -10q0 77 28.5 311.5t28.5 338.5t-34.5 153.5t-109.5 49.5q-126 0 -216 -132.5t-112 -350.5 t-22 -360l-169 -10q0 67 29 308.5t29 343.5t-34.5 151.5t-109.5 49.5q-121 0 -214 -138.5t-112 -318.5q-24 -242 -34 -386z" />
<glyph unicode="n" horiz-adv-x="1071" d="M96 -10q70 518 70 662t-16 294l169 25q6 -88 6 -233h8q130 243 358 243q261 0 261 -297q0 -79 -22.5 -322t-22.5 -362l-169 -10q0 44 29 283t29 359t-42.5 165.5t-142.5 45.5t-200.5 -142.5t-120.5 -340.5t-31 -360z" />
<glyph unicode="o" horiz-adv-x="1085" d="M86 433q0 219 145 390t386 171q159 0 270.5 -118t111.5 -318q0 -241 -145.5 -419t-383.5 -178q-157 0 -270.5 126.5t-113.5 345.5zM255 438q0 -152 64.5 -251.5t185.5 -99.5q147 0 235.5 139.5t88.5 291.5t-63.5 251t-183.5 99q-149 0 -238 -139t-89 -291z" />
<glyph unicode="p" horiz-adv-x="1099" d="M40 -457q126 922 126 1177q0 95 -16 226l169 25q6 -83 6 -233h8q132 243 362 243q142 0 230 -104.5t88 -281.5q0 -271 -138 -446.5t-372 -175.5q-159 0 -233 66h-8q-29 -278 -44 -486zM273 159q97 -58 188 -58q191 0 286 120.5t95 313.5q0 308 -217 308q-108 0 -212 -137 t-120 -320z" />
<glyph unicode="q" horiz-adv-x="1089" d="M86 363q0 270 137.5 446t372.5 176q159 0 233 -66h8l43 31l123 11q-17 -96 -85 -674q-26 -244 -64 -732l-167 -10q14 105 39.5 340.5t47.5 334.5h-8q-132 -243 -362 -243q-142 0 -230 104.5t-88 281.5zM257 423q0 -308 217 -308q106 0 211 137t121 320l20 227 q-89 58 -184 58q-191 0 -288 -117.5t-97 -316.5z" />
<glyph unicode="r" horiz-adv-x="745" d="M96 -10q70 518 70 662t-16 294l169 25q8 -82 8 -147h8q120 159 257 159q72 0 169 -22l-60 -159q-70 20 -134 20q-229 0 -255 -236q-37 -342 -53 -586z" />
<glyph unicode="s" horiz-adv-x="803" d="M22 6l46 147q118 -44 258 -44q225 0 225 129q0 90 -180 169q-256 112 -256 277q0 143 105 219t263 76t254 -22l-45 -145q-100 37 -230 37q-194 0 -194 -130q0 -47 37 -79t141 -76q254 -109 254 -277q0 -308 -388 -308q-157 0 -290 27z" />
<glyph unicode="t" horiz-adv-x="761" d="M86 791l21 145q94 -6 164 -6q6 41 43 285l150 16q-18 -102 -47 -301q93 0 266 10l-20 -149q-165 6 -269 6q-52 -335 -52 -465t29 -172t113 -42t194 65l-25 -133q-105 -71 -229 -71t-178 67.5t-54 203.5t57 547q-53 0 -163 -6z" />
<glyph unicode="u" horiz-adv-x="1071" d="M119 268q0 79 22.5 321t22.5 361l173 20q0 -43 -31 -286.5t-31 -363.5t42.5 -165.5t142.5 -45.5t200.5 143t117.5 314q24 244 24 384l173 20q-70 -556 -70 -700t16 -264l-169 -25q-6 88 -6 233h-8q-130 -243 -358 -243q-261 0 -261 297z" />
<glyph unicode="v" horiz-adv-x="960" d="M86 950l184 11q0 -94 84 -393.5t84 -379.5h8q4 34 156 345t152 417l184 11q0 -99 -239.5 -505t-244.5 -456h-128q0 137 -120 494.5t-120 455.5z" />
<glyph unicode="w" horiz-adv-x="1515" d="M86 950l176 11q0 -85 67 -405t67 -368h10q8 78 159 391t151 371h162q0 -46 78.5 -383t78.5 -379h10q5 52 139 361.5t134 400.5l175 11q0 -90 -209.5 -496.5t-215.5 -464.5h-129q0 39 -65.5 321.5t-95.5 455.5h-8q-67 -180 -204 -461t-141 -316h-130q0 52 -104.5 463 t-104.5 487z" />
<glyph unicode="x" horiz-adv-x="1013" d="M22 -10q0 49 144.5 222t264.5 292v8q-53 71 -161 245t-108 193l205 11q0 -25 63 -162.5t104 -201.5h8q53 59 138 193t85 160l190 11q0 -42 -135 -200t-224 -242v-11q67 -94 184.5 -289t117.5 -219l-207 -10q0 26 -78.5 182t-130.5 241h-6q-56 -70 -155 -226.5t-99 -186.5 z" />
<glyph unicode="y" horiz-adv-x="928" d="M-1 -442l6 140q128 0 229.5 97.5t101.5 235.5t-125 483t-125 436l196 11q0 -123 78.5 -415.5t78.5 -374.5h11q5 52 144 355t139 424l173 11q0 -128 -207.5 -504t-240.5 -469q-90 -252 -167 -332q-94 -98 -292 -98z" />
<glyph unicode="z" horiz-adv-x="859" d="M34 0l25 145q54 49 298.5 337.5t244.5 323.5v10q-306 0 -479 -12l21 146h661l-27 -146q-79 -82 -302 -351.5t-223 -309.5v-9q287 0 494 17l-21 -151h-692z" />
<glyph unicode="{" horiz-adv-x="723" d="M39 438l16 149q247 54 247 179q0 45 -21 180t-21 197q0 171 149 275q125 87 312 103l24 -124q-335 -49 -335 -299q0 -51 23.5 -175.5t23.5 -161.5q0 -92 -75.5 -165t-167.5 -73v-9q60 0 128 -50t68 -134q0 -85 -64 -231.5t-64 -215.5q0 -173 288 -245l-73 -128 q-379 83 -379 296q0 85 64 254.5t64 237.5t-66 102t-141 38z" />
<glyph unicode="|" d="M175 1550h163q-11 -742 -11 -1075t13 -992h-163q10 659 10 984t-12 1083z" />
<glyph unicode="}" horiz-adv-x="723" d="M-78 -364q328 56 328 294q0 49 -18.5 174t-18.5 164q0 91 73.5 165.5t166.5 74.5l2 6q-58 0 -117 45q-78 59 -78 158q0 63 59 213.5t59 214.5q0 186 -272 250l62 126q381 -69 381 -300q0 -74 -65 -257.5t-65 -240.5q-1 -57 67 -91t143 -39l-14 -149q-243 -49 -243 -183 q0 -45 18 -178.5t18 -196.5q0 -167 -145 -269q-120 -84 -310 -107z" />
<glyph unicode="~" horiz-adv-x="981" d="M-8 364q168 262 347 262q65 0 182 -35t178 -35q113 0 206 118l87 -50q-166 -238 -345 -238q-65 0 -169.5 36.5t-165.5 36.5q-113 0 -233 -147z" />
<glyph unicode="&#xa1;" d="M100 -243q0 195 157 674h70q9 -267 9 -438q0 -351 -155 -351q-81 0 -81 115zM206 803q0 68 44.5 117.5t112.5 49.5q103 0 103 -114q0 -68 -44.5 -115.5t-112.5 -47.5q-103 0 -103 110z" />
<glyph unicode="&#xa2;" horiz-adv-x="1033" d="M145 477q0 206 131 364t336 191q14 134 22 306h106q-13 -87 -40 -298q99 0 184 -25l-41 -157q-97 35 -200 35q-147 0 -235 -119.5t-88 -264.5t80 -241t236 -96q71 0 203 37l-25 -134q-88 -45 -221 -45q-17 -157 -21 -283h-103q7 52 35 289q-176 27 -267.5 152.5 t-91.5 288.5z" />
<glyph unicode="&#xa3;" horiz-adv-x="909" d="M60 0l9 93q172 55 172 312q0 43 -4 93q-67 0 -154 -7l16 104q50 -3 138 -3q-2 30 -1 58q0 256 101 392t293 136q58 0 137 -8l-32 -122q-39 10 -97 10q-124 0 -192 -82.5t-68 -319.5q0 -22 1 -64q79 0 205 5l-15 -103q-77 4 -187 4q1 -21 1 -41q0 -253 -142 -338l-1 -10 q203 0 575 23l-31 -132h-724z" />
<glyph unicode="&#xa4;" horiz-adv-x="1000" d="M111 198l92 87q-40 69 -40 181t61 199l-97 92l102 102l97 -104q82 49 180 49t172 -44l110 115l101 -101l-111 -106q47 -72 47 -180t-46 -185l94 -88l-102 -102l-86 91q-91 -64 -199 -64t-187 49l-87 -92zM283 476q0 -94 57 -171t155 -77t153.5 73t55.5 167t-56.5 171 t-154.5 77t-154 -73t-56 -167z" />
<glyph unicode="&#xa5;" horiz-adv-x="909" d="M63 382l7 75h272q-9 46 -29 108h-231l8 77q134 -3 196 -3q-45 114 -122 267.5t-76 161.5h194q0 -7 98.5 -241.5t88.5 -323.5h6q10 90 143.5 321.5t134.5 243.5h178q-1 -10 -112 -166t-178 -265q73 2 195 5l-8 -77h-229q-39 -69 -57 -108h274l-7 -75q-171 3 -298 3 q-22 -212 -33 -385h-166q25 206 44 385q-108 0 -293 -3z" />
<glyph unicode="&#xa6;" d="M171 388h174q-13 -346 -13 -436t13 -469h-174q13 345 13 435t-13 470zM171 646q13 346 13 436t-13 469h174q-13 -345 -13 -435t13 -470h-174z" />
<glyph unicode="&#xa7;" horiz-adv-x="859" d="M-11 -401l44 147q118 -50 258 -50q225 0 225 147q0 74 -107 184l-199 199q-107 126 -107 238t69 191.5t179 104.5q-184 171 -184 321t106 241t264 91t254 -29l-46 -144q-99 43 -229 43q-196 0 -196 -149q0 -84 107 -190q99 -94 199 -189q107 -117 107 -231t-63.5 -193.5 t-176.5 -107.5q174 -163 174 -321t-109 -247t-274 -89t-295 33zM256 513q0 -79 151 -213q73 0 124 46.5t51 126.5t-144 211q-76 0 -129 -46t-53 -125z" />
<glyph unicode="&#xa8;" horiz-adv-x="836" d="M164 1222q0 53 34 90.5t86 37.5q80 0 80 -86q0 -53 -34 -90.5t-86 -37.5q-80 0 -80 86zM520 1224q0 52 35 89t87 37q80 0 80 -86q0 -53 -33 -90.5t-85 -37.5q-84 0 -84 88z" />
<glyph unicode="&#xa9;" horiz-adv-x="1245" d="M24 598q0 248 177 425t425 177t424 -177t176 -425t-175.5 -423t-424.5 -175t-425.5 175t-176.5 423zM116 600q0 -211 149.5 -360.5t360.5 -149.5t359.5 149.5t148.5 360.5t-148.5 360.5t-359.5 149.5t-360.5 -149.5t-149.5 -360.5zM352 592q0 142 107.5 251t270.5 109 q43 0 88 -14l-22 -79q-52 18 -95 18q-120 1 -191 -85t-71 -196t59 -178t171 -68q46 0 122 21l-13 -74q-85 -19 -130 -19q-149 0 -222.5 86t-73.5 228z" />
<glyph unicode="&#xaa;" horiz-adv-x="541" d="M27 949q0 147 97 253q97 105 275 105l23 14l88 10q-49 -272 -49 -371t10 -163l-123 -19q-4 42 -4 90h-8q-77 -92 -179 -92q-58 0 -94 46t-36 127zM152 975q0 -113 61 -113q144 0 164 367q-225 -12 -225 -254z" />
<glyph unicode="&#xab;" horiz-adv-x="929" d="M70 426l12 124l310 297l72 -66l-246 -293l184 -296l-84 -66zM463 426l12 124l310 297l72 -66l-246 -293l184 -296l-84 -66z" />
<glyph unicode="&#xac;" horiz-adv-x="1033" d="M93 640l17 153h777l-68 -644h-114l52 491h-664z" />
<glyph unicode="&#xae;" horiz-adv-x="1245" d="M24 758q0 248 177 425t425 177t424 -177t176 -425t-175.5 -423t-424.5 -175t-425.5 175t-176.5 423zM116 760q0 -211 149.5 -360.5t360.5 -149.5t359.5 149.5t148.5 360.5t-148.5 360.5t-359.5 149.5t-360.5 -149.5t-149.5 -360.5zM389 458q57 402 63 651h71l130 3 q90 0 141.5 -40.5t51.5 -110.5q0 -130 -136 -177v-5q48 -16 80 -78t77 -243h-90q-40 190 -77 234t-131 45q-41 0 -69 -1q-17 -162 -19 -278h-92zM507 803q28 -1 54 -1q200 0 200 142q0 102 -141 102q-55 0 -91 -7q-4 -57 -22 -236z" />
<glyph unicode="&#xaf;" horiz-adv-x="500" d="M81 1186l24 124h413l-25 -124h-412z" />
<glyph unicode="&#xb0;" horiz-adv-x="547" d="M2 1255q0 107 77 190t207 83t194 -73q65 -73 65 -179t-78 -192q-78 -85 -206 -85q-127 1 -193 75t-66 181zM121 1258q0 -60 36 -100q35 -40 107 -40t116 46t45 106q0 59 -37 99t-109 40q-72 1 -115 -45t-43 -106z" />
<glyph unicode="&#xb1;" horiz-adv-x="1033" d="M92 51l13 128h779l-13 -128h-779zM154 648l14 128h328l33 316h123l-33 -316h328l-14 -128h-328l-33 -316h-123l33 316h-328z" />
<glyph unicode="&#xb2;" horiz-adv-x="547" d="M43 620l20 90q63 36 169.5 147t106.5 229t-132 118q-36 0 -97 -13l21 97q65 15 146 15t134 -48t53 -127q0 -203 -256 -401l-2 -12q104 0 244 7l-23 -102h-384z" />
<glyph unicode="&#xb3;" horiz-adv-x="547" d="M25 630q233 28 278 95t45 106q0 114 -223 114l22 83q100 0 157 30t57 74t-26.5 58t-87.5 14t-128 -16l16 97q60 18 160 18t143 -37t43 -117t-118 -127v-12q115 -33 115 -154t-117 -206.5t-327 -99.5z" />
<glyph unicode="&#xb4;" horiz-adv-x="562" d="M110 1086q0 16 102 164.5t102 159.5h205q0 -12 -147.5 -160t-147.5 -164h-114z" />
<glyph unicode="&#xb5;" horiz-adv-x="1128" d="M116 941l204 7q-6 -228 -6 -343q0 -293 54 -385t198 -92t231 81q0 545 -20 732l192 9q-10 -214 -10 -446t30 -506l-158 -6q-21 81 -21 105h-8q-124 -97 -276 -97t-235 97h-10q0 -333 43 -552l-188 -20q13 443 13 805t-33 611z" />
<glyph unicode="&#xb6;" horiz-adv-x="1371" d="M179 938q0 207 125 340t340 133l349 -6h120q-16 -97 -85 -696q-77 -733 -105 -1122h-164q20 153 90 797t82 836l2 44q-101 7 -151 7q-19 -114 -103 -854q-63 -599 -81 -878l-2 -35h-113q13 78 63 522t56 534q-209 0 -316 86t-107 292z" />
<glyph unicode="&#xb7;" d="M137 577q1 67 45 115t112 48q103 0 103 -110q-1 -68 -45 -118t-112 -49q-103 0 -103 114z" />
<glyph unicode="&#xb8;" horiz-adv-x="470" d="M96 -142l64 194l68 -14l-26 -108q164 -57 164 -202q0 -222 -250 -222l-4 92q46 0 79 32.5t33 75.5q0 125 -128 152z" />
<glyph unicode="&#xb9;" horiz-adv-x="547" d="M91 1105l287 187h77q-52 -407 -70 -672h-129q44 310 56 519l-201 -103z" />
<glyph unicode="&#xba;" horiz-adv-x="590" d="M35 1019q0 118 79 213t226 95q148 -1 198 -139q16 -42 15 -96q-1 -136 -81 -232t-220 -96q-90 0 -154 68t-63 187zM158 1018q0 -174 114 -174q72 0 116 70t44 162q0 169 -121 169q-69 1 -111 -59t-42 -168z" />
<glyph unicode="&#xbb;" horiz-adv-x="929" d="M5 192l246 294l-184 295l84 66l248 -297l-12 -124l-310 -300zM420 192l246 294l-184 295l84 66l248 -297l-12 -124l-310 -300z" />
<glyph unicode="&#xbc;" horiz-adv-x="1550" d="M121 1105l287 187h77q-52 -407 -70 -672h-129q44 310 56 519l-201 -103zM155 -22q7 72 550 666t553 691l137 -20q-7 -66 -551 -666t-554 -691zM926 284q2 14 146 189t151 198h143q-22 -133 -48 -376q30 0 94 7l-23 -103h-81q-9 -87 -18 -241h-126q15 100 30 241h-265z M1036 292h86q42 0 82 4q15 96 33 262h-12q-29 -59 -89 -136t-100 -118v-12z" />
<glyph unicode="&#xbd;" horiz-adv-x="1550" d="M119 1105l287 187h77q-52 -407 -70 -672h-129q44 310 56 519l-201 -103zM155 -22q7 72 550 666t553 691l137 -20q-7 -66 -551 -666t-554 -691zM985 6l20 90q63 36 169 147t107 229q0 118 -132 118q-36 0 -97 -13l21 97q65 15 146 15t134 -48t53 -127q0 -203 -256 -401 l-2 -12q104 0 244 7l-23 -102h-384z" />
<glyph unicode="&#xbe;" horiz-adv-x="1550" d="M95 630q233 28 301 128q22 34 22 73q0 114 -223 114l22 83q100 0 157 30t57 74q-1 44 -27 58t-87 14t-128 -16l16 97q60 18 160 18t143 -37t43 -91q0 -106 -118 -153v-12q115 -33 115 -154t-117 -206q-117 -86 -327 -100zM155 -22q7 72 550 666t553 691l137 -20 q-7 -66 -551 -666t-554 -691zM936 286q2 14 146 189t151 198h143q-22 -133 -48 -376q30 0 94 7l-23 -103h-81q-9 -87 -18 -241h-126q15 100 30 241h-265zM1046 294h86q42 0 82 4q15 96 33 262h-12q-29 -59 -89 -136t-100 -118v-12z" />
<glyph unicode="&#xbf;" horiz-adv-x="723" d="M61 -84q0 122 88 223t211 147l35 151h75l14 -213q-260 -63 -260 -261t382 -198l-37 -126q-508 0 -508 277zM360 809q0 68 44.5 117.5t112.5 49.5q104 0 104 -114q0 -68 -44.5 -115.5t-112.5 -47.5q-104 0 -104 110z" />
<glyph unicode="&#xc0;" horiz-adv-x="1232" d="M-40 0q5 30 313 638t314 664h220q-1 -90 165 -653t166 -649h-199q0 97 -77 421h-548q-152 -328 -162 -421h-192zM367 552h465q-158 578 -158 624h-9q-3 -31 -298 -624zM457 1690h195q0 -10 69 -134t69 -140h-114q0 16 -108 139t-111 135z" />
<glyph unicode="&#xc1;" horiz-adv-x="1232" d="M-40 0q5 30 313 638t314 664h220q-1 -90 165 -653t166 -649h-199q0 97 -77 421h-548q-152 -328 -162 -421h-192zM367 552h465q-158 578 -158 624h-9q-3 -31 -298 -624zM618 1416q0 16 102 140t102 134h205q1 -12 -147 -135t-148 -139h-114z" />
<glyph unicode="&#xc2;" horiz-adv-x="1232" d="M-40 0q5 30 313 638t314 664h220q-1 -90 165 -653t166 -649h-199q0 97 -77 421h-548q-152 -328 -162 -421h-192zM367 552h465q-158 578 -158 624h-9q-3 -31 -298 -624zM420 1416q1 14 106 136t111 138h184q3 -16 77 -138t74 -136h-98q0 13 -157 168q-198 -155 -199 -168 h-98z" />
<glyph unicode="&#xc3;" horiz-adv-x="1232" d="M-40 0q5 30 313 638t314 664h220q-1 -90 165 -653t166 -649h-199q0 97 -77 421h-548q-152 -328 -162 -421h-192zM367 552h465q-158 578 -158 624h-9q-3 -31 -298 -624zM383 1476q129 178 262 178q49 0 119 -22t115 -22q84 0 176 80l52 -50q-127 -175 -260 -175 q-49 0 -119 24t-115 24q-84 0 -176 -87z" />
<glyph unicode="&#xc4;" horiz-adv-x="1232" d="M-40 0q5 30 313 638t314 664h220q-1 -90 165 -653t166 -649h-199q0 97 -77 421h-548q-152 -328 -162 -421h-192zM367 552h465q-158 578 -158 624h-9q-3 -31 -298 -624zM440 1530q0 52 34 90t86 38q80 0 80 -86q0 -52 -34 -90t-86 -38q-80 0 -80 86zM796 1532q0 52 35 89 t87 37q80 0 80 -86q0 -52 -33 -90t-85 -38q-84 0 -84 88z" />
<glyph unicode="&#xc5;" horiz-adv-x="1232" d="M-40 0q5 30 313 638t314 664h220q-1 -90 165 -653t166 -649h-199q0 97 -77 421h-548q-152 -328 -162 -421h-192zM367 552h465q-158 578 -158 624h-9q-3 -31 -298 -624zM515 1560q0 100 69 160t155 60t143 -51t57 -150t-69 -160t-155 -61t-143 52t-57 150zM609 1564 q0 -60 32 -90t80 -30t86 36t38 94q0 60 -32 90t-80 30t-86 -36t-38 -94z" />
<glyph unicode="&#xc6;" horiz-adv-x="1599" d="M-40 0q4 36 315.5 636t318.5 666h961l-21 -149q-283 12 -574 12q-4 -53 -29 -325l-8 -94q223 0 473 6l-15 -143q-237 9 -475 9q-27 -257 -41 -482q323 0 622 15l-21 -151h-781q18 118 56 421h-438q-148 -350 -155 -421h-188zM359 552h396q31 292 52 613h-149 q-4 -38 -299 -613z" />
<glyph unicode="&#xc7;" horiz-adv-x="1010" d="M70 567q0 319 215.5 536t540.5 217q86 0 177 -27l-44 -159q-104 36 -190 36q-239 0 -382 -170.5t-143 -412.5q0 -198 118 -334.5t343 -136.5q92 0 244 43l-27 -149q-149 -37 -232 -37t-132 6l-12 -49q164 -57 164 -202q0 -222 -250 -222l-4 92q46 0 79 32.5t33 75.5 q0 125 -128 152l44 135q-170 40 -292 183.5t-122 390.5z" />
<glyph unicode="&#xc8;" horiz-adv-x="986" d="M88 0q21 141 85 684q37 352 42 618h727l-23 -149q-258 12 -550 12q-4 -53 -29 -325l-9 -94q252 0 450 12l-17 -149q-208 9 -448 9q-27 -257 -44 -482q316 0 606 15l-25 -151h-765zM400 1690h195q0 -10 69 -134t69 -140h-114q-1 16 -109 139t-110 135z" />
<glyph unicode="&#xc9;" horiz-adv-x="986" d="M88 0q21 141 85 684q37 352 42 618h727l-23 -149q-258 12 -550 12q-4 -53 -29 -325l-9 -94q252 0 450 12l-17 -149q-208 9 -448 9q-27 -257 -44 -482q316 0 606 15l-25 -151h-765zM526 1416q0 16 102 140t102 134h205q1 -12 -147 -135t-148 -139h-114z" />
<glyph unicode="&#xca;" horiz-adv-x="986" d="M88 0q21 141 85 684q37 352 42 618h727l-23 -149q-258 12 -550 12q-4 -53 -29 -325l-9 -94q252 0 450 12l-17 -149q-208 9 -448 9q-27 -257 -44 -482q316 0 606 15l-25 -151h-765zM332 1416q1 14 106 136t111 138h184q3 -16 77 -138t74 -136h-98q0 13 -157 168 q-198 -155 -199 -168h-98z" />
<glyph unicode="&#xcb;" horiz-adv-x="986" d="M88 0q21 141 85 684q37 352 42 618h727l-23 -149q-258 12 -550 12q-4 -53 -29 -325l-9 -94q252 0 450 12l-17 -149q-208 9 -448 9q-27 -257 -44 -482q316 0 606 15l-25 -151h-765zM352 1530q0 52 34 90t86 38q80 0 80 -86q0 -52 -34 -90t-86 -38q-80 0 -80 86zM708 1532 q0 52 35 89t87 37q80 0 80 -86q0 -52 -33 -90t-85 -38q-84 0 -84 88z" />
<glyph unicode="&#xcc;" horiz-adv-x="494" d="M96 1690h195q0 -10 69 -134t69 -140h-114q-1 16 -109 139t-110 135zM103 0q23 148 87 684q37 354 39 618h192q-19 -123 -78 -618q-33 -315 -45 -612l-3 -72h-192z" />
<glyph unicode="&#xcd;" horiz-adv-x="494" d="M103 0q23 148 87 684q37 354 39 618h192q-19 -123 -78 -618q-33 -315 -45 -612l-3 -72h-192zM270 1416q0 16 102 140t102 134h205q1 -12 -147 -135t-148 -139h-114z" />
<glyph unicode="&#xce;" horiz-adv-x="494" d="M93 1416q1 14 106 136t111 138h184q4 -16 78 -138t73 -136h-98q0 13 -157 168q-198 -155 -199 -168h-98zM103 0q23 148 87 684q37 354 39 618h192q-19 -123 -78 -618q-33 -315 -45 -612l-3 -72h-192z" />
<glyph unicode="&#xcf;" horiz-adv-x="494" d="M94 1530q0 52 34 90t86 38q80 0 80 -86q0 -52 -34 -90t-86 -38q-80 0 -80 86zM103 0q23 148 87 684q37 354 39 618h192q-19 -123 -78 -618q-33 -315 -45 -612l-3 -72h-192zM450 1532q0 52 35 89t87 37q80 0 80 -86q0 -52 -33 -90t-85 -38q-84 0 -84 88z" />
<glyph unicode="&#xd0;" horiz-adv-x="1211" d="M9 568l25 167q86 -4 143 -4q31 306 37 571h113l238 6q289 0 433 -166t143 -402q0 -312 -205 -533t-522 -221q-99 0 -328 14l76 585zM272 136q73 -16 146 -16q254 0 404 174t150 429q0 195 -117 323t-360 127q-59 0 -130 -10q-7 -95 -40 -432q141 10 374 33l-22 -161 q-184 0 -366 -8q-23 -233 -39 -459z" />
<glyph unicode="&#xd1;" horiz-adv-x="1245" d="M77 0q23 149 87 684q37 352 39 618h194q0 -60 254 -508t279 -575h8q-6 37 -6 146t30 394t33 543h173q-20 -119 -79 -618q-38 -359 -58 -684h-134q0 36 -275 526t-303 606h-11q6 -44 6 -154t-28 -373t-50 -605h-159zM386 1476q129 178 262 178q48 0 118 -22t116 -22 q84 0 176 80l52 -50q-127 -175 -260 -175q-48 0 -118 24t-116 24q-84 0 -176 -87z" />
<glyph unicode="&#xd2;" horiz-adv-x="1318" d="M70 545q0 317 192 550t482 233q202 0 353 -160t151 -424q0 -310 -192 -546t-482 -237q-204 1 -354 161t-150 423zM244 573q0 -231 110 -352t262 -121q206 0 334 195t127 425q0 230 -111 350t-263 119q-209 -1 -334 -193t-125 -423zM525 1690h195q0 -10 69 -134t69 -140 h-114q0 16 -108 139t-111 135z" />
<glyph unicode="&#xd3;" horiz-adv-x="1318" d="M70 545q0 317 192 550t482 233q202 0 353 -160t151 -424q0 -310 -192 -546t-482 -237q-204 1 -354 161t-150 423zM244 573q0 -231 110 -352t262 -121q206 0 334 195t127 425q0 230 -111 350t-263 119q-209 -1 -334 -193t-125 -423zM711 1416q0 16 102 140t102 134h205 q0 -12 -148 -135t-147 -139h-114z" />
<glyph unicode="&#xd4;" horiz-adv-x="1318" d="M70 545q0 317 192 550t482 233q202 0 353 -160t151 -424q0 -310 -192 -546t-482 -237q-204 1 -354 161t-150 423zM244 573q0 -231 110 -352t262 -121q206 0 334 195t127 425q0 230 -111 350t-263 119q-209 -1 -334 -193t-125 -423zM514 1416q1 14 106 136t111 138h184 q3 -16 77 -138t74 -136h-98q0 13 -157 168q-198 -155 -199 -168h-98z" />
<glyph unicode="&#xd5;" horiz-adv-x="1318" d="M70 545q0 317 192 550t482 233q202 0 353 -160t151 -424q0 -310 -192 -546t-482 -237q-204 1 -354 161t-150 423zM244 573q0 -231 110 -352t262 -121q206 0 334 195t127 425q0 230 -111 350t-263 119q-209 -1 -334 -193t-125 -423zM441 1476q129 178 262 178 q49 0 119 -22t115 -22q84 0 176 80l52 -50q-127 -175 -260 -175q-49 0 -119 24t-115 24q-84 0 -176 -87z" />
<glyph unicode="&#xd6;" horiz-adv-x="1318" d="M70 545q0 317 192 550t482 233q202 0 353 -160t151 -424q0 -310 -192 -546t-482 -237q-204 1 -354 161t-150 423zM244 573q0 -231 110 -352t262 -121q206 0 334 195t127 425q0 230 -111 350t-263 119q-209 -1 -334 -193t-125 -423zM518 1530q0 52 34 90t86 38 q80 0 80 -86q0 -52 -34 -90t-86 -38q-80 0 -80 86zM874 1532q0 52 35 89t87 37q80 0 80 -86q0 -52 -33 -90t-85 -38q-84 0 -84 88z" />
<glyph unicode="&#xd7;" horiz-adv-x="1033" d="M140 244l287 259l-219 244l99 90l219 -244l286 259l81 -91l-285 -259l218 -244l-100 -90l-218 243l-286 -258z" />
<glyph unicode="&#xd8;" horiz-adv-x="1318" d="M-29 -83q4 45 201 264q-102 147 -102 364q0 317 192.5 550t481.5 233q196 0 344 -151q135 154 137 176l113 -31q-3 -37 -179 -234q89 -141 89 -344q0 -310 -191.5 -546.5t-482.5 -236.5q-186 0 -327 133q-163 -182 -165 -208zM244 558q0 -143 49 -245q330 356 687 744 q-118 135 -277 135q-207 0 -333 -192.5t-126 -441.5zM359 218q108 -115 257 -115q207 0 334 193.5t127 441.5q0 125 -38 218z" />
<glyph unicode="&#xd9;" horiz-adv-x="1282" d="M124 469q0 87 15 231t47 602h190q-87 -634 -87 -827q1 -193 69 -281t234 -89t260 123t131 479q22 210 38 595h187q-19 -144 -76 -659q-70 -670 -581 -670q-199 0 -313 111t-114 385zM471 1690h195q0 -10 69 -134t69 -140h-114q0 16 -108 139t-111 135z" />
<glyph unicode="&#xda;" horiz-adv-x="1282" d="M124 469q0 87 15 231t47 602h190q-87 -634 -87 -827q1 -193 69 -281t234 -89t260 123t131 479q22 210 38 595h187q-19 -144 -76 -659q-70 -670 -581 -670q-199 0 -313 111t-114 385zM660 1416q0 16 102 140t102 134h205q1 -12 -147 -135t-148 -139h-114z" />
<glyph unicode="&#xdb;" horiz-adv-x="1282" d="M124 469q0 87 15 231t47 602h190q-87 -634 -87 -827q1 -193 69 -281t234 -89t260 123t131 479q22 210 38 595h187q-19 -144 -76 -659q-70 -670 -581 -670q-199 0 -313 111t-114 385zM452 1416q1 14 106 136t111 138h184q3 -16 77 -138t74 -136h-98q0 13 -157 168 q-198 -155 -199 -168h-98z" />
<glyph unicode="&#xdc;" horiz-adv-x="1282" d="M124 469q0 87 15 231t47 602h190q-87 -634 -87 -827q1 -193 69 -281t234 -89t260 123t131 479q22 210 38 595h187q-19 -144 -76 -659q-70 -670 -581 -670q-199 0 -313 111t-114 385zM457 1530q0 52 34 90t86 38q80 0 80 -86q0 -52 -34 -90t-86 -38q-80 0 -80 86z M813 1532q0 52 35 89t87 37q80 0 80 -86q0 -52 -33 -90t-85 -38q-84 0 -84 88z" />
<glyph unicode="&#xdd;" horiz-adv-x="1049" d="M74 1302h194q0 -38 127 -323t127 -382h10q10 93 196 377t185 328h190q0 -38 -170 -262q-169 -224 -265 -366t-107 -250q-21 -200 -21 -424h-191q57 376 57 478t-65 254t-166 344t-101 226zM518 1416q0 16 102 140t102 134h205q1 -12 -147 -135t-148 -139h-114z" />
<glyph unicode="&#xde;" horiz-adv-x="1057" d="M88 0q107 760 128 1302h187q-17 -118 -25 -181q118 6 276 6t258.5 -90.5t100.5 -225.5q0 -236 -179 -351.5t-458 -115.5h-82q-19 -157 -19 -344h-187zM309 472h80q457 0 457 302q0 223 -308 223q-83 0 -178 -15q-10 -69 -51 -510z" />
<glyph unicode="&#xdf;" horiz-adv-x="1046" d="M-56 -372q93 76 131.5 173.5t65.5 372.5t47 529.5t69.5 420t167 239t261.5 73.5t225 -61t81 -159t-75 -188l-138 -140q-75 -80 -75 -154t138 -198t138 -269q0 -144 -104 -216t-242 -72q-136 0 -214 23l40 128q80 -31 180 -31q193 0 193 129q0 80 -138 210t-138 236 q0 104 76 197l142 148q76 86 76 163q0 122 -184 122q-157 0 -229.5 -107t-99 -437t-50.5 -648.5t-99 -421.5t-205 -140z" />
<glyph unicode="&#xe0;" horiz-adv-x="980" d="M54 325q0 250 175 435t503 189l44 31l118 15q-91 -508 -91 -739q0 -105 18 -246l-169 -25q-6 89 -6 223h-9q-127 -231 -335 -231q-120 1 -184 97t-64 251zM225 340q0 -224 152 -224q106 0 195 152q88 152 110 276t30 292q-254 -4 -370 -138t-117 -358zM333 1410h195 q0 -12 69 -160t69 -164h-114q0 16 -108 164t-111 160z" />
<glyph unicode="&#xe1;" horiz-adv-x="980" d="M54 325q0 250 175 435t503 189l44 31l118 15q-91 -508 -91 -739q0 -105 18 -246l-169 -25q-6 89 -6 223h-9q-127 -231 -335 -231q-120 1 -184 97t-64 251zM225 340q0 -224 152 -224q106 0 195 152q88 152 110 276t30 292q-254 -4 -370 -138t-117 -358zM480 1086 q0 16 102 164t102 160h205q1 -12 -147 -160t-148 -164h-114z" />
<glyph unicode="&#xe2;" horiz-adv-x="980" d="M54 325q0 250 175 435t503 189l44 31l118 15q-91 -508 -91 -739q0 -105 18 -246l-169 -25q-6 89 -6 223h-9q-127 -231 -335 -231q-120 1 -184 97t-64 251zM225 340q0 -224 152 -224q106 0 195 152q88 152 110 276t30 292q-254 -4 -370 -138t-117 -358zM284 1086 q1 12 106 160t111 164h184q3 -16 77 -164t74 -160h-98q0 13 -157 208q-198 -195 -199 -208h-98z" />
<glyph unicode="&#xe3;" horiz-adv-x="980" d="M54 325q0 250 175 435t503 189l44 31l118 15q-91 -508 -91 -739q0 -105 18 -246l-169 -25q-6 89 -6 223h-9q-127 -231 -335 -231q-120 1 -184 97t-64 251zM225 340q0 -224 152 -224q106 0 195 152q88 152 110 276t30 292q-254 -4 -370 -138t-117 -358zM278 1133 q129 211 262 211q48 0 118 -22t116 -22q84 0 176 92l52 -50q-127 -187 -260 -187q-48 0 -118 24t-116 24q-84 0 -176 -120z" />
<glyph unicode="&#xe4;" horiz-adv-x="980" d="M54 325q0 250 175 435t503 189l44 31l118 15q-91 -508 -91 -739q0 -105 18 -246l-169 -25q-6 89 -6 223h-9q-127 -231 -335 -231q-120 1 -184 97t-64 251zM225 340q0 -224 152 -224q106 0 195 152q88 152 110 276t30 292q-254 -4 -370 -138t-117 -358zM324 1222 q0 52 34 90t86 38q80 0 80 -86q0 -52 -34 -90t-86 -38q-80 0 -80 86zM680 1224q0 52 35 89t87 37q80 0 80 -86q0 -52 -33 -90t-85 -38q-84 0 -84 88z" />
<glyph unicode="&#xe5;" horiz-adv-x="980" d="M54 325q0 250 175 435t503 189l44 31l118 15q-91 -508 -91 -739q0 -105 18 -246l-169 -25q-6 89 -6 223h-9q-127 -231 -335 -231q-120 1 -184 97t-64 251zM225 340q0 -224 152 -224q106 0 195 152q88 152 110 276t30 292q-254 -4 -370 -138t-117 -358zM393 1262 q0 100 69 159q69 60 155 60t143 -51t57 -150t-69 -160t-155 -61q-86 -1 -143 51t-57 152zM487 1265q0 -59 32 -89t80 -31t86 35t38 95t-32 89t-80 31t-86 -35t-38 -95z" />
<glyph unicode="&#xe6;" horiz-adv-x="1547" d="M54 325q0 244 171 430.5t507 193.5l44 31l118 15l-18 -104h10q140 103 288 103t233.5 -62t85.5 -171q0 -135 -125 -205q-159 -90 -542 -97q0 -184 63 -263.5t209 -79.5t317 102l-25 -148q-135 -97 -334 -97q-303 0 -378 245h-10q-158 -241 -366 -241q-121 0 -184.5 96.5 t-63.5 251.5zM225 339q0 -223 152 -223q113 0 197.5 145t106.5 276t31 299q-253 -3 -370 -138.5t-117 -358.5zM835 574q307 6 421 65q78 40 78 118q0 49 -50 79.5t-142 30.5t-185.5 -72t-121.5 -221z" />
<glyph unicode="&#xe7;" horiz-adv-x="864" d="M86 433q0 205 146 372.5t410 167.5q113 0 182 -16l-41 -157q-96 31 -199 31q-154 0 -242.5 -118.5t-88.5 -264.5t61.5 -239t191.5 -93t274 92l-25 -148q-103 -87 -284 -87q-16 0 -32 1l-10 -44q164 -57 164 -202q0 -222 -250 -222l-4 92q46 0 79 32.5t33 75.5 q0 125 -128 152l42 127q-117 28 -198 135.5t-81 312.5z" />
<glyph unicode="&#xe8;" horiz-adv-x="974" d="M86 406q0 276 162 432t372 156q128 0 214 -62t86 -171q0 -135 -125 -205q-159 -90 -542 -97q1 -179 63 -261t208 -82t318 102l-25 -148q-135 -97 -337 -97q-202 1 -298 123t-96 310zM262 574q307 6 421 65q78 40 78 118q0 110 -191 110q-92 0 -186 -72t-122 -221z M333 1410h195q0 -12 69 -160t69 -164h-114q0 16 -108 164t-111 160z" />
<glyph unicode="&#xe9;" horiz-adv-x="974" d="M86 406q0 276 162 432t372 156q128 0 214 -62t86 -171q0 -135 -125 -205q-159 -90 -542 -97q1 -179 63 -261t208 -82t318 102l-25 -148q-135 -97 -337 -97q-202 1 -298 123t-96 310zM262 574q307 6 421 65q78 40 78 118q0 110 -191 110q-92 0 -186 -72t-122 -221z M505 1086q0 16 102 164t102 160h205q0 -12 -148 -160t-147 -164h-114z" />
<glyph unicode="&#xea;" horiz-adv-x="974" d="M86 406q0 276 162 432t372 156q128 0 214 -62t86 -171q0 -135 -125 -205q-159 -90 -542 -97q1 -179 63 -261t208 -82t318 102l-25 -148q-135 -97 -337 -97q-202 1 -298 123t-96 310zM262 574q307 6 421 65q78 40 78 118q0 110 -191 110q-92 0 -186 -72t-122 -221z M299 1086q1 12 106 160t111 164h184q4 -16 78 -164t73 -160h-98q0 13 -157 208q-198 -195 -199 -208h-98z" />
<glyph unicode="&#xeb;" horiz-adv-x="974" d="M86 406q0 276 162 432t372 156q128 0 214 -62t86 -171q0 -135 -125 -205q-159 -90 -542 -97q1 -179 63 -261t208 -82t318 102l-25 -148q-135 -97 -337 -97q-202 1 -298 123t-96 310zM262 574q307 6 421 65q78 40 78 118q0 110 -191 110q-92 0 -186 -72t-122 -221z M314 1222q0 52 34 90t86 38q80 0 80 -86q0 -52 -34 -90t-86 -38q-80 0 -80 86zM670 1224q0 52 35 89t87 37q80 0 80 -86q0 -52 -33 -90t-85 -38q-84 0 -84 88z" />
<glyph unicode="&#xec;" horiz-adv-x="465" d="M34 1410h195q0 -12 69 -160t69 -164h-114q-1 16 -109 164t-110 160zM96 -10q83 570 83 739q0 168 -4 213l184 27q0 -63 -28 -285q-27 -222 -35 -296q-8 -73 -26 -388z" />
<glyph unicode="&#xed;" horiz-adv-x="465" d="M96 -10q83 570 83 739q0 168 -4 213l184 27q0 -63 -28 -285q-27 -222 -35 -296q-8 -73 -26 -388zM198 1086q0 16 102 164t102 160h205q1 -12 -147 -160t-148 -164h-114z" />
<glyph unicode="&#xee;" horiz-adv-x="465" d="M15 1086q1 12 106 160t111 164h184q4 -16 78 -164t73 -160h-98q0 13 -157 208q-198 -195 -199 -208h-98zM96 -10q83 570 83 739q0 168 -4 213l184 27q0 -63 -28 -285q-27 -222 -35 -296q-8 -73 -26 -388z" />
<glyph unicode="&#xef;" horiz-adv-x="465" d="M17 1221q0 53 34 91t86 37q80 0 80 -86q0 -53 -34 -91t-86 -37q-80 0 -80 86zM96 -10q83 570 83 739q0 168 -4 213l184 27q0 -63 -28 -285q-27 -222 -35 -296q-8 -73 -26 -388zM373 1223q0 52 35 89t87 37q80 0 80 -86q0 -53 -33 -91t-85 -37q-84 0 -84 88z" />
<glyph unicode="&#xf0;" horiz-adv-x="1092" d="M86 400q0 196 134.5 368t347.5 172q134 0 236 -70h10q-36 164 -124 283q-74 -47 -160 -114l-62 119q46 15 168 71q-54 73 -113 124l98 85q44 -28 151 -136q83 48 192 124l62 -124q-50 -22 -193 -83q150 -211 150 -514t-124 -523.5t-388 -220.5q-188 0 -286.5 121.5 t-98.5 317.5zM255 415q0 -143 66.5 -230t183.5 -87q160 0 241 191t81 447q-103 72 -250 72t-234.5 -125t-87.5 -268z" />
<glyph unicode="&#xf1;" horiz-adv-x="1071" d="M96 -10q70 518 70 662t-16 294l169 25q6 -88 6 -233h8q130 243 358 243q261 0 261 -297q0 -79 -22 -322t-23 -362l-169 -10q0 44 29 283t29 359t-42 166t-143 45t-201 -143t-120 -340t-31 -360zM278 1133q129 211 262 211q48 0 118 -22t116 -22q84 0 176 92l52 -50 q-127 -187 -260 -187q-48 0 -118 24t-116 24q-84 0 -176 -120z" />
<glyph unicode="&#xf2;" horiz-adv-x="1085" d="M86 433q0 219 145 390t386 171q159 0 271 -118t111 -318q1 -241 -145 -419t-384 -178q-156 1 -270 127t-114 345zM255 438q1 -152 65 -252t185 -99q147 -1 235 139t89 292t-63 250q-64 100 -184 100q-149 0 -238 -140t-89 -290zM333 1410h195q0 -12 69 -160t69 -164h-114 q0 16 -108 164t-111 160z" />
<glyph unicode="&#xf3;" horiz-adv-x="1085" d="M86 433q0 219 145 390t386 171q159 0 271 -118t111 -318q1 -241 -145 -419t-384 -178q-156 1 -270 127t-114 345zM255 438q1 -152 65 -252t185 -99q147 -1 235 139t89 292t-63 250q-64 100 -184 100q-149 0 -238 -140t-89 -290zM525 1086q0 16 102 164t102 160h205 q0 -12 -148 -160t-147 -164h-114z" />
<glyph unicode="&#xf4;" horiz-adv-x="1085" d="M86 433q0 219 145 390t386 171q159 0 271 -118t111 -318q1 -241 -145 -419t-384 -178q-156 1 -270 127t-114 345zM255 438q1 -152 65 -252t185 -99q147 -1 235 139t89 292t-63 250q-64 100 -184 100q-149 0 -238 -140t-89 -290zM364 1086q1 12 106 160t111 164h184 q3 -16 77 -164t74 -160h-98q0 13 -157 208q-198 -195 -199 -208h-98z" />
<glyph unicode="&#xf5;" horiz-adv-x="1085" d="M86 433q0 219 145 390t386 171q159 0 271 -118t111 -318q1 -241 -145 -419t-384 -178q-156 1 -270 127t-114 345zM255 438q1 -152 65 -252t185 -99q147 -1 235 139t89 292t-63 250q-64 100 -184 100q-149 0 -238 -140t-89 -290zM288 1133q129 211 262 211q48 0 118 -22 t116 -22q84 0 176 92l52 -50q-127 -187 -260 -187q-48 0 -118 24t-116 24q-84 0 -176 -120z" />
<glyph unicode="&#xf6;" horiz-adv-x="1085" d="M86 433q0 219 145 390t386 171q159 0 271 -118t111 -318q1 -241 -145 -419t-384 -178q-156 1 -270 127t-114 345zM255 438q1 -152 65 -252t185 -99q147 -1 235 139t89 292t-63 250q-64 100 -184 100q-149 0 -238 -140t-89 -290zM354 1222q0 52 34 90t86 38q80 0 80 -86 q0 -52 -34 -90t-86 -38q-80 0 -80 86zM710 1224q0 52 35 89t87 37q80 0 80 -86q0 -52 -33 -90t-85 -38q-84 0 -84 88z" />
<glyph unicode="&#xf7;" horiz-adv-x="1033" d="M127 438l14 128h765l-15 -128h-764zM380 152q0 52 35 89t87 37q80 0 80 -86q0 -52 -33 -90t-85 -38q-84 0 -84 88zM459 806q0 52 35 89t87 37q80 0 80 -86q0 -52 -33 -90t-85 -38q-84 0 -84 88z" />
<glyph unicode="&#xf8;" horiz-adv-x="1085" d="M-22 -83q4 38 164 208q-66 102 -66 262q0 241 145 424t382 183q175 0 282 -118q104 111 106 136l84 -31q-3 -32 -139 -179q52 -98 52 -238q0 -241 -145 -422t-382 -181q-156 0 -260 95q-141 -146 -143 -170zM243 429q0 -92 29 -170q173 172 492 492q-68 117 -207 117 t-226.5 -140t-87.5 -299zM317 176q68 -89 178 -89q150 0 236.5 140t86.5 298q0 72 -17 135q-168 -167 -484 -484z" />
<glyph unicode="&#xf9;" horiz-adv-x="1071" d="M119 268q1 79 23 321t22 361l173 20q0 -42 -31 -286t-31 -364q1 -120 43 -166t142 -45q100 0 200 143t118 314q24 244 24 384l173 20q-70 -556 -70 -700t16 -264l-169 -25q-6 88 -6 233h-8q-130 -243 -358 -243q-261 0 -261 297zM333 1410h195q0 -12 69 -160t69 -164 h-114q0 16 -108 164t-111 160z" />
<glyph unicode="&#xfa;" horiz-adv-x="1071" d="M119 268q1 79 23 321t22 361l173 20q0 -42 -31 -286t-31 -364q1 -120 43 -166t142 -45q100 0 200 143t118 314q24 244 24 384l173 20q-70 -556 -70 -700t16 -264l-169 -25q-6 88 -6 233h-8q-130 -243 -358 -243q-261 0 -261 297zM505 1086q0 16 102 164t102 160h205 q0 -12 -148 -160t-147 -164h-114z" />
<glyph unicode="&#xfb;" horiz-adv-x="1071" d="M119 268q1 79 23 321t22 361l173 20q0 -42 -31 -286t-31 -364q1 -120 43 -166t142 -45q100 0 200 143t118 314q24 244 24 384l173 20q-70 -556 -70 -700t16 -264l-169 -25q-6 88 -6 233h-8q-130 -243 -358 -243q-261 0 -261 297zM309 1086q1 12 106 160t111 164h184 q4 -16 78 -164t73 -160h-98q0 13 -157 208q-198 -195 -199 -208h-98z" />
<glyph unicode="&#xfc;" horiz-adv-x="1071" d="M119 268q1 79 23 321t22 361l173 20q0 -42 -31 -286t-31 -364q1 -120 43 -166t142 -45q100 0 200 143t118 314q24 244 24 384l173 20q-70 -556 -70 -700t16 -264l-169 -25q-6 88 -6 233h-8q-130 -243 -358 -243q-261 0 -261 297zM324 1222q0 52 34 90t86 38q80 0 80 -86 q0 -52 -34 -90t-86 -38q-80 0 -80 86zM680 1224q0 52 35 89t87 37q80 0 80 -86q0 -52 -33 -90t-85 -38q-84 0 -84 88z" />
<glyph unicode="&#xfd;" horiz-adv-x="928" d="M-1 -442l6 140q127 0 229 98t102 235q0 138 -125 483t-125 436l196 11q0 -123 78 -415t79 -375h11q5 52 144 355t139 424l173 11q0 -128 -208 -504t-240 -469q-90 -252 -167 -332q-94 -98 -292 -98zM435 1086q0 16 102 164t102 160h205q0 -12 -148 -160t-147 -164h-114z " />
<glyph unicode="&#xfe;" horiz-adv-x="1099" d="M40 -457q32 219 138 1203q40 410 40 661l190 10q0 -19 -22 -181t-36 -288q-13 -126 -25 -210h8q132 243 362 243q142 0 230 -104.5t88 -281.5q0 -270 -137.5 -446t-372.5 -176q-159 0 -233 66h-8q-29 -278 -44 -496h-178zM273 159q97 -58 188 -58q192 0 286.5 121 t94.5 313q0 308 -217 308q-108 0 -212 -137t-120 -320z" />
<glyph unicode="&#xff;" horiz-adv-x="928" d="M-1 -442l6 140q127 0 229 98t102 235q0 138 -125 483t-125 436l196 11q0 -123 78 -415t79 -375h11q5 52 144 355t139 424l173 11q0 -128 -208 -504t-240 -469q-90 -252 -167 -332q-94 -98 -292 -98zM258 1222q0 52 34 90t86 38q80 0 80 -86q0 -52 -34 -90t-86 -38 q-80 0 -80 86zM614 1224q0 52 35 89t87 37q80 0 80 -86q0 -52 -33 -90t-85 -38q-84 0 -84 88z" />
<glyph unicode="&#x152;" horiz-adv-x="1736" d="M70 547q0 297 171 527q189 254 480 254q114 0 261 -26h710l-22 -149q-328 12 -571 12q-5 -67 -41 -419q194 0 475 6l-16 -143q-233 9 -471 9q-27 -257 -40 -482q225 0 618 15l-23 -151h-774q-141 -37 -265 -37q-248 0 -379 184q-113 158 -113 400zM252 588 q0 -211 89 -347t246 -136t252 40q72 552 105 1014q-113 33 -254 33q-211 0 -335 -214q-103 -179 -103 -390z" />
<glyph unicode="&#x153;" horiz-adv-x="1678" d="M86 434q0 220 145.5 390t385.5 170q203 0 296 -194h6q157 194 405 194q128 0 214 -62t86 -171q0 -135 -125 -205q-159 -90 -542 -97q0 -167 57.5 -255t209.5 -88t322 102l-25 -148q-135 -97 -334 -97q-244 0 -342 185h-10q-137 -197 -365 -197q-157 0 -270.5 126.5 t-113.5 346.5zM255 436q0 -150 64.5 -249.5t185.5 -99.5q150 0 232 140.5t82 292.5t-59 250t-178 98q-151 0 -239 -141t-88 -291zM966 574q307 6 421 65q78 40 78 118q0 49 -50.5 79.5t-142.5 30.5t-185 -72t-121 -221z" />
<glyph unicode="&#x178;" horiz-adv-x="1049" d="M74 1302h194q0 -38 127 -323t127 -382h10q10 93 196 377t185 328h190q0 -38 -170 -262q-169 -224 -265 -366t-107 -250q-21 -200 -21 -424h-191q57 376 57 478t-65 254t-166 344t-101 226zM333 1530q0 52 34 90t86 38q80 0 80 -86q0 -52 -34 -90t-86 -38q-80 0 -80 86z M689 1532q0 52 35 89t87 37q80 0 80 -86q0 -52 -33 -90t-85 -38q-84 0 -84 88z" />
<glyph unicode="&#x2c6;" horiz-adv-x="782" d="M124 1086q1 13 106 160.5t111 163.5h184q4 -16 77.5 -163.5t73.5 -160.5h-98q0 13 -157 208q-198 -195 -199 -208h-98z" />
<glyph unicode="&#x2dc;" horiz-adv-x="884" d="M122 1133q129 211 262 211q48 0 118.5 -22t115.5 -22q84 0 176 92l52 -50q-127 -187 -260 -187q-48 0 -118.5 24t-115.5 24q-84 0 -176 -120z" />
<glyph unicode="&#x2000;" horiz-adv-x="890" />
<glyph unicode="&#x2001;" horiz-adv-x="1780" />
<glyph unicode="&#x2002;" horiz-adv-x="890" />
<glyph unicode="&#x2003;" horiz-adv-x="1780" />
<glyph unicode="&#x2004;" horiz-adv-x="593" />
<glyph unicode="&#x2005;" horiz-adv-x="445" />
<glyph unicode="&#x2006;" horiz-adv-x="296" />
<glyph unicode="&#x2007;" horiz-adv-x="296" />
<glyph unicode="&#x2008;" horiz-adv-x="222" />
<glyph unicode="&#x2009;" horiz-adv-x="356" />
<glyph unicode="&#x200a;" horiz-adv-x="98" />
<glyph unicode="&#x2010;" d="M41 438l23 128l411 15l-25 -129z" />
<glyph unicode="&#x2011;" d="M41 438l23 128l411 15l-25 -129z" />
<glyph unicode="&#x2012;" d="M41 438l23 128l411 15l-25 -129z" />
<glyph unicode="&#x2013;" horiz-adv-x="1024" d="M62 440l12 128h894l-13 -128h-893z" />
<glyph unicode="&#x2014;" horiz-adv-x="2048" d="M-5 440l13 128h2045l-13 -128h-2045z" />
<glyph unicode="&#x2018;" d="M110 925q0 254 322 521l48 -67q-94 -99 -122 -167t-37 -157q51 -30 51 -99t-47.5 -115t-105.5 -46q-57 0 -83 39t-26 91z" />
<glyph unicode="&#x2019;" d="M112 851q94 99 122 167t37 158q-52 30 -52 99t47.5 115t105.5 46t84 -39t25 -91q0 -254 -322 -521z" />
<glyph unicode="&#x201a;" d="M-47 -310q93 98 121 166t38 158q-49 28 -49 98q1 70 47 116t104 47t84 -39t25 -93q0 -242 -324 -511z" />
<glyph unicode="&#x201c;" horiz-adv-x="1033" d="M110 925q0 254 322 521l48 -67q-94 -99 -122 -167t-37 -157q51 -30 51 -99t-48 -115t-105 -46t-83 39t-26 91zM598 925q0 254 322 521l48 -67q-94 -99 -122 -167t-37 -157q51 -30 51 -99t-48 -115t-105 -46t-83 39t-26 91z" />
<glyph unicode="&#x201d;" horiz-adv-x="1033" d="M112 851q94 99 122 167t37 158q-52 30 -52 99q-1 69 47 115t106 46t84 -39t25 -91q0 -254 -322 -521zM582 851q94 99 122 167t37 158q-52 30 -52 99q-1 69 47 115t106 46t84 -39t25 -91q0 -254 -322 -521z" />
<glyph unicode="&#x201e;" horiz-adv-x="1033" d="M-47 -310q93 98 121 166t38 158q-49 28 -49 98q1 70 47 116t104 47t84 -39t25 -93q0 -242 -324 -511zM456 -310q94 98 122 166t37 158q-49 28 -49 98t46 116t105 47q57 1 83 -39t26 -93q0 -242 -324 -511z" />
<glyph unicode="&#x2022;" horiz-adv-x="1351" d="M385 619q0 141 89 244.5t237 103.5q104 0 180 -83t76 -224t-88.5 -243.5t-237.5 -102.5q-104 0 -180 82t-76 223z" />
<glyph unicode="&#x2026;" horiz-adv-x="2048" d="M153 112q1 68 45 116t112 47q103 0 103 -110q-1 -67 -45 -117t-112 -50q-103 0 -103 114zM741 112q1 68 45 116t112 47q103 0 103 -110q-1 -67 -45 -117t-112 -50q-103 0 -103 114zM1329 112q1 68 45 116t112 47q103 0 103 -110q-1 -67 -45 -117t-112 -50 q-103 0 -103 114z" />
<glyph unicode="&#x202f;" horiz-adv-x="356" />
<glyph unicode="&#x2039;" d="M70 426l12 124l310 297l72 -66l-246 -293l184 -296l-84 -66z" />
<glyph unicode="&#x203a;" d="M5 192l246 294l-184 295l84 66l248 -297l-12 -124l-310 -300z" />
<glyph unicode="&#x205f;" horiz-adv-x="445" />
<glyph unicode="&#x20ac;" horiz-adv-x="909" d="M38 433l27 80h84q5 49 17 96h-109l26 79h103q125 398 478 398q116 0 177 -20l-38 -139q-83 28 -185 28q-205 0 -277 -267q205 0 409 6l-23 -85h-402q-8 -49 -9 -96h385l-25 -86q-178 6 -359 6q-5 -143 61 -233t166 -91q100 0 207 36l-22 -129q-107 -38 -223 -38 q-165 0 -264.5 121t-98.5 334h-105z" />
<glyph unicode="&#x2122;" horiz-adv-x="1294" d="M44 1311l10 71h472l-10 -70q-94 5 -194 5l-26 -244q-17 -163 -26 -342h-92q41 298 65 586q-71 0 -199 -6zM528 731q0 19 62 295t70 356h120q0 -78 50.5 -275.5t50.5 -265.5h5q5 53 110 273.5t110 267.5h128q-15 -143 -15 -321l3 -330h-95q0 263 25 581h-5 q-31 -98 -139 -320q-109 -221 -113 -261h-66q0 51 -51 267q-59 251 -65 314h-5l-97 -581h-83z" />
<glyph unicode="&#x25fc;" horiz-adv-x="960" d="M0 0v960h960v-960h-960z" />
</font>
</defs>
</svg>
